<svg width="2280" height="690" viewBox="0 0 2280 690" fill="none" xmlns="http://www.w3.org/2000/svg">
<rect x="32.5" y="32.5" width="2215" height="625" rx="31.5" fill="#141031" stroke="#3D3192"/>
<path d="M723.048 216L712.36 196.8H700.008V216H694.184V169.664H710.696C716.776 169.664 721.32 170.752 724.328 172.992C727.272 175.232 728.744 178.624 728.744 183.168C728.744 190.144 725.288 194.368 718.44 195.968L729.704 216H723.048ZM711.336 191.68C715.368 191.68 718.248 190.976 720.04 189.568C721.832 188.224 722.728 186.112 722.728 183.232C722.728 180.352 721.832 178.24 720.04 176.832C718.248 175.488 715.368 174.784 711.336 174.784H700.008V191.68H711.336ZM764.082 181.568V216H758.514V210.56C756.274 214.72 752.498 216.768 747.25 216.768C743.282 216.768 740.338 215.616 738.354 213.248C736.37 210.944 735.41 207.808 735.41 203.904V181.568H740.978V202.56C740.978 208.896 743.538 212.032 748.722 212.032C751.922 212.032 754.354 210.944 756.018 208.768C757.682 206.592 758.514 203.776 758.514 200.256V181.568H764.082ZM789.495 180.8C793.463 180.8 796.407 181.952 798.391 184.256C800.375 186.624 801.335 189.76 801.335 193.664V216H795.767V195.008C795.767 188.672 793.207 185.472 788.023 185.472C784.887 185.472 782.455 186.56 780.791 188.736C779.063 190.976 778.231 193.792 778.231 197.312V216H772.663V181.568H778.231V187.008C780.471 182.848 784.247 180.8 789.495 180.8ZM824.596 211.264V216H820.116C817.108 216 814.932 215.424 813.524 214.272C812.052 213.184 811.348 211.008 811.348 207.872V186.048H805.588V181.568H811.348V173.504H816.916V181.568H824.148V186.048H816.916V206.848C816.916 208.512 817.236 209.664 817.812 210.304C818.388 210.944 819.412 211.264 820.948 211.264H824.596ZM830.101 169.664H837.013V176.448H830.101V169.664ZM830.741 181.568H836.309V216H830.741V181.568ZM882.487 180.8C884.727 180.8 886.583 181.184 888.183 182.016C889.783 182.848 890.935 183.936 891.767 185.344C892.599 186.752 893.175 188.16 893.495 189.632C893.815 191.104 894.007 192.768 894.007 194.496V216H888.439V194.432C888.439 188.48 886.007 185.472 881.079 185.472C877.943 185.472 875.703 186.56 874.295 188.8C872.823 191.04 872.119 193.664 872.119 196.736V216H866.551V194.944C866.551 188.608 864.119 185.472 859.319 185.472C856.183 185.472 853.879 186.624 852.407 188.928C850.935 191.296 850.231 194.176 850.231 197.632V216H844.663V181.568H850.231V187.2C852.407 182.912 855.991 180.8 860.919 180.8C865.975 180.8 869.303 183.04 870.903 187.52C873.527 183.04 877.367 180.8 882.487 180.8ZM916.132 180.8C921.444 180.8 925.54 182.592 928.42 186.112C931.3 189.696 932.58 194.432 932.26 200.32H905.316C905.572 203.84 906.66 206.72 908.58 208.832C910.5 210.944 913.06 212.032 916.26 212.032C918.756 212.032 920.932 211.392 922.724 210.048C924.516 208.768 925.668 207.04 926.244 204.8H931.94C931.172 208.64 929.38 211.584 926.628 213.632C923.812 215.744 920.356 216.768 916.26 216.768C911.076 216.768 906.98 215.104 904.036 211.84C901.028 208.576 899.556 204.224 899.556 198.784C899.556 193.344 901.028 188.992 904.036 185.728C907.044 182.464 911.076 180.8 916.132 180.8ZM926.372 196.032C926.308 193.152 925.348 190.72 923.62 188.608C921.828 186.496 919.268 185.472 915.94 185.472C912.868 185.472 910.436 186.432 908.644 188.288C906.852 190.144 905.764 192.768 905.38 196.032H926.372ZM971.058 180.8C975.474 180.8 978.994 182.4 981.746 185.6C984.434 188.864 985.778 193.216 985.778 198.784C985.778 204.288 984.434 208.64 981.746 211.904C978.994 215.168 975.474 216.768 971.058 216.768C966.13 216.768 962.354 214.592 959.794 210.304V228.8H954.226V181.568H959.794V187.264C962.354 182.976 966.13 180.8 971.058 180.8ZM969.906 212.032C973.042 212.032 975.474 210.816 977.33 208.32C979.186 205.888 980.082 202.688 980.082 198.784C980.082 194.88 979.186 191.68 977.33 189.184C975.474 186.688 973.042 185.472 969.906 185.472C966.77 185.472 964.21 186.688 962.354 189.184C960.434 191.68 959.474 194.88 959.474 198.784C959.474 202.688 960.434 205.888 962.354 208.32C964.21 210.816 966.77 212.032 969.906 212.032ZM1006.95 181.184C1007.72 181.184 1008.42 181.248 1009.13 181.376V186.944C1008.36 186.816 1007.53 186.752 1006.69 186.752C1005.22 186.752 1004.01 186.944 1002.92 187.328C1001.83 187.776 1001 188.352 1000.36 189.12C999.718 189.952 999.206 190.72 998.822 191.488C998.374 192.32 998.118 193.28 997.99 194.496C997.798 195.712 997.734 196.672 997.67 197.376C997.606 198.08 997.606 199.04 997.606 200.192V216H992.038V181.568H997.542V187.136C999.526 183.168 1002.66 181.184 1006.95 181.184ZM1028.44 216.768C1023.44 216.768 1019.48 215.168 1016.6 211.904C1013.72 208.64 1012.24 204.288 1012.24 198.784C1012.24 193.28 1013.72 188.928 1016.6 185.664C1019.48 182.4 1023.44 180.8 1028.44 180.8C1033.43 180.8 1037.4 182.4 1040.28 185.664C1043.16 188.928 1044.63 193.28 1044.63 198.784C1044.63 204.288 1043.16 208.64 1040.28 211.904C1037.4 215.168 1033.43 216.768 1028.44 216.768ZM1028.44 212.032C1031.7 212.032 1034.32 210.88 1036.18 208.512C1038.04 206.208 1038.93 202.944 1038.93 198.784C1038.93 194.624 1038.04 191.36 1036.18 188.992C1034.32 186.624 1031.7 185.472 1028.44 185.472C1025.17 185.472 1022.61 186.624 1020.76 188.992C1018.9 191.36 1017.94 194.624 1017.94 198.784C1017.94 202.944 1018.9 206.208 1020.76 208.512C1022.61 210.88 1025.17 212.032 1028.44 212.032ZM1066.16 211.264V216H1061.68C1058.67 216 1056.49 215.424 1055.09 214.272C1053.61 213.184 1052.91 211.008 1052.91 207.872V186.048H1047.15V181.568H1052.91V173.504H1058.48V181.568H1065.71V186.048H1058.48V206.848C1058.48 208.512 1058.8 209.664 1059.37 210.304C1059.95 210.944 1060.97 211.264 1062.51 211.264H1066.16ZM1086.51 180.8C1091.82 180.8 1095.91 182.592 1098.79 186.112C1101.67 189.696 1102.95 194.432 1102.63 200.32H1075.69C1075.95 203.84 1077.03 206.72 1078.95 208.832C1080.87 210.944 1083.43 212.032 1086.63 212.032C1089.13 212.032 1091.31 211.392 1093.1 210.048C1094.89 208.768 1096.04 207.04 1096.62 204.8H1102.31C1101.55 208.64 1099.75 211.584 1097 213.632C1094.19 215.744 1090.73 216.768 1086.63 216.768C1081.45 216.768 1077.35 215.104 1074.41 211.84C1071.4 208.576 1069.93 204.224 1069.93 198.784C1069.93 193.344 1071.4 188.992 1074.41 185.728C1077.42 182.464 1081.45 180.8 1086.51 180.8ZM1096.75 196.032C1096.68 193.152 1095.72 190.72 1093.99 188.608C1092.2 186.496 1089.64 185.472 1086.31 185.472C1083.24 185.472 1080.81 186.432 1079.02 188.288C1077.23 190.144 1076.14 192.768 1075.75 196.032H1096.75ZM1123.81 216.768C1118.76 216.768 1114.79 215.104 1111.91 211.84C1109.03 208.576 1107.56 204.224 1107.56 198.784C1107.56 193.344 1109.03 188.928 1111.91 185.664C1114.79 182.4 1118.76 180.8 1123.81 180.8C1127.78 180.8 1131.04 181.824 1133.67 183.872C1136.29 185.984 1137.96 188.928 1138.79 192.768H1133.03C1131.75 187.904 1128.61 185.472 1123.62 185.472C1120.16 185.472 1117.6 186.688 1115.88 189.056C1114.15 191.424 1113.25 194.688 1113.25 198.784C1113.25 202.816 1114.15 206.08 1115.88 208.448C1117.6 210.816 1120.16 212.032 1123.62 212.032C1128.61 212.032 1131.75 209.6 1133.03 204.8H1138.79C1137.96 208.64 1136.29 211.584 1133.67 213.632C1131.04 215.744 1127.78 216.768 1123.81 216.768ZM1161.1 211.264V216H1156.62C1153.61 216 1151.43 215.424 1150.02 214.272C1148.55 213.184 1147.85 211.008 1147.85 207.872V186.048H1142.09V181.568H1147.85V173.504H1153.42V181.568H1160.65V186.048H1153.42V206.848C1153.42 208.512 1153.74 209.664 1154.31 210.304C1154.89 210.944 1155.91 211.264 1157.45 211.264H1161.1ZM1166.6 169.664H1173.51V176.448H1166.6V169.664ZM1167.24 181.568H1172.81V216H1167.24V181.568ZM1196.37 216.768C1191.38 216.768 1187.41 215.168 1184.53 211.904C1181.65 208.64 1180.18 204.288 1180.18 198.784C1180.18 193.28 1181.65 188.928 1184.53 185.664C1187.41 182.4 1191.38 180.8 1196.37 180.8C1201.36 180.8 1205.33 182.4 1208.21 185.664C1211.09 188.928 1212.56 193.28 1212.56 198.784C1212.56 204.288 1211.09 208.64 1208.21 211.904C1205.33 215.168 1201.36 216.768 1196.37 216.768ZM1196.37 212.032C1199.64 212.032 1202.26 210.88 1204.12 208.512C1205.97 206.208 1206.87 202.944 1206.87 198.784C1206.87 194.624 1205.97 191.36 1204.12 188.992C1202.26 186.624 1199.64 185.472 1196.37 185.472C1193.11 185.472 1190.55 186.624 1188.69 188.992C1186.84 191.36 1185.88 194.624 1185.88 198.784C1185.88 202.944 1186.84 206.208 1188.69 208.512C1190.55 210.88 1193.11 212.032 1196.37 212.032ZM1235.5 180.8C1239.46 180.8 1242.41 181.952 1244.39 184.256C1246.38 186.624 1247.34 189.76 1247.34 193.664V216H1241.77V195.008C1241.77 188.672 1239.21 185.472 1234.02 185.472C1230.89 185.472 1228.46 186.56 1226.79 188.736C1225.06 190.976 1224.23 193.792 1224.23 197.312V216H1218.66V181.568H1224.23V187.008C1226.47 182.848 1230.25 180.8 1235.5 180.8Z" fill="white"/>
<path d="M705.896 282.208C703.784 282.208 702.44 282.528 701.736 283.168C701.032 283.872 700.648 285.152 700.648 287.072V289.568H707.752V294.112H700.648V324H695.08V294.112H690.088V289.568H695.08V286.88C695.08 283.872 695.784 281.632 697.128 280.032C698.472 278.432 700.84 277.664 704.36 277.664H708.136V282.208H705.896ZM725.998 324.768C721.006 324.768 717.038 323.168 714.158 319.904C711.278 316.64 709.806 312.288 709.806 306.784C709.806 301.28 711.278 296.928 714.158 293.664C717.038 290.4 721.006 288.8 725.998 288.8C730.99 288.8 734.958 290.4 737.838 293.664C740.718 296.928 742.19 301.28 742.19 306.784C742.19 312.288 740.718 316.64 737.838 319.904C734.958 323.168 730.99 324.768 725.998 324.768ZM725.998 320.032C729.262 320.032 731.886 318.88 733.742 316.512C735.598 314.208 736.494 310.944 736.494 306.784C736.494 302.624 735.598 299.36 733.742 296.992C731.886 294.624 729.262 293.472 725.998 293.472C722.734 293.472 720.174 294.624 718.318 296.992C716.462 299.36 715.502 302.624 715.502 306.784C715.502 310.944 716.462 314.208 718.318 316.512C720.174 318.88 722.734 320.032 725.998 320.032ZM763.2 289.184C763.968 289.184 764.672 289.248 765.376 289.376V294.944C764.608 294.816 763.776 294.752 762.944 294.752C761.472 294.752 760.256 294.944 759.168 295.328C758.08 295.776 757.248 296.352 756.608 297.12C755.968 297.952 755.456 298.72 755.072 299.488C754.624 300.32 754.368 301.28 754.24 302.496C754.048 303.712 753.984 304.672 753.92 305.376C753.856 306.08 753.856 307.04 753.856 308.192V324H748.288V289.568H753.792V295.136C755.776 291.168 758.912 289.184 763.2 289.184Z" fill="white"/>
<rect x="810" y="248" width="104" height="104" rx="27.7333" fill="#80BD00"/>
<path d="M859.847 272.524C860.501 272.156 861.24 272 862 272C862.76 272 863.504 272.156 864.153 272.524L884.847 284.396C886.186 285.165 887 286.61 887 288.15V311.85C887 313.39 886.186 314.83 884.847 315.604L864.153 327.433C863.492 327.813 862.766 328 862 328C861.244 328 860.508 327.813 859.847 327.433L852.905 323.373C851.875 322.8 852.39 322.618 852.729 322.501C854.105 322.026 854.381 321.93 855.849 321.104C856.002 321.019 856.218 321.012 856.376 321.104L861.692 324.246C861.886 324.351 862.13 324.351 862.308 324.246L883.002 312.418C883.195 312.309 883.309 312.077 883.309 311.85V288.15C883.309 287.918 883.155 287.7 882.958 287.582L862.308 275.754C862.116 275.643 861.886 275.643 861.692 275.754L841.042 287.582C840.842 287.696 840.691 287.925 840.691 288.15V311.85C840.691 312.077 840.844 312.267 841.042 312.374L846.666 315.648C849.738 317.173 851.631 315.358 851.631 313.553V290.157C851.631 289.827 851.914 289.59 852.246 289.59H854.838C855.165 289.59 855.453 289.827 855.453 290.157V313.553C855.453 317.626 853.234 319.969 849.346 319.969L849.293 319.969C848.122 319.969 847.143 319.969 844.557 318.703L839.153 315.604C837.814 314.836 837 313.39 837 311.85V288.15C837 286.61 837.814 285.162 839.153 284.396L859.847 272.524Z" fill="#010024"/>
<path d="M858.134 295.57C858.134 291.427 861.643 288.936 867.536 288.936C874.158 288.936 877.446 291.239 877.861 296.138C877.877 296.307 877.798 296.448 877.685 296.574C877.571 296.692 877.411 296.792 877.246 296.792H874.566C874.288 296.792 874.051 296.579 873.995 296.312C873.352 293.468 871.782 292.558 867.536 292.558C862.782 292.558 862.264 294.207 862.264 295.439C862.264 296.932 862.875 297.345 869.294 298.189C875.645 299.023 878.696 300.214 878.696 304.649C878.696 309.123 874.919 311.676 868.371 311.676C859.325 311.676 857.431 307.585 857.431 304.125C857.431 303.796 857.715 303.514 858.046 303.514H860.726C861.025 303.514 861.25 303.748 861.297 304.038C861.7 306.741 862.902 308.097 868.371 308.097C872.724 308.097 874.566 307.118 874.566 304.823C874.566 303.5 874.039 302.513 867.272 301.855C861.617 301.299 858.134 300.065 858.134 295.57Z" fill="#010024"/>
<path d="M980.624 277.664V324H973.072L949.008 285.216V324H943.184V277.664H950.8L974.8 316.384V277.664H980.624ZM1004.37 324.768C999.381 324.768 995.413 323.168 992.533 319.904C989.653 316.64 988.181 312.288 988.181 306.784C988.181 301.28 989.653 296.928 992.533 293.664C995.413 290.4 999.381 288.8 1004.37 288.8C1009.36 288.8 1013.33 290.4 1016.21 293.664C1019.09 296.928 1020.56 301.28 1020.56 306.784C1020.56 312.288 1019.09 316.64 1016.21 319.904C1013.33 323.168 1009.36 324.768 1004.37 324.768ZM1004.37 320.032C1007.64 320.032 1010.26 318.88 1012.12 316.512C1013.97 314.208 1014.87 310.944 1014.87 306.784C1014.87 302.624 1013.97 299.36 1012.12 296.992C1010.26 294.624 1007.64 293.472 1004.37 293.472C1001.11 293.472 998.549 294.624 996.693 296.992C994.837 299.36 993.877 302.624 993.877 306.784C993.877 310.944 994.837 314.208 996.693 316.512C998.549 318.88 1001.11 320.032 1004.37 320.032ZM1057.17 277.664V324H1051.61V318.304C1049.05 322.592 1045.27 324.768 1040.28 324.768C1035.93 324.768 1032.41 323.168 1029.72 319.904C1026.97 316.64 1025.62 312.288 1025.62 306.784C1025.62 301.216 1026.97 296.864 1029.72 293.6C1032.41 290.4 1035.93 288.8 1040.28 288.8C1045.27 288.8 1049.05 290.976 1051.61 295.264V277.664H1057.17ZM1041.49 320.032C1044.63 320.032 1047.13 318.816 1049.05 316.32C1050.97 313.888 1051.93 310.688 1051.93 306.784C1051.93 302.88 1050.97 299.68 1049.05 297.184C1047.13 294.688 1044.63 293.472 1041.49 293.472C1038.36 293.472 1035.93 294.688 1034.07 297.184C1032.21 299.68 1031.32 302.88 1031.32 306.784C1031.32 310.688 1032.21 313.888 1034.07 316.32C1035.93 318.816 1038.36 320.032 1041.49 320.032ZM1079.88 288.8C1085.19 288.8 1089.29 290.592 1092.17 294.112C1095.05 297.696 1096.33 302.432 1096.01 308.32H1069.07C1069.32 311.84 1070.41 314.72 1072.33 316.832C1074.25 318.944 1076.81 320.032 1080.01 320.032C1082.51 320.032 1084.68 319.392 1086.47 318.048C1088.27 316.768 1089.42 315.04 1089.99 312.8H1095.69C1094.92 316.64 1093.13 319.584 1090.38 321.632C1087.56 323.744 1084.11 324.768 1080.01 324.768C1074.83 324.768 1070.73 323.104 1067.79 319.84C1064.78 316.576 1063.31 312.224 1063.31 306.784C1063.31 301.344 1064.78 296.992 1067.79 293.728C1070.79 290.464 1074.83 288.8 1079.88 288.8ZM1090.12 304.032C1090.06 301.152 1089.1 298.72 1087.37 296.608C1085.58 294.496 1083.02 293.472 1079.69 293.472C1076.62 293.472 1074.19 294.432 1072.39 296.288C1070.6 298.144 1069.51 300.768 1069.13 304.032H1090.12ZM1101.9 316.704H1109.07V324H1101.9V316.704ZM1115.76 277.664H1122.61V284.448H1115.76V277.664ZM1110.7 332.256H1111.79C1113.52 332.256 1114.67 332 1115.38 331.552C1116.08 331.104 1116.4 329.952 1116.4 328.16V289.568H1121.97V328.864C1121.97 331.744 1121.26 333.792 1119.79 335.008C1118.32 336.224 1116.08 336.8 1113.2 336.8H1110.7V332.256ZM1143.77 324.768C1139.1 324.768 1135.39 323.68 1132.76 321.44C1130.08 319.2 1128.54 316.384 1128.22 312.928H1133.79C1135.07 317.728 1138.4 320.16 1143.84 320.16C1146.65 320.16 1148.76 319.584 1150.11 318.432C1151.45 317.344 1152.16 316 1152.16 314.528C1152.16 313.568 1151.9 312.8 1151.45 312.16C1151 311.52 1150.24 311.008 1149.21 310.56C1148.12 310.112 1147.16 309.792 1146.33 309.536C1145.44 309.344 1144.22 309.088 1142.62 308.768C1141.34 308.512 1140.38 308.32 1139.68 308.128C1138.97 307.936 1138.01 307.68 1136.73 307.296C1135.45 306.976 1134.43 306.528 1133.72 306.08C1133.02 305.632 1132.25 305.056 1131.42 304.352C1130.59 303.648 1129.95 302.816 1129.56 301.856C1129.18 300.896 1128.99 299.808 1128.99 298.592C1128.99 295.584 1130.27 293.152 1132.83 291.424C1135.39 289.696 1138.59 288.8 1142.49 288.8C1146.84 288.8 1150.3 289.824 1152.8 291.872C1155.29 293.984 1156.7 296.416 1157.02 299.296H1151.39C1150.17 295.392 1147.16 293.408 1142.3 293.408C1139.8 293.408 1137.88 293.856 1136.6 294.816C1135.26 295.776 1134.62 296.992 1134.62 298.4C1134.62 299.104 1134.81 299.744 1135.26 300.32C1135.64 300.896 1136.09 301.408 1136.6 301.728C1137.12 302.048 1137.88 302.432 1138.97 302.752C1140 303.136 1140.83 303.392 1141.53 303.52C1142.24 303.712 1143.26 303.904 1144.6 304.224C1146.2 304.544 1147.48 304.864 1148.57 305.12C1149.6 305.376 1150.75 305.76 1152.03 306.272C1153.31 306.848 1154.33 307.424 1155.1 308.064C1155.8 308.704 1156.44 309.536 1157.02 310.496C1157.53 311.52 1157.79 312.672 1157.79 313.952C1157.79 316.96 1156.64 319.456 1154.27 321.568C1151.9 323.68 1148.44 324.768 1143.77 324.768Z" fill="white"/>
<path d="M584.592 293.792L590.016 289.472C591.744 288.096 592.608 286.656 592.608 285.152V284.912C592.608 284.304 592.384 283.792 591.936 283.376C591.52 282.928 590.896 282.704 590.064 282.704C589.232 282.704 588.56 282.944 588.048 283.424C587.568 283.872 587.168 284.512 586.848 285.344L584.304 284.288C584.656 283.2 585.312 282.256 586.272 281.456C587.264 280.624 588.608 280.208 590.304 280.208C592.128 280.208 593.488 280.672 594.384 281.6C595.312 282.496 595.776 283.584 595.776 284.864C595.776 286.208 595.344 287.392 594.48 288.416C593.648 289.44 592.64 290.416 591.456 291.344L587.76 294.176H596.4V296.576H584.592V293.792Z" fill="#6551F3"/>
<path d="M590.064 494.864C588.4 494.864 587.104 494.528 586.176 493.856C585.248 493.152 584.528 492.352 584.016 491.456L586.272 489.872C586.656 490.608 587.12 491.216 587.664 491.696C588.24 492.176 589.04 492.416 590.064 492.416C590.992 492.416 591.712 492.208 592.224 491.792C592.768 491.344 593.04 490.752 593.04 490.016V489.68C593.04 488.944 592.752 488.4 592.176 488.048C591.6 487.664 590.784 487.472 589.728 487.472H588.048V485.072H589.728C590.752 485.072 591.504 484.88 591.984 484.496C592.496 484.112 592.752 483.648 592.752 483.104V482.768C592.752 482.128 592.512 481.616 592.032 481.232C591.552 480.848 590.896 480.656 590.064 480.656C588.56 480.656 587.408 481.312 586.608 482.624L584.592 480.992C585.168 480.16 585.888 479.488 586.752 478.976C587.616 478.464 588.752 478.208 590.16 478.208C591.888 478.208 593.264 478.592 594.288 479.36C595.312 480.096 595.824 481.104 595.824 482.384C595.824 483.44 595.488 484.288 594.816 484.928C594.176 485.536 593.392 485.92 592.464 486.08V486.272C593.488 486.432 594.352 486.832 595.056 487.472C595.76 488.112 596.112 488.992 596.112 490.112C596.112 491.552 595.552 492.704 594.432 493.568C593.344 494.432 591.888 494.864 590.064 494.864Z" fill="#6551F3"/>
<path d="M585.072 186.176H589.584V175.136L585.312 177.296L584.16 175.184L589.344 172.496H592.608V186.176H596.592V188.576H585.072V186.176Z" fill="#6551F3"/>
<path d="M721.256 521.296L734.76 507.856H694.12V475.664H699.432V502.928H734.76L721.256 489.424L724.84 485.84L744.36 505.36L724.84 524.88L721.256 521.296Z" fill="white"/>
<path d="M1855.2 522C1855.01 520.08 1854.88 518.416 1854.82 517.008C1852.13 520.848 1848.16 522.768 1842.91 522.768C1841.44 522.768 1840.03 522.576 1838.69 522.256C1837.34 521.936 1836.06 521.36 1834.85 520.656C1833.63 519.952 1832.61 518.928 1831.9 517.584C1831.14 516.24 1830.75 514.704 1830.75 512.912C1830.75 509.392 1832.22 506.704 1835.1 504.72C1837.98 502.8 1842.34 501.84 1848.16 501.84H1854.82V501.2C1854.82 500.112 1854.82 499.216 1854.75 498.512C1854.69 497.808 1854.5 496.976 1854.18 495.952C1853.86 494.992 1853.47 494.16 1852.9 493.584C1852.32 493.008 1851.49 492.432 1850.4 491.984C1849.31 491.536 1847.97 491.344 1846.37 491.344C1841.06 491.344 1838.05 493.712 1837.22 498.448H1831.65C1832.1 494.864 1833.57 492.048 1836.06 489.936C1838.56 487.824 1842.08 486.8 1846.62 486.8C1855.78 486.8 1860.38 491.408 1860.38 500.56V514.768C1860.38 517.52 1860.51 519.952 1860.77 522H1855.2ZM1844.26 518.224C1847.33 518.224 1849.89 517.264 1851.94 515.408C1853.92 513.552 1854.94 510.48 1854.94 506.064H1848.74C1840.54 506.064 1836.45 508.176 1836.45 512.4C1836.45 514.256 1837.15 515.728 1838.56 516.688C1839.9 517.712 1841.82 518.224 1844.26 518.224ZM1868.29 475.664H1875.2V482.448H1868.29V475.664ZM1868.93 487.568H1874.5V522H1868.93V487.568ZM1882.73 475.664H1888.29V503.44L1903.65 487.568H1910.63L1897.51 501.072L1911.85 522H1905.32L1893.73 505.04L1888.29 510.608V522H1882.73V475.664ZM1916.48 475.664H1923.39V482.448H1916.48V475.664ZM1917.12 487.568H1922.68V522H1917.12V487.568ZM1961.74 475.664V522H1956.17V516.304C1953.61 520.592 1949.83 522.768 1944.84 522.768C1940.49 522.768 1936.97 521.168 1934.28 517.904C1931.53 514.64 1930.18 510.288 1930.18 504.784C1930.18 499.216 1931.53 494.864 1934.28 491.6C1936.97 488.4 1940.49 486.8 1944.84 486.8C1949.83 486.8 1953.61 488.976 1956.17 493.264V475.664H1961.74ZM1946.06 518.032C1949.19 518.032 1951.69 516.816 1953.61 514.32C1955.53 511.888 1956.49 508.688 1956.49 504.784C1956.49 500.88 1955.53 497.68 1953.61 495.184C1951.69 492.688 1949.19 491.472 1946.06 491.472C1942.92 491.472 1940.49 492.688 1938.63 495.184C1936.78 497.68 1935.88 500.88 1935.88 504.784C1935.88 508.688 1936.78 511.888 1938.63 514.32C1940.49 516.816 1942.92 518.032 1946.06 518.032ZM1984.06 522.768C1979.07 522.768 1975.1 521.168 1972.22 517.904C1969.34 514.64 1967.87 510.288 1967.87 504.784C1967.87 499.28 1969.34 494.928 1972.22 491.664C1975.1 488.4 1979.07 486.8 1984.06 486.8C1989.05 486.8 1993.02 488.4 1995.9 491.664C1998.78 494.928 2000.25 499.28 2000.25 504.784C2000.25 510.288 1998.78 514.64 1995.9 517.904C1993.02 521.168 1989.05 522.768 1984.06 522.768ZM1984.06 518.032C1987.32 518.032 1989.95 516.88 1991.8 514.512C1993.66 512.208 1994.56 508.944 1994.56 504.784C1994.56 500.624 1993.66 497.36 1991.8 494.992C1989.95 492.624 1987.32 491.472 1984.06 491.472C1980.8 491.472 1978.24 492.624 1976.38 494.992C1974.52 497.36 1973.56 500.624 1973.56 504.784C1973.56 508.944 1974.52 512.208 1976.38 514.512C1978.24 516.88 1980.8 518.032 1984.06 518.032ZM2005.27 514.704H2012.44V522H2005.27V514.704ZM2049.3 475.664V522H2043.73V516.304C2041.17 520.592 2037.39 522.768 2032.4 522.768C2028.05 522.768 2024.53 521.168 2021.84 517.904C2019.09 514.64 2017.75 510.288 2017.75 504.784C2017.75 499.216 2019.09 494.864 2021.84 491.6C2024.53 488.4 2028.05 486.8 2032.4 486.8C2037.39 486.8 2041.17 488.976 2043.73 493.264V475.664H2049.3ZM2033.62 518.032C2036.75 518.032 2039.25 516.816 2041.17 514.32C2043.09 511.888 2044.05 508.688 2044.05 504.784C2044.05 500.88 2043.09 497.68 2041.17 495.184C2039.25 492.688 2036.75 491.472 2033.62 491.472C2030.48 491.472 2028.05 492.688 2026.19 495.184C2024.34 497.68 2023.44 500.88 2023.44 504.784C2023.44 508.688 2024.34 511.888 2026.19 514.32C2028.05 516.816 2030.48 518.032 2033.62 518.032ZM2072.01 486.8C2077.32 486.8 2081.41 488.592 2084.29 492.112C2087.17 495.696 2088.45 500.432 2088.13 506.32H2061.19C2061.45 509.84 2062.53 512.72 2064.45 514.832C2066.37 516.944 2068.93 518.032 2072.13 518.032C2074.63 518.032 2076.81 517.392 2078.6 516.048C2080.39 514.768 2081.54 513.04 2082.12 510.8H2087.81C2087.05 514.64 2085.25 517.584 2082.5 519.632C2079.69 521.744 2076.23 522.768 2072.13 522.768C2066.95 522.768 2062.85 521.104 2059.91 517.84C2056.9 514.576 2055.43 510.224 2055.43 504.784C2055.43 499.344 2056.9 494.992 2059.91 491.728C2062.92 488.464 2066.95 486.8 2072.01 486.8ZM2082.25 502.032C2082.18 499.152 2081.22 496.72 2079.49 494.608C2077.7 492.496 2075.14 491.472 2071.81 491.472C2068.74 491.472 2066.31 492.432 2064.52 494.288C2062.73 496.144 2061.64 498.768 2061.25 502.032H2082.25ZM2091.02 487.568H2097.1L2106.7 515.152L2116.3 487.568H2122.32L2109.58 522H2103.76L2091.02 487.568Z" fill="white"/>
<path d="M209.32 162H156V180.84H209.32V162Z" fill="#6551F3"/>
<path d="M156 198.51C171.169 184.779 194.151 184.779 209.32 198.51V221.989L209.31 222L182.66 194.951L156.01 222L156 221.989V198.51Z" fill="#6551F3"/>
<path d="M271.907 203.845H270.764C269.684 203.845 268.859 203.654 268.287 203.207C267.716 202.761 267.398 201.868 267.398 200.464V189.044C267.398 185.088 266.192 181.898 263.842 179.41C261.492 176.922 257.619 175.71 252.285 175.71C247.459 175.71 243.712 176.794 241.109 178.9C238.505 181.069 236.918 184.004 236.473 187.768H244.919C245.49 184.004 247.903 182.154 252.031 182.154C254.507 182.154 256.285 182.792 257.238 184.068C258.19 185.344 258.698 187.13 258.698 189.427V190.384H251.84C246.443 190.384 242.315 191.341 239.521 193.319C236.727 195.296 235.33 197.976 235.33 201.357C235.33 204.802 236.6 207.354 239.14 209.013C241.68 210.736 244.665 211.565 248.157 211.565C253.555 211.565 257.555 209.651 260.032 205.759C260.603 207.61 261.556 208.949 262.889 209.651C264.223 210.417 266.192 210.8 268.922 210.8H271.907V203.845ZM250.126 205.121C248.221 205.121 246.76 204.675 245.744 203.845C244.665 203.016 244.157 201.931 244.157 200.592C244.157 197.465 247.078 195.871 252.983 195.871H258.825C258.825 199.06 258 201.421 256.285 202.888C254.571 204.356 252.539 205.121 250.126 205.121Z" fill="white"/>
<path d="M277.362 164.609V172.839H286.061V164.609H277.362ZM277.362 176.475V210.8H286.061V176.475H277.362Z" fill="white"/>
<path d="M293.472 164.609V210.8H302.171V200.911L306.616 196.317L316.459 210.8H326.746L312.522 190.001L325.476 176.475H314.745L302.171 189.746V164.609H293.472Z" fill="white"/>
<path d="M330.879 164.609V172.839H339.578V164.609H330.879ZM330.879 176.475V210.8H339.578V176.475H330.879Z" fill="white"/>
<path d="M380.254 164.609H371.555V181.516C369.205 177.624 365.586 175.71 360.823 175.71C356.314 175.71 352.631 177.305 349.901 180.559C347.17 183.812 345.773 188.215 345.773 193.638C345.773 199.06 347.17 203.399 349.901 206.653C352.631 209.906 356.314 211.565 360.823 211.565C365.586 211.565 369.205 209.651 371.555 205.759V210.8H380.254V164.609ZM363.173 204.611C360.315 204.611 358.219 203.59 356.759 201.485C355.298 199.443 354.6 196.828 354.6 193.638C354.6 190.448 355.298 187.832 356.759 185.726C358.219 183.621 360.315 182.6 363.173 182.6C365.967 182.6 368.126 183.621 369.713 185.599C371.237 187.64 371.999 190.32 371.999 193.638C371.999 196.955 371.237 199.635 369.713 201.612C368.126 203.59 365.967 204.611 363.173 204.611Z" fill="white"/>
<path d="M402.791 211.565C408.125 211.565 412.316 209.97 415.428 206.716C418.476 203.463 420 199.124 420 193.638C420 188.151 418.476 183.812 415.428 180.559C412.316 177.305 408.125 175.71 402.791 175.71C397.394 175.71 393.203 177.305 390.155 180.559C387.106 183.812 385.582 188.151 385.582 193.638C385.582 199.124 387.106 203.463 390.155 206.716C393.203 209.97 397.394 211.565 402.791 211.565ZM402.791 204.611C400.061 204.611 398.029 203.654 396.568 201.74C395.108 199.89 394.409 197.146 394.409 193.638C394.409 190.129 395.108 187.385 396.568 185.471C398.029 183.557 400.061 182.6 402.791 182.6C405.522 182.6 407.554 183.557 409.014 185.471C410.475 187.385 411.173 190.129 411.173 193.638C411.173 197.146 410.475 199.89 409.014 201.74C407.554 203.654 405.522 204.611 402.791 204.611Z" fill="white"/>
</svg>
