<svg width="2280" height="690" viewBox="0 0 2280 690" fill="none" xmlns="http://www.w3.org/2000/svg">
<rect width="2280" height="690" fill="#181435"/>
<g clip-path="url(#clip0_11901_105593)">
<rect x="32.5" y="32.5" width="2215" height="625" rx="31.5" fill="#141031" stroke="#3D3192"/>
<g opacity="0.4" filter="url(#filter0_f_11901_105593)">
<ellipse cx="1140" cy="345" rx="506" ry="262" fill="#6551F3"/>
</g>
<circle cx="1139.52" cy="344.516" r="119.145" fill="white" fill-opacity="0.01" stroke="#A397F8" stroke-width="0.614783"/>
<circle cx="1139.51" cy="344.508" r="238.905" fill="white" fill-opacity="0.01"/>
<circle cx="1139.51" cy="344.508" r="238.597" stroke="#A397F8" stroke-opacity="0.9" stroke-width="0.614783"/>
<circle cx="1139.54" cy="344.539" r="358.357" fill="white" fill-opacity="0.01"/>
<circle cx="1139.54" cy="344.539" r="358.05" stroke="#A397F8" stroke-opacity="0.8" stroke-width="0.614783"/>
<circle cx="1139.53" cy="344.531" r="477.81" fill="white" fill-opacity="0.01"/>
<circle cx="1139.53" cy="344.531" r="477.502" stroke="#A397F8" stroke-opacity="0.7" stroke-width="0.614783"/>
<circle cx="1139.52" cy="344.524" r="597.262" fill="white" fill-opacity="0.01"/>
<circle cx="1139.52" cy="344.524" r="596.954" stroke="#A397F8" stroke-opacity="0.6" stroke-width="0.614783"/>
<circle cx="1139.52" cy="344.516" r="716.714" fill="white" fill-opacity="0.01"/>
<circle cx="1139.52" cy="344.516" r="716.407" stroke="#A397F8" stroke-opacity="0.5" stroke-width="0.614783"/>
<circle cx="1139.51" cy="344.508" r="836.167" fill="white" fill-opacity="0.01"/>
<circle cx="1139.51" cy="344.508" r="835.859" stroke="#A397F8" stroke-opacity="0.4" stroke-width="0.614783"/>
<circle cx="1139.54" cy="344.539" r="955.619" fill="white" fill-opacity="0.01"/>
<circle cx="1139.54" cy="344.539" r="955.312" stroke="#A397F8" stroke-opacity="0.3" stroke-width="0.614783"/>
<circle cx="1139.53" cy="344.531" r="1075.07" fill="white" fill-opacity="0.01"/>
<circle cx="1139.53" cy="344.531" r="1074.76" stroke="#A397F8" stroke-opacity="0.2" stroke-width="0.614783"/>
<circle cx="1139.52" cy="344.524" r="1194.52" fill="white" fill-opacity="0.01"/>
<circle cx="1139.52" cy="344.524" r="1194.22" stroke="#A397F8" stroke-opacity="0.1" stroke-width="0.614783"/>
<g clip-path="url(#clip1_11901_105593)">
<mask id="mask0_11901_105593" style="mask-type:luminance" maskUnits="userSpaceOnUse" x="189" y="139" width="265" height="91">
<path d="M453.983 139.26H189V229.118H453.983V139.26Z" fill="white"/>
</mask>
<g mask="url(#mask0_11901_105593)">
<path d="M309.363 227.729C302.623 227.729 297.518 226.335 294.201 223.588C290.8 220.776 289.077 216.592 289.077 211.154V172.032C289.077 165.921 290.805 161.414 294.21 158.634C297.578 155.887 302.984 154.548 310.734 154.548H350.315C357.056 154.548 362.161 155.943 365.482 158.69C368.882 161.502 370.606 165.685 370.606 171.124V200.073H310.762V206.845H371.069L365.014 227.729H309.372H309.363ZM348.921 182.205V175.432H310.753V182.205H348.921Z" fill="#9F93F8"/>
<path d="M350.312 155.938C356.755 155.938 361.509 157.207 364.589 159.759C367.67 162.312 369.208 166.097 369.208 171.123V198.682H309.364V208.235H369.208L363.959 226.339H309.364C302.925 226.339 298.167 225.069 295.087 222.517C292.006 219.964 290.468 216.18 290.468 211.153V172.031C290.468 166.333 292.006 162.224 295.087 159.713C298.167 157.198 303.379 155.942 310.731 155.942H350.312M309.364 183.599H350.312V174.046H309.364V183.599ZM350.312 153.163H310.731C302.647 153.163 296.958 154.599 293.331 157.559C289.588 160.612 287.688 165.481 287.688 172.031V211.153C287.688 217.027 289.583 221.572 293.317 224.662C296.944 227.664 302.193 229.123 309.369 229.123H366.053L366.637 227.117L371.885 209.013L372.914 205.46H312.148V201.467H371.992V171.128C371.992 165.254 370.097 160.709 366.363 157.624C362.736 154.622 357.487 153.163 350.312 153.163ZM312.144 176.826H347.532V180.819H312.144V176.826Z" fill="#9F93F8"/>
<path d="M424.122 227.729L424.224 226.242C424.252 225.844 426.883 188.033 427.801 175.358C423.812 175.358 420.852 175.376 417.984 175.395C415.061 175.413 412.045 175.427 407.936 175.432L404.05 227.729H379.363L383.249 175.432H371.033L377.088 154.548H432.308C439.039 154.548 444.144 155.943 447.471 158.69C452.251 162.632 452.71 168.511 452.571 173.194C452.529 174.561 452.441 175.895 452.358 177.021L451.39 190.645C450.723 200.137 450.06 209.63 449.398 219.122L449.287 220.688C449.282 220.752 449.268 221.016 449.24 221.401C449.194 222.179 449.115 223.439 449.046 224.505C449.009 225.042 448.976 225.533 448.948 225.885C448.902 226.483 448.8 227.729 447.503 227.729H424.113H424.122Z" fill="#9F93F8"/>
<path d="M432.308 155.939C438.752 155.939 443.505 157.217 446.585 159.761C450.731 163.179 451.324 168.229 451.181 173.153C451.144 174.423 451.06 175.697 450.972 176.92C450.648 181.46 450.328 186.009 450.004 190.549C449.3 200.564 448.6 210.575 447.906 220.591C447.882 220.892 447.567 226.345 447.507 226.345H425.609C425.609 226.345 428.49 184.939 429.292 173.973C419.744 173.973 416.196 174.047 406.643 174.047L402.757 226.345H380.858L384.745 174.047H372.881L378.13 155.943H432.303M432.303 153.164H376.041L375.457 155.17L370.208 173.274L369.18 176.827H381.748L378.083 226.141L377.861 229.124H405.332L405.522 226.548L409.214 176.822C412.684 176.818 415.366 176.804 417.979 176.79C420.476 176.776 423.043 176.762 426.295 176.758C425.299 190.664 422.853 225.77 422.83 226.155L422.621 229.129H447.498C448.702 229.129 450.092 228.304 450.287 226.493C450.301 226.377 450.315 226.21 450.333 226.002C450.361 225.645 450.398 225.149 450.43 224.603C450.5 223.537 450.579 222.277 450.625 221.494C450.648 221.124 450.662 220.86 450.667 220.79L450.778 219.187C451.44 209.704 452.098 200.221 452.765 190.739L453.224 184.276L453.733 177.11C453.812 176.049 453.909 174.645 453.951 173.232C454.095 168.234 453.59 161.938 448.346 157.616C444.76 154.66 439.363 153.159 432.298 153.159L432.303 153.164Z" fill="#9F93F8"/>
<path d="M233.787 227.729V218.005L218.467 227.729H204.282V206.845H211.884L260.661 175.993V175.432H208.489V154.548H263.111C268.93 154.548 273.613 155.883 277.027 158.505C280.557 161.219 282.346 165.296 282.346 170.619V187.171L250.566 207.346H285.811V227.724H233.792L233.787 227.729Z" fill="#9F93F8"/>
<path d="M263.106 155.938C268.633 155.938 272.992 157.161 276.179 159.607C279.367 162.058 280.956 165.727 280.956 170.619V186.406L245.785 208.735H284.421V226.334H235.181V215.471L218.068 226.334H205.681V208.23H212.296L262.064 176.752V174.037H209.878V155.933H263.111M263.111 153.154H207.098V176.817H256.76L211.49 205.451H202.901V229.114H218.879L219.56 228.683L232.406 220.53V229.114H287.205V205.956H255.351L282.447 188.755L283.735 187.935V170.619C283.735 164.837 281.762 160.39 277.87 157.402C274.206 154.585 269.235 153.154 263.106 153.154H263.111Z" fill="#9F93F8"/>
<path d="M304.732 223.097C297.992 223.097 292.887 221.702 289.57 218.955C286.17 216.143 284.446 211.96 284.446 206.521V167.399C284.446 161.289 286.174 156.781 289.579 154.002C292.947 151.255 298.353 149.916 306.104 149.916H345.684C352.425 149.916 357.53 151.31 360.851 154.058C364.252 156.87 365.975 161.053 365.975 166.491V195.44H306.131V202.213H366.438L360.383 223.097H304.742H304.732ZM344.29 177.572V170.8H306.122V177.572H344.29Z" fill="#6551F3"/>
<path d="M345.679 151.306C352.123 151.306 356.876 152.576 359.956 155.128C363.037 157.681 364.575 161.466 364.575 166.492V194.051H304.731V203.604H364.575L359.326 221.708H304.731C298.292 221.708 293.535 220.438 290.454 217.886C287.373 215.333 285.835 211.548 285.835 206.522V167.4C285.835 161.702 287.373 157.593 290.454 155.082C293.535 152.566 298.746 151.311 306.098 151.311H345.679M304.731 178.967H345.679V169.415H304.731V178.967ZM345.679 148.531H306.098C298.014 148.531 292.325 149.968 288.698 152.928C284.955 155.981 283.056 160.849 283.056 167.4V206.522C283.056 212.396 284.95 216.941 288.684 220.031C292.312 223.033 297.56 224.492 304.736 224.492H361.42L362.004 222.486L367.253 204.382L368.281 200.829H307.516V196.835H367.359V166.492C367.359 160.618 365.464 156.073 361.731 152.988C358.103 149.986 352.855 148.527 345.679 148.527V148.531ZM307.511 172.195H342.899V176.188H307.511V172.195Z" fill="#6551F3"/>
<path d="M419.489 223.097L419.591 221.61C419.618 221.211 422.25 183.4 423.167 170.726C419.178 170.726 416.218 170.744 413.351 170.763C410.427 170.781 407.412 170.795 403.302 170.8L399.416 223.097H374.729L378.616 170.8H366.399L372.454 149.916H427.674C434.406 149.916 439.511 151.31 442.837 154.058C447.618 158 448.076 163.879 447.937 168.562C447.896 169.929 447.808 171.263 447.724 172.389L446.756 186.013C446.089 195.505 445.426 204.997 444.764 214.489L444.653 216.055C444.648 216.12 444.634 216.384 444.606 216.769C444.56 217.547 444.481 218.807 444.412 219.872C444.375 220.41 444.342 220.901 444.315 221.253C444.268 221.851 444.166 223.097 442.869 223.097H419.479H419.489Z" fill="#6551F3"/>
<path d="M427.676 151.306C434.12 151.306 438.873 152.585 441.953 155.128C446.1 158.547 446.693 163.597 446.549 168.521C446.512 169.79 446.429 171.064 446.341 172.287C446.016 176.827 445.697 181.376 445.372 185.916C444.668 195.932 443.969 205.943 443.274 215.959C443.251 216.26 442.936 221.712 442.875 221.712H420.977C420.977 221.712 423.859 180.306 424.66 169.341C415.112 169.341 411.564 169.415 402.011 169.415L398.125 221.712H376.227L380.113 169.415H368.249L373.498 151.311H427.671M427.671 148.531H371.409L370.825 150.537L365.576 168.641L364.548 172.195H377.116L373.452 221.508L373.229 224.492H400.7L400.89 221.916L404.583 172.19C408.052 172.185 410.735 172.172 413.347 172.158C415.844 172.144 418.411 172.13 421.663 172.125C420.667 186.032 418.221 221.138 418.198 221.522L417.989 224.496H442.866C444.071 224.496 445.46 223.672 445.655 221.86C445.669 221.745 445.683 221.578 445.701 221.369C445.729 221.013 445.766 220.517 445.799 219.97C445.868 218.905 445.947 217.645 445.993 216.862C446.016 216.491 446.03 216.227 446.035 216.158L446.146 214.555C446.808 205.072 447.466 195.589 448.133 186.106L448.592 179.644L449.102 172.477C449.18 171.416 449.278 170.013 449.319 168.6C449.463 163.601 448.958 157.306 443.714 152.983C440.128 150.028 434.731 148.527 427.667 148.527L427.671 148.531Z" fill="#6551F3"/>
<path d="M229.155 223.097V213.373L213.835 223.097H199.65V202.213H207.252L256.029 171.36V170.8H203.857V149.916H258.479C264.298 149.916 268.981 151.25 272.396 153.872C275.926 156.587 277.714 160.664 277.714 165.986V182.539L245.934 202.713H281.179V223.092H229.16L229.155 223.097Z" fill="#6551F3"/>
<path d="M258.475 151.306C264.001 151.306 268.36 152.529 271.548 154.975C274.735 157.426 276.324 161.095 276.324 165.987V181.775L241.153 204.104H279.789V221.703H230.549V210.84L213.437 221.703H201.049V203.599H207.664L257.432 172.121V169.406H205.246V151.306H258.479M258.479 148.527H202.467V172.19H252.128L206.858 200.824H198.27V224.487H214.247L214.928 224.056L227.774 215.903V224.487H282.573V201.329H250.72L277.816 184.128L279.103 183.308V165.992C279.103 160.21 277.13 155.763 273.239 152.775C269.574 149.958 264.603 148.527 258.475 148.527H258.479Z" fill="#6551F3"/>
<path d="M368.275 200.824L363.642 196.192L362.299 200.824H368.275Z" fill="#6551F3"/>
<path d="M273.302 192.063L277.935 196.696L272.77 196.737L273.302 192.063Z" fill="#1D1D1B"/>
<path d="M300.099 218.464C293.358 218.464 288.253 217.07 284.936 214.323C281.536 211.511 279.812 207.328 279.812 201.889V162.767C279.812 156.657 281.54 152.149 284.945 149.37C288.313 146.623 293.719 145.284 301.47 145.284H341.05C347.791 145.284 352.896 146.678 356.218 149.425C359.618 152.237 361.341 156.42 361.341 161.859V190.808H301.498V197.581H361.804L355.75 218.464H300.108H300.099ZM339.656 172.94V166.167H301.488V172.94H339.656Z" fill="#1D1D1B"/>
<path d="M341.046 146.674C347.49 146.674 352.243 147.943 355.324 150.495C358.404 153.048 359.942 156.833 359.942 161.859V189.418H300.099V198.971H359.942L354.694 217.075H300.099C293.659 217.075 288.902 215.805 285.821 213.253C282.74 210.7 281.202 206.916 281.202 201.889V162.767C281.202 157.069 282.74 152.96 285.821 150.449C288.902 147.934 294.113 146.678 301.465 146.678H341.046M300.099 174.335H341.046V164.782H300.099V174.335ZM341.046 143.894H301.465C293.381 143.894 287.693 145.33 284.065 148.29C280.322 151.343 278.423 156.212 278.423 162.763V201.885C278.423 207.759 280.318 212.303 284.051 215.393C287.679 218.395 292.927 219.854 300.103 219.854H356.787L357.371 217.848L362.62 199.744L363.648 196.191H302.883V192.198H362.726V161.859C362.726 155.985 360.832 151.441 357.098 148.355C353.471 145.353 348.222 143.894 341.046 143.894ZM302.878 167.557H338.266V171.55H302.878V167.557Z" fill="#1D1D1B"/>
<path d="M414.858 218.464L414.96 216.977C414.988 216.579 417.619 178.768 418.536 166.093C414.547 166.093 411.587 166.112 408.72 166.13C405.797 166.149 402.781 166.163 398.672 166.167L394.785 218.464H370.098L373.985 166.167H361.769L367.823 145.284H423.044C429.775 145.284 434.88 146.678 438.206 149.425C442.987 153.368 443.445 159.246 443.306 163.93C443.265 165.296 443.177 166.631 443.093 167.756L442.125 181.381C441.458 190.873 440.796 200.365 440.133 209.857L440.022 211.423C440.017 211.488 440.003 211.752 439.976 212.136C439.929 212.915 439.851 214.175 439.781 215.24C439.744 215.778 439.712 216.269 439.684 216.621C439.637 217.218 439.536 218.464 438.238 218.464H414.849H414.858Z" fill="#1D1D1B"/>
<path d="M423.042 146.674C429.486 146.674 434.239 147.952 437.32 150.495C441.466 153.914 442.059 158.964 441.915 163.888C441.878 165.158 441.795 166.432 441.707 167.655C441.382 172.194 441.063 176.744 440.739 181.284C440.034 191.299 439.335 201.31 438.64 211.326C438.617 211.627 438.302 217.079 438.242 217.079H416.343C416.343 217.079 419.225 175.673 420.026 164.708C410.479 164.708 406.93 164.782 397.378 164.782L393.491 217.079H371.593L375.479 164.782H363.615L368.864 146.678H423.037M423.037 143.899H366.775L366.191 145.905L360.942 164.009L359.914 167.562H372.482L368.818 216.876L368.595 219.859H396.067L396.257 217.283L399.949 167.557C403.419 167.553 406.101 167.539 408.714 167.525C411.211 167.511 413.777 167.497 417.029 167.492C416.033 181.399 413.587 216.505 413.564 216.889L413.355 219.864H438.232C439.437 219.864 440.827 219.039 441.021 217.228C441.035 217.112 441.049 216.945 441.067 216.737C441.095 216.38 441.132 215.884 441.165 215.338C441.234 214.272 441.313 213.012 441.359 212.229C441.382 211.859 441.396 211.594 441.401 211.525L441.512 209.922C442.175 200.439 442.832 190.956 443.5 181.473L443.958 175.011L444.468 167.844C444.547 166.784 444.644 165.38 444.686 163.967C444.829 158.968 444.324 152.673 439.08 148.351C435.494 145.395 430.098 143.894 423.033 143.894L423.037 143.899Z" fill="#1D1D1B"/>
<path d="M224.523 218.464V208.741L209.203 218.464H195.022V197.581H202.625L251.401 166.728V166.167H199.224V145.284H253.847C259.665 145.284 264.349 146.618 267.763 149.24C271.293 151.955 273.081 156.031 273.081 161.354V177.906L241.302 198.081H276.546V218.46H224.527L224.523 218.464Z" fill="#1D1D1B"/>
<path d="M253.843 146.674C259.37 146.674 263.729 147.897 266.916 150.343C270.104 152.793 271.693 156.462 271.693 161.354V177.142L236.522 199.471H275.158V217.07H225.918V206.207L208.805 217.07H196.418V198.966H203.033L252.801 167.488V164.773H200.615V146.674H253.848M253.848 143.894H197.836V167.557H247.497L202.223 196.191H193.634V219.854H209.612L210.293 219.423L223.139 211.27V219.854H277.937V196.696H246.084L273.18 179.495L274.468 178.675V161.359C274.468 155.577 272.494 151.13 268.603 148.142C264.938 145.326 259.968 143.894 253.839 143.894H253.848Z" fill="#1D1D1B"/>
<path d="M295.467 213.832C288.726 213.832 283.621 212.437 280.304 209.69C276.904 206.878 275.181 202.695 275.181 197.256V158.134C275.181 152.024 276.909 147.516 280.314 144.737C283.681 141.99 289.088 140.651 296.838 140.651H336.419C343.159 140.651 348.264 142.045 351.586 144.792C354.986 147.604 356.709 151.788 356.709 157.226V186.175H296.866V192.948H357.173L351.118 213.832H295.476H295.467ZM335.024 168.307V161.535H296.856V168.307H335.024Z" fill="white"/>
<path d="M336.413 142.04C342.857 142.04 347.61 143.309 350.69 145.862C353.771 148.414 355.309 152.199 355.309 157.225V184.785H295.466V194.337H355.309L350.06 212.441H295.466C289.026 212.441 284.269 211.172 281.188 208.619C278.107 206.067 276.569 202.282 276.569 197.255V158.133C276.569 152.435 278.107 148.326 281.188 145.815C284.269 143.3 289.48 142.044 296.832 142.044H336.413M295.466 169.701H336.413V160.149H295.466V169.701ZM336.413 139.26H296.832C288.748 139.26 283.055 140.701 279.428 143.657C275.685 146.709 273.785 151.578 273.785 158.129V197.251C273.785 203.125 275.68 207.669 279.414 210.759C283.041 213.761 288.29 215.221 295.466 215.221H352.15L352.733 213.215L357.982 195.111L359.011 191.557H298.245V187.564H358.089V157.225C358.089 151.351 356.194 146.807 352.46 143.721C348.837 140.72 343.584 139.26 336.413 139.26ZM298.245 162.923H333.633V166.917H298.245V162.923Z" fill="#1D1D1B"/>
<path d="M410.223 213.832L410.325 212.345C410.353 211.946 412.984 174.135 413.901 161.46C409.913 161.46 406.952 161.479 404.085 161.497C401.162 161.516 398.146 161.53 394.037 161.535L390.15 213.832H365.463L369.349 161.535H357.134L363.189 140.651H418.408C425.139 140.651 430.245 142.045 433.571 144.792C438.352 148.735 438.811 154.613 438.672 159.297C438.63 160.664 438.542 161.998 438.458 163.123L437.49 176.748C436.823 186.24 436.16 195.732 435.498 205.224L435.387 206.79C435.382 206.855 435.369 207.119 435.341 207.504C435.295 208.282 435.216 209.542 435.146 210.607C435.109 211.145 435.077 211.636 435.049 211.988C435.002 212.585 434.901 213.832 433.604 213.832H410.213H410.223Z" fill="white"/>
<path d="M418.41 142.04C424.853 142.04 429.606 143.318 432.687 145.862C436.833 149.281 437.426 154.33 437.283 159.254C437.246 160.524 437.162 161.798 437.074 163.021C436.75 167.561 436.43 172.11 436.106 176.65C435.402 186.665 434.702 196.676 434.007 206.692C433.984 206.993 433.669 212.446 433.609 212.446H411.711C411.711 212.446 414.592 171.04 415.394 160.074C405.846 160.074 402.297 160.149 392.745 160.149L388.858 212.446H366.96L370.847 160.149H358.983L364.232 142.044H418.405M418.41 139.26H362.147L361.563 141.266L356.315 159.37L355.286 162.923H367.854L364.19 212.237L363.968 215.221H391.439L391.629 212.645L395.321 162.919C398.791 162.914 401.473 162.9 404.086 162.886C406.583 162.872 409.149 162.859 412.401 162.854C411.405 176.761 408.959 211.867 408.936 212.251L408.727 215.225H433.604C434.809 215.225 436.199 214.401 436.393 212.589C436.407 212.473 436.421 212.307 436.44 212.098C436.467 211.741 436.504 211.246 436.537 210.699C436.606 209.634 436.685 208.374 436.731 207.591C436.755 207.22 436.768 206.956 436.773 206.887L436.884 205.284C437.547 195.801 438.205 186.318 438.872 176.835L439.33 170.373L439.84 163.206C439.919 162.145 440.016 160.741 440.058 159.329C440.201 154.33 439.696 148.034 434.452 143.712C430.876 140.761 425.474 139.26 418.41 139.26Z" fill="#1D1D1B"/>
<path d="M219.89 213.832V204.108L204.57 213.832H190.39V192.948H197.992L246.768 162.095V161.535H194.591V140.651H249.214C255.033 140.651 259.716 141.985 263.13 144.607C266.66 147.322 268.448 151.398 268.448 156.721V173.273L236.669 193.448H271.914V213.827H219.894L219.89 213.832Z" fill="white"/>
<path d="M249.21 142.04C254.736 142.04 259.095 143.263 262.283 145.709C265.47 148.159 267.059 151.828 267.059 156.72V172.508L231.888 194.837H270.524V212.436H221.284V201.573L204.172 212.436H191.78V194.332H198.395L248.158 162.859V160.144H195.981V142.04H249.214M249.214 139.26H193.202V162.923H242.863L197.589 191.557H189V215.221H204.978L205.659 214.79L218.505 206.636V215.221H273.304V192.062H241.45L268.546 174.862L269.834 174.042V156.725C269.834 150.944 267.86 146.496 263.969 143.508C260.305 140.692 255.334 139.26 249.205 139.26H249.214Z" fill="#1D1D1B"/>
<path d="M189 215.222L193.633 219.854L195.022 218.465L193.633 215.222L190.39 213.832L189 215.222Z" fill="#1D1D1B"/>
<path d="M218.506 215.222L223.138 219.854L224.528 218.465L223.138 215.222L219.896 213.832L218.506 215.222Z" fill="#1D1D1B"/>
<path d="M193.634 219.854L198.266 224.487L199.656 223.097L198.266 219.854H193.634Z" fill="#6551F3"/>
<path d="M223.139 219.854L227.771 224.487L229.161 223.097L227.771 219.854H223.139Z" fill="#6551F3"/>
<path d="M198.266 224.487L202.898 229.119L205.015 226.947L202.898 224.487H198.266Z" fill="#9F93F8"/>
<path d="M227.775 224.487L232.408 229.119L234.525 226.947L232.408 224.487H227.775Z" fill="#9F93F8"/>
<path d="M363.971 215.222L368.603 219.854L370.104 219.284L369.933 215.222H363.971Z" fill="#1D1D1B"/>
<path d="M368.605 219.854L373.238 224.487H375.272V219.854H368.605Z" fill="#6551F3"/>
<path d="M373.236 224.487L377.869 229.119H379.787L380.023 224.487H373.236Z" fill="#9F93F8"/>
<path d="M408.735 215.222L413.368 219.854H415.054L414.693 215.222H408.735Z" fill="#1D1D1B"/>
<path d="M413.369 219.854L418.002 224.487H420.98V221.707V219.854H413.369Z" fill="#6551F3"/>
<path d="M418.001 224.487H424.033L422.634 229.119L418.001 224.487Z" fill="#9F93F8"/>
<path d="M359.012 191.559L363.645 196.192H357.164L359.012 191.559Z" fill="#1D1D1B"/>
<path d="M193.202 162.924L197.835 167.556H199.655L199.396 162.924H193.202Z" fill="#1D1D1B"/>
<path d="M197.835 167.557L202.468 172.189H203.76L204.478 167.557H197.835Z" fill="#6551F3"/>
<path d="M202.467 172.189L207.099 176.822H209.147V172.189H202.467Z" fill="#9F93F8"/>
</g>
</g>
<path d="M342.443 244.542C346.454 244.542 349.278 247.662 349.278 252.893C349.278 258.093 346.454 261.243 342.443 261.243C339.946 261.243 338.252 259.995 337.212 258.242V260.887H334.627V239.371H337.212V247.543C338.252 245.79 339.946 244.542 342.443 244.542ZM341.908 259.044C344.85 259.044 346.633 256.488 346.633 252.893C346.633 249.297 344.85 246.711 341.908 246.711C338.966 246.711 337.064 249.267 337.064 252.893C337.064 256.518 338.966 259.044 341.908 259.044ZM351.655 264.661H352.874C354.33 264.661 355.192 264.512 355.756 262.997L356.559 260.887L350.467 244.899H353.23L357.837 257.558L362.443 244.899H365.207L358.074 263.561C357.361 265.463 356.291 266.83 353.468 266.83H351.655V264.661ZM385.083 260.887C384.994 260.084 384.934 259.579 384.905 258.569C383.746 260.233 381.873 261.243 379.377 261.243C376.851 261.243 373.731 260.173 373.731 256.667C373.731 253.546 376.197 251.526 381.814 251.526H384.905V251.228C384.905 249.297 384.786 246.652 380.982 246.652C378.04 246.652 377.029 248.257 376.732 249.951H374.147C374.533 246.801 376.673 244.542 381.101 244.542C386.272 244.542 387.49 247.633 387.49 250.931V257.529C387.49 258.658 387.549 259.936 387.668 260.887H385.083ZM380.001 259.133C382.468 259.133 384.964 257.945 384.964 253.487H382.081C378.159 253.487 376.376 254.468 376.376 256.429C376.376 258.182 377.772 259.133 380.001 259.133ZM391.16 239.371H394.37V242.521H391.16V239.371ZM391.457 244.899H394.043V260.887H391.457V244.899ZM397.864 239.371H400.45V252.269L407.582 244.899H410.821L404.729 251.169L411.386 260.887H408.354L402.976 253.012L400.45 255.597V260.887H397.864V239.371ZM413.536 239.371H416.745V242.521H413.536V239.371ZM413.833 244.899H416.418V260.887H413.833V244.899ZM434.552 239.371V260.887H431.966V258.242C430.926 259.995 429.232 261.243 426.706 261.243C422.724 261.243 419.901 258.093 419.901 252.893C419.901 247.662 422.724 244.542 426.706 244.542C429.232 244.542 430.926 245.79 431.966 247.543V239.371H434.552ZM427.271 259.044C430.183 259.044 432.115 256.518 432.115 252.893C432.115 249.267 430.183 246.711 427.271 246.711C424.329 246.711 422.546 249.297 422.546 252.893C422.546 256.488 424.329 259.044 427.271 259.044ZM444.918 261.243C440.252 261.243 437.399 258.004 437.399 252.893C437.399 247.781 440.252 244.542 444.918 244.542C449.554 244.542 452.436 247.781 452.436 252.893C452.436 258.004 449.554 261.243 444.918 261.243ZM444.918 259.044C447.979 259.044 449.791 256.756 449.791 252.893C449.791 249.029 447.979 246.711 444.918 246.711C441.857 246.711 440.044 249.029 440.044 252.893C440.044 256.756 441.857 259.044 444.918 259.044Z" fill="white" fill-opacity="0.7"/>
</g>
<path d="M727.272 175.912H712.04V217H706.216V175.912H690.92V170.664H727.272V175.912ZM750.37 181.8C758.626 181.8 762.21 187.176 762.21 194.664V217H756.642V196.008C756.642 190.568 754.786 186.472 748.898 186.472C742.306 186.472 739.106 191.592 739.106 198.312V217H733.538V170.664H739.106V188.008C741.666 183.336 745.954 181.8 750.37 181.8ZM784.319 181.8C795.007 181.8 801.023 189.736 800.447 201.32H773.503C774.015 208.232 777.855 213.032 784.447 213.032C789.567 213.032 793.343 210.152 794.431 205.8H800.127C798.591 213.608 792.447 217.768 784.447 217.768C773.951 217.768 767.743 210.536 767.743 199.784C767.743 189.032 774.143 181.8 784.319 181.8ZM794.559 197.032C794.431 191.848 791.231 186.472 784.127 186.472C777.855 186.472 774.335 190.696 773.567 197.032H794.559ZM822.413 170.664H829.325V177.448H822.413V170.664ZM823.053 182.568H828.621V217H823.053V182.568ZM853.808 181.8C862.064 181.8 865.648 187.176 865.648 194.664V217H860.08V196.008C860.08 190.568 858.224 186.472 852.336 186.472C845.744 186.472 842.544 191.592 842.544 198.312V217H836.976V182.568H842.544V188.008C845.104 183.336 849.392 181.8 853.808 181.8ZM872.959 196.584H892.799V201.576H872.959V196.584ZM923.638 217C923.446 215.272 923.318 214.184 923.254 212.008C920.758 215.592 916.726 217.768 911.35 217.768C905.91 217.768 899.19 215.464 899.19 207.912C899.19 201.192 904.502 196.84 916.598 196.84H923.254V196.2C923.254 192.04 922.998 186.344 914.806 186.344C908.47 186.344 906.294 189.8 905.654 193.448H900.086C900.918 186.664 905.526 181.8 915.062 181.8C926.198 181.8 928.822 188.456 928.822 195.56V209.768C928.822 212.2 928.95 214.952 929.206 217H923.638ZM912.694 213.224C918.006 213.224 923.382 210.664 923.382 201.064H917.174C908.726 201.064 904.885 203.176 904.885 207.4C904.885 211.176 907.894 213.224 912.694 213.224ZM953.933 181.8C962.573 181.8 968.653 188.52 968.653 199.784C968.653 210.984 962.573 217.768 953.933 217.768C948.557 217.768 944.909 215.08 942.669 211.304V229.8H937.101V182.568H942.669V188.264C944.909 184.488 948.557 181.8 953.933 181.8ZM952.781 213.032C959.117 213.032 962.957 207.528 962.957 199.784C962.957 192.04 959.117 186.472 952.781 186.472C946.445 186.472 942.349 191.976 942.349 199.784C942.349 207.592 946.445 213.032 952.781 213.032ZM991.745 181.8C1000.39 181.8 1006.47 188.52 1006.47 199.784C1006.47 210.984 1000.39 217.768 991.745 217.768C986.369 217.768 982.721 215.08 980.481 211.304V229.8H974.913V182.568H980.481V188.264C982.721 184.488 986.369 181.8 991.745 181.8ZM990.593 213.032C996.929 213.032 1000.77 207.528 1000.77 199.784C1000.77 192.04 996.929 186.472 990.593 186.472C984.257 186.472 980.161 191.976 980.161 199.784C980.161 207.592 984.257 213.032 990.593 213.032ZM1030.14 179.88C1030.14 174.44 1031.93 170.664 1039.42 170.664H1043.2V175.208H1040.96C1036.73 175.208 1035.71 176.232 1035.71 180.072V182.568H1042.81V187.112H1035.71V217H1030.14V187.112H1025.15V182.568H1030.14V179.88ZM1055.23 170.664V177.448H1048.32V170.664H1055.23ZM1048.96 182.568H1054.53V217H1048.96V182.568ZM1077.76 182.184C1078.53 182.184 1079.23 182.248 1079.94 182.376V187.944C1079.17 187.816 1078.27 187.752 1077.51 187.752C1068.55 187.752 1068.42 196.072 1068.42 201.192V217H1062.85V182.568H1068.35V188.136C1070.27 184.36 1073.35 182.184 1077.76 182.184ZM1099.63 181.8C1110.32 181.8 1116.34 189.736 1115.76 201.32H1088.82C1089.33 208.232 1093.17 213.032 1099.76 213.032C1104.88 213.032 1108.66 210.152 1109.74 205.8H1115.44C1113.9 213.608 1107.76 217.768 1099.76 217.768C1089.26 217.768 1083.06 210.536 1083.06 199.784C1083.06 189.032 1089.46 181.8 1099.63 181.8ZM1109.87 197.032C1109.74 191.848 1106.54 186.472 1099.44 186.472C1093.17 186.472 1089.65 190.696 1088.88 197.032H1109.87ZM1118.97 182.568H1124.92L1131.83 208.552L1139.51 182.568H1144.89L1152.63 208.552L1159.55 182.568H1165.43L1155.39 217H1150.07L1142.2 190.44L1134.39 217H1129.02L1118.97 182.568ZM1193.08 217C1192.88 215.272 1192.76 214.184 1192.69 212.008C1190.2 215.592 1186.16 217.768 1180.79 217.768C1175.35 217.768 1168.63 215.464 1168.63 207.912C1168.63 201.192 1173.94 196.84 1186.04 196.84H1192.69V196.2C1192.69 192.04 1192.44 186.344 1184.24 186.344C1177.91 186.344 1175.73 189.8 1175.09 193.448H1169.52C1170.36 186.664 1174.96 181.8 1184.5 181.8C1195.64 181.8 1198.26 188.456 1198.26 195.56V209.768C1198.26 212.2 1198.39 214.952 1198.64 217H1193.08ZM1182.13 213.224C1187.44 213.224 1192.82 210.664 1192.82 201.064H1186.61C1178.16 201.064 1174.32 203.176 1174.32 207.4C1174.32 211.176 1177.33 213.224 1182.13 213.224ZM1206.67 170.664H1212.24V217H1206.67V170.664ZM1221.17 170.664H1226.74V217H1221.17V170.664ZM1263.21 175.208C1258.98 175.208 1257.96 176.232 1257.96 180.072V182.568H1265.06V187.112H1257.96V217H1252.39V187.112H1247.4V182.568H1252.39V179.88C1252.39 174.44 1254.18 170.664 1261.67 170.664H1265.45V175.208H1263.21ZM1283.31 217.768C1273.26 217.768 1267.12 210.792 1267.12 199.784C1267.12 188.776 1273.26 181.8 1283.31 181.8C1293.29 181.8 1299.5 188.776 1299.5 199.784C1299.5 210.792 1293.29 217.768 1283.31 217.768ZM1283.31 213.032C1289.9 213.032 1293.81 208.104 1293.81 199.784C1293.81 191.464 1289.9 186.472 1283.31 186.472C1276.72 186.472 1272.81 191.464 1272.81 199.784C1272.81 208.104 1276.72 213.032 1283.31 213.032ZM1320.51 182.184C1321.28 182.184 1321.98 182.248 1322.69 182.376V187.944C1321.92 187.816 1321.02 187.752 1320.26 187.752C1311.3 187.752 1311.17 196.072 1311.17 201.192V217H1305.6V182.568H1311.1V188.136C1313.02 184.36 1316.1 182.184 1320.51 182.184ZM1359.5 181.8C1368.14 181.8 1374.22 188.52 1374.22 199.784C1374.22 210.984 1368.14 217.768 1359.5 217.768C1354.12 217.768 1350.47 215.08 1348.23 211.304V229.8H1342.66V182.568H1348.23V188.264C1350.47 184.488 1354.12 181.8 1359.5 181.8ZM1358.34 213.032C1364.68 213.032 1368.52 207.528 1368.52 199.784C1368.52 192.04 1364.68 186.472 1358.34 186.472C1352.01 186.472 1347.91 191.976 1347.91 199.784C1347.91 207.592 1352.01 213.032 1358.34 213.032ZM1395.88 181.8C1406.57 181.8 1412.59 189.736 1412.01 201.32H1385.07C1385.58 208.232 1389.42 213.032 1396.01 213.032C1401.13 213.032 1404.91 210.152 1405.99 205.8H1411.69C1410.15 213.608 1404.01 217.768 1396.01 217.768C1385.51 217.768 1379.31 210.536 1379.31 199.784C1379.31 189.032 1385.71 181.8 1395.88 181.8ZM1406.12 197.032C1405.99 191.848 1402.79 186.472 1395.69 186.472C1389.42 186.472 1385.9 190.696 1385.13 197.032H1406.12ZM1441.26 217C1441.07 215.272 1440.94 214.184 1440.88 212.008C1438.38 215.592 1434.35 217.768 1428.97 217.768C1423.53 217.768 1416.81 215.464 1416.81 207.912C1416.81 201.192 1422.13 196.84 1434.22 196.84H1440.88V196.2C1440.88 192.04 1440.62 186.344 1432.43 186.344C1426.09 186.344 1423.92 189.8 1423.28 193.448H1417.71C1418.54 186.664 1423.15 181.8 1432.69 181.8C1443.82 181.8 1446.45 188.456 1446.45 195.56V209.768C1446.45 212.2 1446.57 214.952 1446.83 217H1441.26ZM1430.32 213.224C1435.63 213.224 1441.01 210.664 1441.01 201.064H1434.8C1426.35 201.064 1422.51 203.176 1422.51 207.4C1422.51 211.176 1425.52 213.224 1430.32 213.224ZM1468.62 217.768C1458.32 217.768 1452.37 210.536 1452.37 199.784C1452.37 189.032 1458.32 181.8 1468.62 181.8C1476.5 181.8 1482 186.024 1483.6 193.768H1477.84C1476.69 189.352 1473.55 186.472 1468.43 186.472C1461.26 186.472 1458.06 191.976 1458.06 199.784C1458.06 207.528 1461.26 213.032 1468.43 213.032C1473.74 213.032 1476.69 210.152 1477.84 205.8H1483.6C1482 213.544 1476.5 217.768 1468.62 217.768ZM1504.44 181.8C1515.13 181.8 1521.15 189.736 1520.57 201.32H1493.63C1494.14 208.232 1497.98 213.032 1504.57 213.032C1509.69 213.032 1513.47 210.152 1514.56 205.8H1520.25C1518.72 213.608 1512.57 217.768 1504.57 217.768C1494.08 217.768 1487.87 210.536 1487.87 199.784C1487.87 189.032 1494.27 181.8 1504.44 181.8ZM1514.68 197.032C1514.56 191.848 1511.36 186.472 1504.25 186.472C1497.98 186.472 1494.46 190.696 1493.69 197.032H1514.68ZM1556.81 217.768C1546.76 217.768 1540.62 210.792 1540.62 199.784C1540.62 188.776 1546.76 181.8 1556.81 181.8C1566.79 181.8 1573 188.776 1573 199.784C1573 210.792 1566.79 217.768 1556.81 217.768ZM1556.81 213.032C1563.4 213.032 1567.31 208.104 1567.31 199.784C1567.31 191.464 1563.4 186.472 1556.81 186.472C1550.22 186.472 1546.31 191.464 1546.31 199.784C1546.31 208.104 1550.22 213.032 1556.81 213.032ZM1591.58 175.208C1587.36 175.208 1586.34 176.232 1586.34 180.072V182.568H1593.44V187.112H1586.34V217H1580.77V187.112H1575.78V182.568H1580.77V179.88C1580.77 174.44 1582.56 170.664 1590.05 170.664H1593.82V175.208H1591.58ZM1650.86 181.8C1660.21 181.8 1662.38 189.224 1662.38 195.496V217H1656.81V195.432C1656.81 191.656 1655.79 186.472 1649.45 186.472C1642.61 186.472 1640.49 192.488 1640.49 197.736V217H1634.93V195.944C1634.93 191.784 1634.03 186.472 1627.69 186.472C1620.91 186.472 1618.61 192.488 1618.61 198.632V217H1613.04V182.568H1618.61V188.2C1620.72 184.04 1624.24 181.8 1629.29 181.8C1635.18 181.8 1638 184.872 1639.28 188.52C1641.77 184.232 1645.49 181.8 1650.86 181.8ZM1669.91 170.664H1676.83V177.448H1669.91V170.664ZM1670.55 182.568H1676.12V217H1670.55V182.568ZM1701.31 181.8C1709.56 181.8 1713.15 187.176 1713.15 194.664V217H1707.58V196.008C1707.58 190.568 1705.72 186.472 1699.84 186.472C1693.24 186.472 1690.04 191.592 1690.04 198.312V217H1684.48V182.568H1690.04V188.008C1692.6 183.336 1696.89 181.8 1701.31 181.8ZM1750.36 170.664V217H1744.79V211.304C1742.55 215.08 1738.9 217.768 1733.46 217.768C1724.89 217.768 1718.81 210.984 1718.81 199.784C1718.81 188.52 1724.89 181.8 1733.46 181.8C1738.9 181.8 1742.55 184.488 1744.79 188.264V170.664H1750.36ZM1734.68 213.032C1740.95 213.032 1745.11 207.592 1745.11 199.784C1745.11 191.976 1740.95 186.472 1734.68 186.472C1728.34 186.472 1724.5 192.04 1724.5 199.784C1724.5 207.528 1728.34 213.032 1734.68 213.032Z" fill="white"/>
<path d="M705.896 318.208C701.672 318.208 700.648 319.232 700.648 323.072V325.568H707.752V330.112H700.648V360H695.08V330.112H690.088V325.568H695.08V322.88C695.08 317.44 696.872 313.664 704.36 313.664H708.136V318.208H705.896ZM725.998 360.768C715.95 360.768 709.806 353.792 709.806 342.784C709.806 331.776 715.95 324.8 725.998 324.8C735.982 324.8 742.19 331.776 742.19 342.784C742.19 353.792 735.982 360.768 725.998 360.768ZM725.998 356.032C732.59 356.032 736.494 351.104 736.494 342.784C736.494 334.464 732.59 329.472 725.998 329.472C719.406 329.472 715.502 334.464 715.502 342.784C715.502 351.104 719.406 356.032 725.998 356.032ZM763.2 325.184C763.968 325.184 764.672 325.248 765.376 325.376V330.944C764.608 330.816 763.712 330.752 762.944 330.752C753.984 330.752 753.856 339.072 753.856 344.192V360H748.288V325.568H753.792V331.136C755.712 327.36 758.784 325.184 763.2 325.184Z" fill="white"/>
<rect x="810" y="283" width="104" height="104" rx="27.7333" fill="#80BD00"/>
<path d="M859.847 307.524C860.501 307.156 861.24 307 862 307C862.76 307 863.504 307.156 864.153 307.524L884.847 319.396C886.186 320.165 887 321.61 887 323.15V346.85C887 348.39 886.186 349.83 884.847 350.604L864.153 362.433C863.492 362.813 862.766 363 862 363C861.244 363 860.508 362.813 859.847 362.433L852.905 358.373C851.875 357.8 852.39 357.618 852.729 357.501C854.105 357.026 854.381 356.93 855.849 356.104C856.002 356.019 856.218 356.012 856.376 356.104L861.692 359.246C861.886 359.351 862.13 359.351 862.308 359.246L883.002 347.418C883.195 347.309 883.309 347.077 883.309 346.85V323.15C883.309 322.918 883.155 322.7 882.958 322.582L862.308 310.754C862.116 310.643 861.886 310.643 861.692 310.754L841.042 322.582C840.842 322.696 840.691 322.925 840.691 323.15V346.85C840.691 347.077 840.844 347.267 841.042 347.374L846.666 350.648C849.738 352.173 851.631 350.358 851.631 348.553V325.157C851.631 324.827 851.914 324.59 852.246 324.59H854.838C855.165 324.59 855.453 324.827 855.453 325.157V348.553C855.453 352.626 853.234 354.969 849.346 354.969L849.293 354.969C848.122 354.969 847.143 354.969 844.557 353.703L839.153 350.604C837.814 349.836 837 348.39 837 346.85V323.15C837 321.61 837.814 320.162 839.153 319.396L859.847 307.524Z" fill="#010024"/>
<path d="M858.134 330.57C858.134 326.427 861.643 323.936 867.536 323.936C874.158 323.936 877.446 326.239 877.861 331.138C877.877 331.307 877.798 331.448 877.685 331.574C877.571 331.692 877.411 331.792 877.246 331.792H874.566C874.288 331.792 874.051 331.579 873.995 331.312C873.352 328.468 871.782 327.558 867.536 327.558C862.782 327.558 862.264 329.207 862.264 330.439C862.264 331.932 862.875 332.345 869.294 333.189C875.645 334.023 878.696 335.214 878.696 339.649C878.696 344.123 874.919 346.676 868.371 346.676C859.325 346.676 857.431 342.585 857.431 339.125C857.431 338.796 857.715 338.514 858.046 338.514H860.726C861.025 338.514 861.25 338.748 861.297 339.038C861.7 341.741 862.902 343.097 868.371 343.097C872.724 343.097 874.566 342.118 874.566 339.823C874.566 338.5 874.039 337.513 867.272 336.855C861.617 336.299 858.134 335.065 858.134 330.57Z" fill="#010024"/>
<path d="M980.624 313.664V360H973.072L949.008 321.216V360H943.184V313.664H950.8L974.8 352.384V313.664H980.624ZM1004.37 360.768C994.325 360.768 988.181 353.792 988.181 342.784C988.181 331.776 994.325 324.8 1004.37 324.8C1014.36 324.8 1020.56 331.776 1020.56 342.784C1020.56 353.792 1014.36 360.768 1004.37 360.768ZM1004.37 356.032C1010.96 356.032 1014.87 351.104 1014.87 342.784C1014.87 334.464 1010.96 329.472 1004.37 329.472C997.781 329.472 993.877 334.464 993.877 342.784C993.877 351.104 997.781 356.032 1004.37 356.032ZM1057.17 313.664V360H1051.61V354.304C1049.37 358.08 1045.72 360.768 1040.28 360.768C1031.7 360.768 1025.62 353.984 1025.62 342.784C1025.62 331.52 1031.7 324.8 1040.28 324.8C1045.72 324.8 1049.37 327.488 1051.61 331.264V313.664H1057.17ZM1041.49 356.032C1047.77 356.032 1051.93 350.592 1051.93 342.784C1051.93 334.976 1047.77 329.472 1041.49 329.472C1035.16 329.472 1031.32 335.04 1031.32 342.784C1031.32 350.528 1035.16 356.032 1041.49 356.032ZM1079.88 324.8C1090.57 324.8 1096.59 332.736 1096.01 344.32H1069.07C1069.58 351.232 1073.42 356.032 1080.01 356.032C1085.13 356.032 1088.91 353.152 1089.99 348.8H1095.69C1094.15 356.608 1088.01 360.768 1080.01 360.768C1069.51 360.768 1063.31 353.536 1063.31 342.784C1063.31 332.032 1069.71 324.8 1079.88 324.8ZM1090.12 340.032C1089.99 334.848 1086.79 329.472 1079.69 329.472C1073.42 329.472 1069.9 333.696 1069.13 340.032H1090.12ZM1101.9 352.704H1109.07V360H1101.9V352.704ZM1115.76 313.664H1122.61V320.448H1115.76V313.664ZM1110.7 368.256H1111.79C1114.8 368.256 1116.4 368 1116.4 364.16V325.568H1121.97V364.864C1121.97 370.944 1118.7 372.8 1113.2 372.8H1110.7V368.256ZM1143.77 360.768C1133.92 360.768 1128.86 355.456 1128.22 348.928H1133.79C1134.75 352.576 1137.18 356.16 1143.84 356.16C1149.98 356.16 1152.16 353.088 1152.16 350.528C1152.16 346.688 1147.61 345.728 1142.62 344.768C1137.24 343.68 1128.99 342.08 1128.99 334.592C1128.99 328.32 1135 324.8 1142.49 324.8C1151.9 324.8 1156.38 330.24 1157.02 335.296H1151.39C1150.62 332.8 1148.7 329.408 1142.3 329.408C1136.99 329.408 1134.62 331.776 1134.62 334.4C1134.62 338.112 1139.48 339.136 1144.6 340.224C1151.2 341.568 1157.79 343.296 1157.79 349.952C1157.79 355.328 1153.69 360.768 1143.77 360.768Z" fill="white"/>
<path d="M584.592 342.792L590.016 338.472C591.744 337.096 592.608 335.656 592.608 334.152V333.912C592.608 333.304 592.384 332.792 591.936 332.376C591.52 331.928 590.896 331.704 590.064 331.704C589.232 331.704 588.56 331.944 588.048 332.424C587.568 332.872 587.168 333.512 586.848 334.344L584.304 333.288C584.656 332.2 585.312 331.256 586.272 330.456C587.264 329.624 588.608 329.208 590.304 329.208C592.128 329.208 593.488 329.672 594.384 330.6C595.312 331.496 595.776 332.584 595.776 333.864C595.776 335.208 595.344 336.392 594.48 337.416C593.648 338.44 592.64 339.416 591.456 340.344L587.76 343.176H596.4V345.576H584.592V342.792Z" fill="#6551F3"/>
<path d="M590.064 494.864C588.4 494.864 587.104 494.528 586.176 493.856C585.248 493.152 584.528 492.352 584.016 491.456L586.272 489.872C586.656 490.608 587.12 491.216 587.664 491.696C588.24 492.176 589.04 492.416 590.064 492.416C590.992 492.416 591.712 492.208 592.224 491.792C592.768 491.344 593.04 490.752 593.04 490.016V489.68C593.04 488.944 592.752 488.4 592.176 488.048C591.6 487.664 590.784 487.472 589.728 487.472H588.048V485.072H589.728C590.752 485.072 591.504 484.88 591.984 484.496C592.496 484.112 592.752 483.648 592.752 483.104V482.768C592.752 482.128 592.512 481.616 592.032 481.232C591.552 480.848 590.896 480.656 590.064 480.656C588.56 480.656 587.408 481.312 586.608 482.624L584.592 480.992C585.168 480.16 585.888 479.488 586.752 478.976C587.616 478.464 588.752 478.208 590.16 478.208C591.888 478.208 593.264 478.592 594.288 479.36C595.312 480.096 595.824 481.104 595.824 482.384C595.824 483.44 595.488 484.288 594.816 484.928C594.176 485.536 593.392 485.92 592.464 486.08V486.272C593.488 486.432 594.352 486.832 595.056 487.472C595.76 488.112 596.112 488.992 596.112 490.112C596.112 491.552 595.552 492.704 594.432 493.568C593.344 494.432 591.888 494.864 590.064 494.864Z" fill="#6551F3"/>
<path d="M585.072 194.176H589.584V183.136L585.312 185.296L584.16 183.184L589.344 180.496H592.608V194.176H596.592V196.576H585.072V194.176Z" fill="#6551F3"/>
<path d="M721.256 514.296L734.76 500.856H694.12V468.664H699.432V495.928H734.76L721.256 482.424L724.84 478.84L744.36 498.36L724.84 517.88L721.256 514.296Z" fill="white"/>
<path d="M1801.2 596C1801.01 594.272 1800.88 593.184 1800.82 591.008C1798.32 594.592 1794.29 596.768 1788.91 596.768C1783.47 596.768 1776.75 594.464 1776.75 586.912C1776.75 580.192 1782.06 575.84 1794.16 575.84H1800.82V575.2C1800.82 571.04 1800.56 565.344 1792.37 565.344C1786.03 565.344 1783.86 568.8 1783.22 572.448H1777.65C1778.48 565.664 1783.09 560.8 1792.62 560.8C1803.76 560.8 1806.38 567.456 1806.38 574.56V588.768C1806.38 591.2 1806.51 593.952 1806.77 596H1801.2ZM1790.26 592.224C1795.57 592.224 1800.94 589.664 1800.94 580.064H1794.74C1786.29 580.064 1782.45 582.176 1782.45 586.4C1782.45 590.176 1785.46 592.224 1790.26 592.224ZM1814.29 549.664H1821.2V556.448H1814.29V549.664ZM1814.93 561.568H1820.5V596H1814.93V561.568ZM1828.73 549.664H1834.29V577.44L1849.65 561.568H1856.63L1843.51 575.072L1857.85 596H1851.32L1839.73 579.04L1834.29 584.608V596H1828.73V549.664ZM1862.48 549.664H1869.39V556.448H1862.48V549.664ZM1863.12 561.568H1868.68V596H1863.12V561.568ZM1907.74 549.664V596H1902.17V590.304C1899.93 594.08 1896.28 596.768 1890.84 596.768C1882.26 596.768 1876.18 589.984 1876.18 578.784C1876.18 567.52 1882.26 560.8 1890.84 560.8C1896.28 560.8 1899.93 563.488 1902.17 567.264V549.664H1907.74ZM1892.06 592.032C1898.33 592.032 1902.49 586.592 1902.49 578.784C1902.49 570.976 1898.33 565.472 1892.06 565.472C1885.72 565.472 1881.88 571.04 1881.88 578.784C1881.88 586.528 1885.72 592.032 1892.06 592.032ZM1930.06 596.768C1920.01 596.768 1913.87 589.792 1913.87 578.784C1913.87 567.776 1920.01 560.8 1930.06 560.8C1940.04 560.8 1946.25 567.776 1946.25 578.784C1946.25 589.792 1940.04 596.768 1930.06 596.768ZM1930.06 592.032C1936.65 592.032 1940.56 587.104 1940.56 578.784C1940.56 570.464 1936.65 565.472 1930.06 565.472C1923.47 565.472 1919.56 570.464 1919.56 578.784C1919.56 587.104 1923.47 592.032 1930.06 592.032ZM1951.27 588.704H1958.44V596H1951.27V588.704ZM1995.3 549.664V596H1989.73V590.304C1987.49 594.08 1983.84 596.768 1978.4 596.768C1969.83 596.768 1963.75 589.984 1963.75 578.784C1963.75 567.52 1969.83 560.8 1978.4 560.8C1983.84 560.8 1987.49 563.488 1989.73 567.264V549.664H1995.3ZM1979.62 592.032C1985.89 592.032 1990.05 586.592 1990.05 578.784C1990.05 570.976 1985.89 565.472 1979.62 565.472C1973.28 565.472 1969.44 571.04 1969.44 578.784C1969.44 586.528 1973.28 592.032 1979.62 592.032ZM2018.01 560.8C2028.69 560.8 2034.71 568.736 2034.13 580.32H2007.19C2007.7 587.232 2011.54 592.032 2018.13 592.032C2023.25 592.032 2027.03 589.152 2028.12 584.8H2033.81C2032.28 592.608 2026.13 596.768 2018.13 596.768C2007.64 596.768 2001.43 589.536 2001.43 578.784C2001.43 568.032 2007.83 560.8 2018.01 560.8ZM2028.25 576.032C2028.12 570.848 2024.92 565.472 2017.81 565.472C2011.54 565.472 2008.02 569.696 2007.25 576.032H2028.25ZM2037.02 561.568H2043.1L2052.7 589.152L2062.3 561.568H2068.32L2055.58 596H2049.76L2037.02 561.568ZM2087.41 549.664H2093.17L2074.48 596H2068.72L2087.41 549.664ZM2121.21 591.264V596H2093.37V591.328L2113.79 566.24H2094.65V561.568H2120.63V566.176L2100.28 591.264H2121.21ZM2141.69 560.8C2152.38 560.8 2158.4 568.736 2157.82 580.32H2130.88C2131.39 587.232 2135.23 592.032 2141.82 592.032C2146.94 592.032 2150.72 589.152 2151.81 584.8H2157.5C2155.97 592.608 2149.82 596.768 2141.82 596.768C2131.33 596.768 2125.12 589.536 2125.12 578.784C2125.12 568.032 2131.52 560.8 2141.69 560.8ZM2151.93 576.032C2151.81 570.848 2148.61 565.472 2141.5 565.472C2135.23 565.472 2131.71 569.696 2130.94 576.032H2151.93ZM2181.37 560.8C2189.63 560.8 2193.21 566.176 2193.21 573.664V596H2187.64V575.008C2187.64 569.568 2185.79 565.472 2179.9 565.472C2173.31 565.472 2170.11 570.592 2170.11 577.312V596H2164.54V561.568H2170.11V567.008C2172.67 562.336 2176.95 560.8 2181.37 560.8Z" fill="white" fill-opacity="0.8"/>
<defs>
<filter id="filter0_f_11901_105593" x="134" y="-417" width="2012" height="1524" filterUnits="userSpaceOnUse" color-interpolation-filters="sRGB">
<feFlood flood-opacity="0" result="BackgroundImageFix"/>
<feBlend mode="normal" in="SourceGraphic" in2="BackgroundImageFix" result="shape"/>
<feGaussianBlur stdDeviation="250" result="effect1_foregroundBlur_11901_105593"/>
</filter>
<clipPath id="clip0_11901_105593">
<rect width="2216" height="626" fill="white" transform="translate(32 32)"/>
</clipPath>
<clipPath id="clip1_11901_105593">
<rect width="264.983" height="89.8719" fill="white" transform="translate(189 139.26)"/>
</clipPath>
</defs>
</svg>
