<svg width="2280" height="690" viewBox="0 0 2280 690" fill="none" xmlns="http://www.w3.org/2000/svg">
<rect width="2280" height="690" fill="#181435"/>
<g clip-path="url(#clip0_4053_13356)">
<rect x="32.5" y="32.5" width="2215" height="625" rx="31.5" fill="#141031" stroke="#3D3192"/>
<g opacity="0.4" filter="url(#filter0_f_4053_13356)">
<ellipse cx="1140" cy="345" rx="506" ry="262" fill="#6551F3"/>
</g>
<circle cx="1139.52" cy="344.515" r="119.145" fill="white" fill-opacity="0.01" stroke="#A397F8" stroke-width="0.614783"/>
<circle cx="1139.51" cy="344.508" r="238.905" fill="white" fill-opacity="0.01"/>
<circle cx="1139.51" cy="344.508" r="238.597" stroke="#A397F8" stroke-opacity="0.9" stroke-width="0.614783"/>
<circle cx="1139.54" cy="344.539" r="358.357" fill="white" fill-opacity="0.01"/>
<circle cx="1139.54" cy="344.539" r="358.05" stroke="#A397F8" stroke-opacity="0.8" stroke-width="0.614783"/>
<circle cx="1139.53" cy="344.532" r="477.81" fill="white" fill-opacity="0.01"/>
<circle cx="1139.53" cy="344.532" r="477.502" stroke="#A397F8" stroke-opacity="0.7" stroke-width="0.614783"/>
<circle cx="1139.52" cy="344.524" r="597.262" fill="white" fill-opacity="0.01"/>
<circle cx="1139.52" cy="344.524" r="596.954" stroke="#A397F8" stroke-opacity="0.6" stroke-width="0.614783"/>
<circle cx="1139.52" cy="344.517" r="716.714" fill="white" fill-opacity="0.01"/>
<circle cx="1139.52" cy="344.517" r="716.407" stroke="#A397F8" stroke-opacity="0.5" stroke-width="0.614783"/>
<circle cx="1139.51" cy="344.508" r="836.167" fill="white" fill-opacity="0.01"/>
<circle cx="1139.51" cy="344.508" r="835.859" stroke="#A397F8" stroke-opacity="0.4" stroke-width="0.614783"/>
<circle cx="1139.54" cy="344.539" r="955.619" fill="white" fill-opacity="0.01"/>
<circle cx="1139.54" cy="344.539" r="955.312" stroke="#A397F8" stroke-opacity="0.3" stroke-width="0.614783"/>
<circle cx="1139.53" cy="344.532" r="1075.07" fill="white" fill-opacity="0.01"/>
<circle cx="1139.53" cy="344.532" r="1074.76" stroke="#A397F8" stroke-opacity="0.2" stroke-width="0.614783"/>
<circle cx="1139.52" cy="344.524" r="1194.52" fill="white" fill-opacity="0.01"/>
<circle cx="1139.52" cy="344.524" r="1194.22" stroke="#A397F8" stroke-opacity="0.1" stroke-width="0.614783"/>
<g clip-path="url(#clip1_4053_13356)">
<mask id="mask0_4053_13356" style="mask-type:luminance" maskUnits="userSpaceOnUse" x="189" y="139" width="265" height="91">
<path d="M453.983 139.26H189V229.118H453.983V139.26Z" fill="white"/>
</mask>
<g mask="url(#mask0_4053_13356)">
<path d="M309.364 227.73C302.624 227.73 297.519 226.335 294.202 223.588C290.801 220.776 289.078 216.593 289.078 211.154V172.032C289.078 165.922 290.806 161.414 294.211 158.635C297.579 155.888 302.985 154.549 310.735 154.549H350.316C357.056 154.549 362.162 155.943 365.483 158.69C368.883 161.502 370.607 165.686 370.607 171.124V200.073H310.763V206.846H371.07L365.015 227.73H309.373H309.364ZM348.922 182.205V175.432H310.754V182.205H348.922Z" fill="#9F93F8"/>
<path d="M350.313 155.937C356.756 155.937 361.509 157.206 364.59 159.759C367.671 162.311 369.209 166.096 369.209 171.123V198.682H309.365V208.234H369.209L363.96 226.338H309.365C302.926 226.338 298.168 225.069 295.088 222.516C292.007 219.964 290.469 216.179 290.469 211.153V172.031C290.469 166.333 292.007 162.223 295.088 159.713C298.168 157.197 303.38 155.942 310.732 155.942H350.313M309.365 183.598H350.313V174.046H309.365V183.598ZM350.313 153.162H310.732C302.648 153.162 296.959 154.598 293.332 157.558C289.589 160.611 287.689 165.48 287.689 172.031V211.153C287.689 217.027 289.584 221.571 293.318 224.661C296.945 227.663 302.194 229.122 309.37 229.122H366.054L366.638 227.117L371.886 209.012L372.915 205.459H312.149V201.466H371.993V171.127C371.993 165.253 370.098 160.709 366.364 157.623C362.737 154.621 357.488 153.162 350.313 153.162ZM312.145 176.825H347.533V180.819H312.145V176.825Z" fill="#9F93F8"/>
<path d="M424.122 227.73L424.224 226.243C424.252 225.844 426.883 188.033 427.801 175.358C423.812 175.358 420.852 175.377 417.984 175.395C415.061 175.414 412.045 175.428 407.936 175.432L404.05 227.73H379.363L383.249 175.432H371.033L377.088 154.549H432.308C439.039 154.549 444.144 155.943 447.471 158.69C452.251 162.633 452.71 168.511 452.571 173.195C452.529 174.562 452.441 175.896 452.358 177.021L451.39 190.646C450.723 200.138 450.06 209.63 449.398 219.122L449.287 220.688C449.282 220.753 449.268 221.017 449.24 221.401C449.194 222.18 449.115 223.44 449.046 224.505C449.009 225.043 448.976 225.534 448.948 225.886C448.902 226.483 448.8 227.73 447.503 227.73H424.113H424.122Z" fill="#9F93F8"/>
<path d="M432.308 155.938C438.752 155.938 443.505 157.216 446.585 159.76C450.731 163.178 451.324 168.228 451.181 173.152C451.144 174.422 451.06 175.696 450.972 176.919C450.648 181.459 450.328 186.008 450.004 190.548C449.3 200.563 448.6 210.574 447.906 220.59C447.882 220.891 447.567 226.344 447.507 226.344H425.609C425.609 226.344 428.49 184.938 429.292 173.972C419.744 173.972 416.196 174.046 406.643 174.046L402.757 226.344H380.858L384.745 174.046H372.881L378.13 155.942H432.303M432.303 153.163H376.041L375.457 155.169L370.208 173.273L369.18 176.826H381.748L378.083 226.14L377.861 229.123H405.332L405.522 226.547L409.214 176.821C412.684 176.817 415.366 176.803 417.979 176.789C420.476 176.775 423.043 176.761 426.295 176.757C425.299 190.664 422.853 225.769 422.83 226.154L422.621 229.128H447.498C448.702 229.128 450.092 228.303 450.287 226.492C450.301 226.376 450.315 226.209 450.333 226.001C450.361 225.644 450.398 225.148 450.43 224.602C450.5 223.536 450.579 222.276 450.625 221.493C450.648 221.123 450.662 220.859 450.667 220.789L450.778 219.186C451.44 209.703 452.098 200.221 452.765 190.738L453.224 184.275L453.733 177.109C453.812 176.048 453.909 174.644 453.951 173.231C454.095 168.233 453.59 161.937 448.346 157.615C444.76 154.659 439.363 153.158 432.298 153.158L432.303 153.163Z" fill="#9F93F8"/>
<path d="M233.788 227.73V218.006L218.468 227.73H204.283V206.846H211.885L260.662 175.993V175.432H208.49V154.549H263.112C268.931 154.549 273.614 155.883 277.028 158.505C280.558 161.22 282.347 165.296 282.347 170.619V187.171L250.567 207.346H285.812V227.725H233.793L233.788 227.73Z" fill="#9F93F8"/>
<path d="M263.105 155.937C268.632 155.937 272.991 157.16 276.179 159.606C279.366 162.056 280.955 165.725 280.955 170.617V186.405L245.784 208.734H284.42V226.333H235.18V215.47L218.067 226.333H205.68V208.229H212.295L262.063 176.751V174.036H209.877V155.932H263.11M263.11 153.152H207.098V176.816H256.759L211.489 205.449H202.9V229.113H218.878L219.559 228.682L232.405 220.528V229.113H287.204V205.954H255.35L282.446 188.754L283.734 187.934V170.617C283.734 164.836 281.761 160.388 277.869 157.4C274.205 154.584 269.234 153.152 263.105 153.152H263.11Z" fill="#9F93F8"/>
<path d="M304.733 223.097C297.993 223.097 292.888 221.702 289.571 218.955C286.171 216.143 284.447 211.96 284.447 206.521V167.399C284.447 161.289 286.175 156.781 289.58 154.002C292.948 151.255 298.354 149.916 306.105 149.916H345.685C352.426 149.916 357.531 151.31 360.852 154.058C364.253 156.87 365.976 161.053 365.976 166.491V195.44H306.132V202.213H366.439L360.384 223.097H304.743H304.733ZM344.291 177.572V170.8H306.123V177.572H344.291Z" fill="#6551F3"/>
<path d="M345.678 151.305C352.122 151.305 356.875 152.574 359.955 155.127C363.036 157.679 364.574 161.464 364.574 166.491V194.05H304.73V203.602H364.574L359.325 221.706H304.73C298.291 221.706 293.534 220.437 290.453 217.884C287.372 215.332 285.834 211.547 285.834 206.521V167.398C285.834 161.7 287.372 157.591 290.453 155.08C293.534 152.565 298.745 151.31 306.097 151.31H345.678M304.73 178.966H345.678V169.414H304.73V178.966ZM345.678 148.53H306.097C298.013 148.53 292.324 149.966 288.697 152.926C284.954 155.979 283.055 160.848 283.055 167.398V206.521C283.055 212.395 284.949 216.939 288.683 220.029C292.311 223.031 297.559 224.49 304.735 224.49H361.419L362.003 222.484L367.252 204.38L368.28 200.827H307.515V196.834H367.358V166.491C367.358 160.616 365.464 156.072 361.73 152.987C358.102 149.985 352.854 148.525 345.678 148.525V148.53ZM307.51 172.193H342.898V176.186H307.51V172.193Z" fill="#6551F3"/>
<path d="M419.488 223.097L419.59 221.61C419.617 221.211 422.249 183.4 423.166 170.726C419.177 170.726 416.217 170.744 413.35 170.763C410.426 170.781 407.411 170.795 403.302 170.8L399.415 223.097H374.728L378.615 170.8H366.398L372.453 149.916H427.673C434.405 149.916 439.51 151.31 442.836 154.058C447.617 158 448.075 163.879 447.936 168.562C447.895 169.929 447.807 171.263 447.723 172.389L446.755 186.013C446.088 195.505 445.425 204.997 444.763 214.489L444.652 216.055C444.647 216.12 444.633 216.384 444.606 216.769C444.559 217.547 444.48 218.807 444.411 219.872C444.374 220.41 444.341 220.901 444.314 221.253C444.267 221.851 444.165 223.097 442.868 223.097H419.478H419.488Z" fill="#6551F3"/>
<path d="M427.677 151.305C434.121 151.305 438.874 152.584 441.954 155.127C446.101 158.546 446.694 163.595 446.55 168.52C446.513 169.789 446.43 171.063 446.342 172.286C446.017 176.826 445.698 181.375 445.373 185.915C444.669 195.93 443.97 205.941 443.275 215.957C443.252 216.258 442.937 221.711 442.876 221.711H420.978C420.978 221.711 423.86 180.305 424.661 169.34C415.113 169.34 411.565 169.414 402.012 169.414L398.126 221.711H376.228L380.114 169.414H368.25L373.499 151.31H427.672M427.672 148.53H371.41L370.826 150.536L365.577 168.64L364.549 172.193H377.117L373.453 221.507L373.23 224.49H400.701L400.891 221.915L404.584 172.189C408.053 172.184 410.736 172.17 413.348 172.156C415.845 172.142 418.412 172.128 421.664 172.124C420.668 186.031 418.222 221.136 418.199 221.521L417.99 224.495H442.867C444.072 224.495 445.461 223.67 445.656 221.859C445.67 221.743 445.684 221.576 445.702 221.368C445.73 221.011 445.767 220.516 445.799 219.969C445.869 218.903 445.948 217.643 445.994 216.86C446.017 216.49 446.031 216.226 446.036 216.156L446.147 214.553C446.809 205.071 447.467 195.588 448.134 186.105L448.593 179.642L449.103 172.476C449.181 171.415 449.279 170.011 449.32 168.598C449.464 163.6 448.959 157.304 443.715 152.982C440.129 150.026 434.732 148.525 427.668 148.525L427.672 148.53Z" fill="#6551F3"/>
<path d="M229.155 223.097V213.373L213.835 223.097H199.65V202.213H207.252L256.029 171.36V170.8H203.857V149.916H258.479C264.298 149.916 268.981 151.25 272.396 153.872C275.926 156.587 277.714 160.664 277.714 165.986V182.539L245.934 202.713H281.179V223.092H229.16L229.155 223.097Z" fill="#6551F3"/>
<path d="M258.475 151.305C264.001 151.305 268.36 152.528 271.548 154.974C274.735 157.425 276.324 161.094 276.324 165.986V181.773L241.153 204.102H279.789V221.702H230.549V210.838L213.437 221.702H201.049V203.597H207.664L257.432 172.119V169.404H205.246V151.305H258.479M258.479 148.525H202.467V172.189H252.128L206.858 200.822H198.27V224.486H214.247L214.928 224.055L227.774 215.902V224.486H282.573V201.327H250.72L277.816 184.127L279.103 183.307V165.99C279.103 160.209 277.13 155.761 273.239 152.773C269.574 149.957 264.603 148.525 258.475 148.525H258.479Z" fill="#6551F3"/>
<path d="M368.275 200.824L363.642 196.191L362.299 200.824H368.275Z" fill="#6551F3"/>
<path d="M273.302 192.062L277.935 196.695L272.77 196.737L273.302 192.062Z" fill="#1D1D1B"/>
<path d="M300.099 218.464C293.358 218.464 288.253 217.07 284.936 214.322C281.536 211.51 279.812 207.327 279.812 201.889V162.767C279.812 156.656 281.54 152.149 284.945 149.369C288.313 146.622 293.719 145.283 301.47 145.283H341.05C347.791 145.283 352.896 146.678 356.218 149.425C359.618 152.237 361.341 156.42 361.341 161.859V190.807H301.498V197.58H361.804L355.75 218.464H300.108H300.099ZM339.656 172.94V166.167H301.488V172.94H339.656Z" fill="#1D1D1B"/>
<path d="M341.047 146.672C347.491 146.672 352.244 147.941 355.325 150.494C358.405 153.047 359.943 156.831 359.943 161.858V189.417H300.1V198.969H359.943L354.694 217.073H300.1C293.66 217.073 288.903 215.804 285.822 213.251C282.741 210.699 281.203 206.914 281.203 201.888V162.766C281.203 157.068 282.741 152.959 285.822 150.448C288.903 147.932 294.114 146.677 301.466 146.677H341.047M300.1 174.333H341.047V164.781H300.1V174.333ZM341.047 143.893H301.466C293.382 143.893 287.694 145.329 284.066 148.289C280.323 151.342 278.424 156.211 278.424 162.761V201.883C278.424 207.757 280.319 212.302 284.052 215.392C287.68 218.394 292.928 219.853 300.104 219.853H356.788L357.372 217.847L362.621 199.743L363.649 196.19H302.884V192.196H362.727V161.858C362.727 155.984 360.833 151.439 357.099 148.354C353.471 145.352 348.223 143.893 341.047 143.893ZM302.879 167.556H338.267V171.549H302.879V167.556Z" fill="#1D1D1B"/>
<path d="M414.857 218.464L414.959 216.977C414.987 216.578 417.618 178.767 418.535 166.093C414.546 166.093 411.586 166.111 408.719 166.13C405.796 166.148 402.78 166.162 398.671 166.167L394.784 218.464H370.097L373.984 166.167H361.768L367.822 145.283H423.043C429.774 145.283 434.879 146.678 438.205 149.425C442.986 153.367 443.444 159.246 443.305 163.929C443.264 165.296 443.176 166.63 443.092 167.756L442.124 181.38C441.457 190.872 440.795 200.364 440.132 209.857L440.021 211.422C440.016 211.487 440.002 211.751 439.975 212.136C439.928 212.914 439.85 214.174 439.78 215.24C439.743 215.777 439.711 216.268 439.683 216.62C439.636 217.218 439.535 218.464 438.237 218.464H414.848H414.857Z" fill="#1D1D1B"/>
<path d="M423.042 146.672C429.486 146.672 434.239 147.951 437.32 150.494C441.466 153.913 442.059 158.962 441.915 163.887C441.878 165.156 441.795 166.43 441.707 167.653C441.382 172.193 441.063 176.742 440.739 181.282C440.034 191.298 439.335 201.309 438.64 211.324C438.617 211.625 438.302 217.078 438.242 217.078H416.343C416.343 217.078 419.225 175.672 420.026 164.707C410.479 164.707 406.93 164.781 397.378 164.781L393.491 217.078H371.593L375.479 164.781H363.615L368.864 146.677H423.037M423.037 143.897H366.775L366.191 145.903L360.942 164.007L359.914 167.56H372.482L368.818 216.874L368.595 219.857H396.067L396.257 217.282L399.949 167.556C403.419 167.551 406.101 167.537 408.714 167.523C411.211 167.509 413.777 167.496 417.029 167.491C416.033 181.398 413.587 216.504 413.564 216.888L413.355 219.862H438.232C439.437 219.862 440.827 219.038 441.021 217.226C441.035 217.11 441.049 216.944 441.067 216.735C441.095 216.378 441.132 215.883 441.165 215.336C441.234 214.271 441.313 213.011 441.359 212.228C441.382 211.857 441.396 211.593 441.401 211.523L441.512 209.921C442.175 200.438 442.832 190.955 443.5 181.472L443.958 175.01L444.468 167.843C444.547 166.782 444.644 165.378 444.686 163.966C444.829 158.967 444.324 152.671 439.08 148.349C435.494 145.394 430.098 143.893 423.033 143.893L423.037 143.897Z" fill="#1D1D1B"/>
<path d="M224.522 218.464V208.74L209.202 218.464H195.021V197.58H202.624L251.4 166.727V166.167H199.223V145.283H253.846C259.664 145.283 264.348 146.617 267.762 149.239C271.292 151.954 273.08 156.031 273.08 161.354V177.906L241.301 198.081H276.545V218.459H224.526L224.522 218.464Z" fill="#1D1D1B"/>
<path d="M253.842 146.672C259.369 146.672 263.728 147.895 266.915 150.341C270.103 152.792 271.692 156.461 271.692 161.353V177.141L236.521 199.47H275.157V217.069H225.917V206.205L208.804 217.069H196.417V198.965H203.032L252.8 167.486V164.772H200.614V146.672H253.847M253.847 143.893H197.835V167.556H247.496L202.222 196.19H193.633V219.853H209.611L210.292 219.422L223.138 211.269V219.853H277.936V196.695H246.083L273.179 179.494L274.467 178.674V161.357C274.467 155.576 272.493 151.129 268.602 148.141C264.937 145.324 259.967 143.893 253.838 143.893H253.847Z" fill="#1D1D1B"/>
<path d="M295.468 213.831C288.727 213.831 283.622 212.437 280.305 209.69C276.905 206.878 275.182 202.694 275.182 197.256V158.134C275.182 152.023 276.91 147.516 280.315 144.736C283.682 141.989 289.089 140.65 296.839 140.65H336.42C343.16 140.65 348.265 142.045 351.587 144.792C354.987 147.604 356.71 151.787 356.71 157.226V186.175H296.867V192.948H357.174L351.119 213.831H295.477H295.468ZM335.025 168.307V161.534H296.857V168.307H335.025Z" fill="white"/>
<path d="M336.413 142.039C342.857 142.039 347.61 143.309 350.69 145.861C353.771 148.414 355.309 152.199 355.309 157.225V184.784H295.466V194.336H355.309L350.06 212.441H295.466C289.026 212.441 284.269 211.171 281.188 208.619C278.107 206.066 276.569 202.281 276.569 197.255V158.133C276.569 152.435 278.107 148.326 281.188 145.815C284.269 143.299 289.48 142.044 296.832 142.044H336.413M295.466 169.7H336.413V160.148H295.466V169.7ZM336.413 139.26H296.832C288.748 139.26 283.055 140.7 279.428 143.656C275.685 146.709 273.785 151.578 273.785 158.128V197.25C273.785 203.124 275.68 207.669 279.414 210.759C283.041 213.761 288.29 215.22 295.466 215.22H352.15L352.733 213.214L357.982 195.11L359.011 191.557H298.245V187.564H358.089V157.225C358.089 151.351 356.194 146.806 352.46 143.721C348.837 140.719 343.584 139.26 336.413 139.26ZM298.245 162.923H333.633V166.916H298.245V162.923Z" fill="#1D1D1B"/>
<path d="M410.222 213.831L410.324 212.344C410.352 211.946 412.983 174.135 413.9 161.46C409.912 161.46 406.951 161.478 404.084 161.497C401.161 161.515 398.145 161.529 394.036 161.534L390.149 213.831H365.462L369.348 161.534H357.133L363.188 140.65H418.407C425.139 140.65 430.244 142.045 433.57 144.792C438.351 148.734 438.81 154.613 438.671 159.296C438.629 160.663 438.541 161.997 438.457 163.123L437.489 176.747C436.822 186.24 436.159 195.732 435.497 205.224L435.386 206.79C435.381 206.854 435.368 207.119 435.34 207.503C435.294 208.281 435.215 209.541 435.145 210.607C435.108 211.144 435.076 211.635 435.048 211.987C435.001 212.585 434.9 213.831 433.603 213.831H410.212H410.222Z" fill="white"/>
<path d="M418.409 142.039C424.852 142.039 429.606 143.318 432.686 145.861C436.832 149.28 437.425 154.33 437.282 159.254C437.245 160.523 437.161 161.797 437.073 163.02C436.749 167.56 436.429 172.109 436.105 176.649C435.401 186.665 434.701 196.676 434.006 206.691C433.983 206.993 433.668 212.445 433.608 212.445H411.71C411.71 212.445 414.591 171.039 415.393 160.074C405.845 160.074 402.296 160.148 392.744 160.148L388.857 212.445H366.959L370.846 160.148H358.982L364.231 142.044H418.404M418.409 139.26H362.146L361.562 141.266L356.314 159.37L355.285 162.923H367.853L364.189 212.237L363.967 215.22H391.438L391.628 212.644L395.32 162.918C398.79 162.914 401.472 162.9 404.085 162.886C406.582 162.872 409.148 162.858 412.4 162.853C411.404 176.76 408.958 211.866 408.935 212.251L408.726 215.225H433.603C434.808 215.225 436.198 214.4 436.392 212.589C436.406 212.473 436.42 212.306 436.439 212.098C436.466 211.741 436.503 211.245 436.536 210.699C436.605 209.633 436.684 208.373 436.73 207.59C436.754 207.22 436.767 206.956 436.772 206.886L436.883 205.283C437.546 195.8 438.204 186.317 438.871 176.835L439.329 170.372L439.839 163.206C439.918 162.145 440.015 160.741 440.057 159.328C440.2 154.33 439.695 148.034 434.451 143.712C430.875 140.761 425.473 139.26 418.409 139.26Z" fill="#1D1D1B"/>
<path d="M219.891 213.831V204.107L204.571 213.831H190.391V192.948H197.993L246.769 162.095V161.534H194.592V140.65H249.215C255.034 140.65 259.717 141.985 263.131 144.607C266.661 147.321 268.449 151.398 268.449 156.721V173.273L236.67 193.448H271.915V213.827H219.895L219.891 213.831Z" fill="white"/>
<path d="M249.21 142.039C254.736 142.039 259.095 143.262 262.283 145.708C265.47 148.159 267.059 151.828 267.059 156.72V172.508L231.888 194.837H270.524V212.436H221.284V201.572L204.172 212.436H191.78V194.332H198.395L248.158 162.858V160.143H195.981V142.039H249.214M249.214 139.26H193.202V162.923H242.863L197.589 191.557H189V215.22H204.978L205.659 214.789L218.505 206.636V215.22H273.304V192.062H241.45L268.546 174.861L269.834 174.041V156.725C269.834 150.943 267.86 146.496 263.969 143.508C260.305 140.691 255.334 139.26 249.205 139.26H249.214Z" fill="#1D1D1B"/>
<path d="M189 215.222L193.633 219.854L195.022 218.465L193.633 215.222L190.39 213.832L189 215.222Z" fill="#1D1D1B"/>
<path d="M218.506 215.222L223.138 219.854L224.528 218.465L223.138 215.222L219.896 213.832L218.506 215.222Z" fill="#1D1D1B"/>
<path d="M193.633 219.854L198.265 224.486L199.655 223.096L198.265 219.854H193.633Z" fill="#6551F3"/>
<path d="M223.139 219.854L227.771 224.486L229.161 223.096L227.771 219.854H223.139Z" fill="#6551F3"/>
<path d="M198.266 224.486L202.898 229.119L205.015 226.946L202.898 224.486H198.266Z" fill="#9F93F8"/>
<path d="M227.775 224.486L232.408 229.119L234.525 226.946L232.408 224.486H227.775Z" fill="#9F93F8"/>
<path d="M363.971 215.221L368.603 219.853L370.104 219.283L369.933 215.221H363.971Z" fill="#1D1D1B"/>
<path d="M368.605 219.854L373.238 224.486H375.272V219.854H368.605Z" fill="#6551F3"/>
<path d="M373.236 224.486L377.869 229.119H379.787L380.023 224.486H373.236Z" fill="#9F93F8"/>
<path d="M408.734 215.221L413.367 219.853H415.053L414.692 215.221H408.734Z" fill="#1D1D1B"/>
<path d="M413.369 219.854L418.002 224.486H420.98V221.707V219.854H413.369Z" fill="#6551F3"/>
<path d="M418 224.486H424.032L422.633 229.119L418 224.486Z" fill="#9F93F8"/>
<path d="M359.012 191.559L363.645 196.191H357.164L359.012 191.559Z" fill="#1D1D1B"/>
<path d="M193.203 162.924L197.836 167.556H199.656L199.397 162.924H193.203Z" fill="#1D1D1B"/>
<path d="M197.834 167.557L202.467 172.189H203.759L204.477 167.557H197.834Z" fill="#6551F3"/>
<path d="M202.467 172.188L207.099 176.82H209.147V172.188H202.467Z" fill="#9F93F8"/>
</g>
</g>
<path d="M342.444 244.542C346.455 244.542 349.279 247.662 349.279 252.893C349.279 258.093 346.455 261.243 342.444 261.243C339.947 261.243 338.253 259.995 337.213 258.242V260.887H334.628V239.371H337.213V247.543C338.253 245.79 339.947 244.542 342.444 244.542ZM341.909 259.044C344.851 259.044 346.634 256.488 346.634 252.893C346.634 249.297 344.851 246.711 341.909 246.711C338.967 246.711 337.065 249.267 337.065 252.893C337.065 256.518 338.967 259.044 341.909 259.044ZM351.656 264.661H352.875C354.331 264.661 355.193 264.512 355.757 262.997L356.56 260.887L350.468 244.899H353.231L357.838 257.558L362.444 244.899H365.208L358.075 263.561C357.362 265.463 356.292 266.83 353.469 266.83H351.656V264.661ZM385.084 260.887C384.995 260.084 384.935 259.579 384.906 258.569C383.747 260.233 381.874 261.243 379.378 261.243C376.852 261.243 373.732 260.173 373.732 256.667C373.732 253.546 376.198 251.526 381.815 251.526H384.906V251.228C384.906 249.297 384.787 246.652 380.983 246.652C378.041 246.652 377.03 248.257 376.733 249.951H374.148C374.534 246.801 376.674 244.542 381.102 244.542C386.273 244.542 387.491 247.633 387.491 250.931V257.529C387.491 258.658 387.55 259.936 387.669 260.887H385.084ZM380.002 259.133C382.469 259.133 384.965 257.945 384.965 253.487H382.082C378.16 253.487 376.377 254.468 376.377 256.429C376.377 258.182 377.773 259.133 380.002 259.133ZM391.161 239.371H394.371V242.521H391.161V239.371ZM391.458 244.899H394.044V260.887H391.458V244.899ZM397.865 239.371H400.45V252.269L407.583 244.899H410.822L404.73 251.169L411.387 260.887H408.355L402.977 253.012L400.45 255.597V260.887H397.865V239.371ZM413.537 239.371H416.746V242.521H413.537V239.371ZM413.834 244.899H416.419V260.887H413.834V244.899ZM434.553 239.371V260.887H431.967V258.242C430.927 259.995 429.233 261.243 426.707 261.243C422.725 261.243 419.902 258.093 419.902 252.893C419.902 247.662 422.725 244.542 426.707 244.542C429.233 244.542 430.927 245.79 431.967 247.543V239.371H434.553ZM427.272 259.044C430.184 259.044 432.116 256.518 432.116 252.893C432.116 249.267 430.184 246.711 427.272 246.711C424.33 246.711 422.547 249.297 422.547 252.893C422.547 256.488 424.33 259.044 427.272 259.044ZM444.919 261.243C440.253 261.243 437.4 258.004 437.4 252.893C437.4 247.781 440.253 244.542 444.919 244.542C449.555 244.542 452.437 247.781 452.437 252.893C452.437 258.004 449.555 261.243 444.919 261.243ZM444.919 259.044C447.98 259.044 449.792 256.756 449.792 252.893C449.792 249.029 447.98 246.711 444.919 246.711C441.858 246.711 440.045 249.029 440.045 252.893C440.045 256.756 441.858 259.044 444.919 259.044Z" fill="white" fill-opacity="0.7"/>
</g>
<path d="M727.272 175.912H712.04V217H706.216V175.912H690.92V170.664H727.272V175.912ZM750.37 181.8C758.626 181.8 762.21 187.176 762.21 194.664V217H756.642V196.008C756.642 190.568 754.786 186.472 748.898 186.472C742.306 186.472 739.106 191.592 739.106 198.312V217H733.538V170.664H739.106V188.008C741.666 183.336 745.954 181.8 750.37 181.8ZM784.319 181.8C795.007 181.8 801.023 189.736 800.447 201.32H773.503C774.015 208.232 777.855 213.032 784.447 213.032C789.567 213.032 793.343 210.152 794.431 205.8H800.127C798.591 213.608 792.447 217.768 784.447 217.768C773.951 217.768 767.743 210.536 767.743 199.784C767.743 189.032 774.143 181.8 784.319 181.8ZM794.559 197.032C794.431 191.848 791.231 186.472 784.127 186.472C777.855 186.472 774.335 190.696 773.567 197.032H794.559ZM822.413 170.664H829.325V177.448H822.413V170.664ZM823.053 182.568H828.621V217H823.053V182.568ZM853.808 181.8C862.064 181.8 865.648 187.176 865.648 194.664V217H860.08V196.008C860.08 190.568 858.224 186.472 852.336 186.472C845.744 186.472 842.544 191.592 842.544 198.312V217H836.976V182.568H842.544V188.008C845.104 183.336 849.392 181.8 853.808 181.8ZM872.959 196.584H892.799V201.576H872.959V196.584ZM923.638 217C923.446 215.272 923.318 214.184 923.254 212.008C920.758 215.592 916.726 217.768 911.35 217.768C905.91 217.768 899.19 215.464 899.19 207.912C899.19 201.192 904.502 196.84 916.598 196.84H923.254V196.2C923.254 192.04 922.998 186.344 914.806 186.344C908.47 186.344 906.294 189.8 905.654 193.448H900.086C900.918 186.664 905.526 181.8 915.062 181.8C926.198 181.8 928.822 188.456 928.822 195.56V209.768C928.822 212.2 928.95 214.952 929.206 217H923.638ZM912.694 213.224C918.006 213.224 923.382 210.664 923.382 201.064H917.174C908.726 201.064 904.885 203.176 904.885 207.4C904.885 211.176 907.894 213.224 912.694 213.224ZM953.933 181.8C962.573 181.8 968.653 188.52 968.653 199.784C968.653 210.984 962.573 217.768 953.933 217.768C948.557 217.768 944.909 215.08 942.669 211.304V229.8H937.101V182.568H942.669V188.264C944.909 184.488 948.557 181.8 953.933 181.8ZM952.781 213.032C959.117 213.032 962.957 207.528 962.957 199.784C962.957 192.04 959.117 186.472 952.781 186.472C946.445 186.472 942.349 191.976 942.349 199.784C942.349 207.592 946.445 213.032 952.781 213.032ZM991.745 181.8C1000.39 181.8 1006.47 188.52 1006.47 199.784C1006.47 210.984 1000.39 217.768 991.745 217.768C986.369 217.768 982.721 215.08 980.481 211.304V229.8H974.913V182.568H980.481V188.264C982.721 184.488 986.369 181.8 991.745 181.8ZM990.593 213.032C996.929 213.032 1000.77 207.528 1000.77 199.784C1000.77 192.04 996.929 186.472 990.593 186.472C984.257 186.472 980.161 191.976 980.161 199.784C980.161 207.592 984.257 213.032 990.593 213.032ZM1030.14 179.88C1030.14 174.44 1031.93 170.664 1039.42 170.664H1043.2V175.208H1040.96C1036.73 175.208 1035.71 176.232 1035.71 180.072V182.568H1042.81V187.112H1035.71V217H1030.14V187.112H1025.15V182.568H1030.14V179.88ZM1055.23 170.664V177.448H1048.32V170.664H1055.23ZM1048.96 182.568H1054.53V217H1048.96V182.568ZM1077.76 182.184C1078.53 182.184 1079.23 182.248 1079.94 182.376V187.944C1079.17 187.816 1078.27 187.752 1077.51 187.752C1068.55 187.752 1068.42 196.072 1068.42 201.192V217H1062.85V182.568H1068.35V188.136C1070.27 184.36 1073.35 182.184 1077.76 182.184ZM1099.63 181.8C1110.32 181.8 1116.34 189.736 1115.76 201.32H1088.82C1089.33 208.232 1093.17 213.032 1099.76 213.032C1104.88 213.032 1108.66 210.152 1109.74 205.8H1115.44C1113.9 213.608 1107.76 217.768 1099.76 217.768C1089.26 217.768 1083.06 210.536 1083.06 199.784C1083.06 189.032 1089.46 181.8 1099.63 181.8ZM1109.87 197.032C1109.74 191.848 1106.54 186.472 1099.44 186.472C1093.17 186.472 1089.65 190.696 1088.88 197.032H1109.87ZM1118.97 182.568H1124.92L1131.83 208.552L1139.51 182.568H1144.89L1152.63 208.552L1159.55 182.568H1165.43L1155.39 217H1150.07L1142.2 190.44L1134.39 217H1129.02L1118.97 182.568ZM1193.08 217C1192.88 215.272 1192.76 214.184 1192.69 212.008C1190.2 215.592 1186.16 217.768 1180.79 217.768C1175.35 217.768 1168.63 215.464 1168.63 207.912C1168.63 201.192 1173.94 196.84 1186.04 196.84H1192.69V196.2C1192.69 192.04 1192.44 186.344 1184.24 186.344C1177.91 186.344 1175.73 189.8 1175.09 193.448H1169.52C1170.36 186.664 1174.96 181.8 1184.5 181.8C1195.64 181.8 1198.26 188.456 1198.26 195.56V209.768C1198.26 212.2 1198.39 214.952 1198.64 217H1193.08ZM1182.13 213.224C1187.44 213.224 1192.82 210.664 1192.82 201.064H1186.61C1178.16 201.064 1174.32 203.176 1174.32 207.4C1174.32 211.176 1177.33 213.224 1182.13 213.224ZM1206.67 170.664H1212.24V217H1206.67V170.664ZM1221.17 170.664H1226.74V217H1221.17V170.664ZM1263.21 175.208C1258.98 175.208 1257.96 176.232 1257.96 180.072V182.568H1265.06V187.112H1257.96V217H1252.39V187.112H1247.4V182.568H1252.39V179.88C1252.39 174.44 1254.18 170.664 1261.67 170.664H1265.45V175.208H1263.21ZM1283.31 217.768C1273.26 217.768 1267.12 210.792 1267.12 199.784C1267.12 188.776 1273.26 181.8 1283.31 181.8C1293.29 181.8 1299.5 188.776 1299.5 199.784C1299.5 210.792 1293.29 217.768 1283.31 217.768ZM1283.31 213.032C1289.9 213.032 1293.81 208.104 1293.81 199.784C1293.81 191.464 1289.9 186.472 1283.31 186.472C1276.72 186.472 1272.81 191.464 1272.81 199.784C1272.81 208.104 1276.72 213.032 1283.31 213.032ZM1320.51 182.184C1321.28 182.184 1321.98 182.248 1322.69 182.376V187.944C1321.92 187.816 1321.02 187.752 1320.26 187.752C1311.3 187.752 1311.17 196.072 1311.17 201.192V217H1305.6V182.568H1311.1V188.136C1313.02 184.36 1316.1 182.184 1320.51 182.184ZM1359.5 181.8C1368.14 181.8 1374.22 188.52 1374.22 199.784C1374.22 210.984 1368.14 217.768 1359.5 217.768C1354.12 217.768 1350.47 215.08 1348.23 211.304V229.8H1342.66V182.568H1348.23V188.264C1350.47 184.488 1354.12 181.8 1359.5 181.8ZM1358.34 213.032C1364.68 213.032 1368.52 207.528 1368.52 199.784C1368.52 192.04 1364.68 186.472 1358.34 186.472C1352.01 186.472 1347.91 191.976 1347.91 199.784C1347.91 207.592 1352.01 213.032 1358.34 213.032ZM1395.88 181.8C1406.57 181.8 1412.59 189.736 1412.01 201.32H1385.07C1385.58 208.232 1389.42 213.032 1396.01 213.032C1401.13 213.032 1404.91 210.152 1405.99 205.8H1411.69C1410.15 213.608 1404.01 217.768 1396.01 217.768C1385.51 217.768 1379.31 210.536 1379.31 199.784C1379.31 189.032 1385.71 181.8 1395.88 181.8ZM1406.12 197.032C1405.99 191.848 1402.79 186.472 1395.69 186.472C1389.42 186.472 1385.9 190.696 1385.13 197.032H1406.12ZM1441.26 217C1441.07 215.272 1440.94 214.184 1440.88 212.008C1438.38 215.592 1434.35 217.768 1428.97 217.768C1423.53 217.768 1416.81 215.464 1416.81 207.912C1416.81 201.192 1422.13 196.84 1434.22 196.84H1440.88V196.2C1440.88 192.04 1440.62 186.344 1432.43 186.344C1426.09 186.344 1423.92 189.8 1423.28 193.448H1417.71C1418.54 186.664 1423.15 181.8 1432.69 181.8C1443.82 181.8 1446.45 188.456 1446.45 195.56V209.768C1446.45 212.2 1446.57 214.952 1446.83 217H1441.26ZM1430.32 213.224C1435.63 213.224 1441.01 210.664 1441.01 201.064H1434.8C1426.35 201.064 1422.51 203.176 1422.51 207.4C1422.51 211.176 1425.52 213.224 1430.32 213.224ZM1468.62 217.768C1458.32 217.768 1452.37 210.536 1452.37 199.784C1452.37 189.032 1458.32 181.8 1468.62 181.8C1476.5 181.8 1482 186.024 1483.6 193.768H1477.84C1476.69 189.352 1473.55 186.472 1468.43 186.472C1461.26 186.472 1458.06 191.976 1458.06 199.784C1458.06 207.528 1461.26 213.032 1468.43 213.032C1473.74 213.032 1476.69 210.152 1477.84 205.8H1483.6C1482 213.544 1476.5 217.768 1468.62 217.768ZM1504.44 181.8C1515.13 181.8 1521.15 189.736 1520.57 201.32H1493.63C1494.14 208.232 1497.98 213.032 1504.57 213.032C1509.69 213.032 1513.47 210.152 1514.56 205.8H1520.25C1518.72 213.608 1512.57 217.768 1504.57 217.768C1494.08 217.768 1487.87 210.536 1487.87 199.784C1487.87 189.032 1494.27 181.8 1504.44 181.8ZM1514.68 197.032C1514.56 191.848 1511.36 186.472 1504.25 186.472C1497.98 186.472 1494.46 190.696 1493.69 197.032H1514.68ZM1556.81 217.768C1546.76 217.768 1540.62 210.792 1540.62 199.784C1540.62 188.776 1546.76 181.8 1556.81 181.8C1566.79 181.8 1573 188.776 1573 199.784C1573 210.792 1566.79 217.768 1556.81 217.768ZM1556.81 213.032C1563.4 213.032 1567.31 208.104 1567.31 199.784C1567.31 191.464 1563.4 186.472 1556.81 186.472C1550.22 186.472 1546.31 191.464 1546.31 199.784C1546.31 208.104 1550.22 213.032 1556.81 213.032ZM1591.58 175.208C1587.36 175.208 1586.34 176.232 1586.34 180.072V182.568H1593.44V187.112H1586.34V217H1580.77V187.112H1575.78V182.568H1580.77V179.88C1580.77 174.44 1582.56 170.664 1590.05 170.664H1593.82V175.208H1591.58ZM1650.86 181.8C1660.21 181.8 1662.38 189.224 1662.38 195.496V217H1656.81V195.432C1656.81 191.656 1655.79 186.472 1649.45 186.472C1642.61 186.472 1640.49 192.488 1640.49 197.736V217H1634.93V195.944C1634.93 191.784 1634.03 186.472 1627.69 186.472C1620.91 186.472 1618.61 192.488 1618.61 198.632V217H1613.04V182.568H1618.61V188.2C1620.72 184.04 1624.24 181.8 1629.29 181.8C1635.18 181.8 1638 184.872 1639.28 188.52C1641.77 184.232 1645.49 181.8 1650.86 181.8ZM1669.91 170.664H1676.83V177.448H1669.91V170.664ZM1670.55 182.568H1676.12V217H1670.55V182.568ZM1701.31 181.8C1709.56 181.8 1713.15 187.176 1713.15 194.664V217H1707.58V196.008C1707.58 190.568 1705.72 186.472 1699.84 186.472C1693.24 186.472 1690.04 191.592 1690.04 198.312V217H1684.48V182.568H1690.04V188.008C1692.6 183.336 1696.89 181.8 1701.31 181.8ZM1750.36 170.664V217H1744.79V211.304C1742.55 215.08 1738.9 217.768 1733.46 217.768C1724.89 217.768 1718.81 210.984 1718.81 199.784C1718.81 188.52 1724.89 181.8 1733.46 181.8C1738.9 181.8 1742.55 184.488 1744.79 188.264V170.664H1750.36ZM1734.68 213.032C1740.95 213.032 1745.11 207.592 1745.11 199.784C1745.11 191.976 1740.95 186.472 1734.68 186.472C1728.34 186.472 1724.5 192.04 1724.5 199.784C1724.5 207.528 1728.34 213.032 1734.68 213.032Z" fill="white"/>
<path d="M705.896 318.208C701.672 318.208 700.648 319.232 700.648 323.072V325.568H707.752V330.112H700.648V360H695.08V330.112H690.088V325.568H695.08V322.88C695.08 317.44 696.872 313.664 704.36 313.664H708.136V318.208H705.896ZM725.998 360.768C715.95 360.768 709.806 353.792 709.806 342.784C709.806 331.776 715.95 324.8 725.998 324.8C735.982 324.8 742.19 331.776 742.19 342.784C742.19 353.792 735.982 360.768 725.998 360.768ZM725.998 356.032C732.59 356.032 736.494 351.104 736.494 342.784C736.494 334.464 732.59 329.472 725.998 329.472C719.406 329.472 715.502 334.464 715.502 342.784C715.502 351.104 719.406 356.032 725.998 356.032ZM763.2 325.184C763.968 325.184 764.672 325.248 765.376 325.376V330.944C764.608 330.816 763.712 330.752 762.944 330.752C753.984 330.752 753.856 339.072 753.856 344.192V360H748.288V325.568H753.792V331.136C755.712 327.36 758.784 325.184 763.2 325.184Z" fill="white"/>
<rect x="810" y="283" width="104" height="104" rx="27.7333" fill="#80BD00"/>
<path d="M859.847 307.524C860.501 307.156 861.24 307 862 307C862.76 307 863.504 307.156 864.153 307.524L884.847 319.396C886.186 320.165 887 321.61 887 323.15V346.85C887 348.39 886.186 349.83 884.847 350.604L864.153 362.433C863.492 362.813 862.766 363 862 363C861.244 363 860.508 362.813 859.847 362.433L852.905 358.373C851.875 357.8 852.39 357.618 852.729 357.501C854.105 357.026 854.381 356.93 855.849 356.104C856.002 356.019 856.218 356.012 856.376 356.104L861.692 359.246C861.886 359.351 862.13 359.351 862.308 359.246L883.002 347.418C883.195 347.309 883.309 347.077 883.309 346.85V323.15C883.309 322.918 883.155 322.7 882.958 322.582L862.308 310.754C862.116 310.643 861.886 310.643 861.692 310.754L841.042 322.582C840.842 322.696 840.691 322.925 840.691 323.15V346.85C840.691 347.077 840.844 347.267 841.042 347.374L846.666 350.648C849.738 352.173 851.631 350.358 851.631 348.553V325.157C851.631 324.827 851.914 324.59 852.246 324.59H854.838C855.165 324.59 855.453 324.827 855.453 325.157V348.553C855.453 352.626 853.234 354.969 849.346 354.969L849.293 354.969C848.122 354.969 847.143 354.969 844.557 353.703L839.153 350.604C837.814 349.836 837 348.39 837 346.85V323.15C837 321.61 837.814 320.162 839.153 319.396L859.847 307.524Z" fill="#010024"/>
<path d="M858.134 330.57C858.134 326.427 861.643 323.936 867.536 323.936C874.158 323.936 877.446 326.239 877.861 331.138C877.877 331.307 877.798 331.448 877.685 331.574C877.571 331.692 877.411 331.792 877.246 331.792H874.566C874.288 331.792 874.051 331.579 873.995 331.312C873.352 328.468 871.782 327.558 867.536 327.558C862.782 327.558 862.264 329.207 862.264 330.439C862.264 331.932 862.875 332.345 869.294 333.189C875.645 334.023 878.696 335.214 878.696 339.649C878.696 344.123 874.919 346.676 868.371 346.676C859.325 346.676 857.431 342.585 857.431 339.125C857.431 338.796 857.715 338.514 858.046 338.514H860.726C861.025 338.514 861.25 338.748 861.297 339.038C861.7 341.741 862.902 343.097 868.371 343.097C872.724 343.097 874.566 342.118 874.566 339.823C874.566 338.5 874.039 337.513 867.272 336.855C861.617 336.299 858.134 335.065 858.134 330.57Z" fill="#010024"/>
<path d="M980.624 313.664V360H973.072L949.008 321.216V360H943.184V313.664H950.8L974.8 352.384V313.664H980.624ZM1004.37 360.768C994.325 360.768 988.181 353.792 988.181 342.784C988.181 331.776 994.325 324.8 1004.37 324.8C1014.36 324.8 1020.56 331.776 1020.56 342.784C1020.56 353.792 1014.36 360.768 1004.37 360.768ZM1004.37 356.032C1010.96 356.032 1014.87 351.104 1014.87 342.784C1014.87 334.464 1010.96 329.472 1004.37 329.472C997.781 329.472 993.877 334.464 993.877 342.784C993.877 351.104 997.781 356.032 1004.37 356.032ZM1057.17 313.664V360H1051.61V354.304C1049.37 358.08 1045.72 360.768 1040.28 360.768C1031.7 360.768 1025.62 353.984 1025.62 342.784C1025.62 331.52 1031.7 324.8 1040.28 324.8C1045.72 324.8 1049.37 327.488 1051.61 331.264V313.664H1057.17ZM1041.49 356.032C1047.77 356.032 1051.93 350.592 1051.93 342.784C1051.93 334.976 1047.77 329.472 1041.49 329.472C1035.16 329.472 1031.32 335.04 1031.32 342.784C1031.32 350.528 1035.16 356.032 1041.49 356.032ZM1079.88 324.8C1090.57 324.8 1096.59 332.736 1096.01 344.32H1069.07C1069.58 351.232 1073.42 356.032 1080.01 356.032C1085.13 356.032 1088.91 353.152 1089.99 348.8H1095.69C1094.15 356.608 1088.01 360.768 1080.01 360.768C1069.51 360.768 1063.31 353.536 1063.31 342.784C1063.31 332.032 1069.71 324.8 1079.88 324.8ZM1090.12 340.032C1089.99 334.848 1086.79 329.472 1079.69 329.472C1073.42 329.472 1069.9 333.696 1069.13 340.032H1090.12ZM1101.9 352.704H1109.07V360H1101.9V352.704ZM1115.76 313.664H1122.61V320.448H1115.76V313.664ZM1110.7 368.256H1111.79C1114.8 368.256 1116.4 368 1116.4 364.16V325.568H1121.97V364.864C1121.97 370.944 1118.7 372.8 1113.2 372.8H1110.7V368.256ZM1143.77 360.768C1133.92 360.768 1128.86 355.456 1128.22 348.928H1133.79C1134.75 352.576 1137.18 356.16 1143.84 356.16C1149.98 356.16 1152.16 353.088 1152.16 350.528C1152.16 346.688 1147.61 345.728 1142.62 344.768C1137.24 343.68 1128.99 342.08 1128.99 334.592C1128.99 328.32 1135 324.8 1142.49 324.8C1151.9 324.8 1156.38 330.24 1157.02 335.296H1151.39C1150.62 332.8 1148.7 329.408 1142.3 329.408C1136.99 329.408 1134.62 331.776 1134.62 334.4C1134.62 338.112 1139.48 339.136 1144.6 340.224C1151.2 341.568 1157.79 343.296 1157.79 349.952C1157.79 355.328 1153.69 360.768 1143.77 360.768Z" fill="white"/>
<path d="M584.592 342.792L590.016 338.472C591.744 337.096 592.608 335.656 592.608 334.152V333.912C592.608 333.304 592.384 332.792 591.936 332.376C591.52 331.928 590.896 331.704 590.064 331.704C589.232 331.704 588.56 331.944 588.048 332.424C587.568 332.872 587.168 333.512 586.848 334.344L584.304 333.288C584.656 332.2 585.312 331.256 586.272 330.456C587.264 329.624 588.608 329.208 590.304 329.208C592.128 329.208 593.488 329.672 594.384 330.6C595.312 331.496 595.776 332.584 595.776 333.864C595.776 335.208 595.344 336.392 594.48 337.416C593.648 338.44 592.64 339.416 591.456 340.344L587.76 343.176H596.4V345.576H584.592V342.792Z" fill="#6551F3"/>
<path d="M590.064 494.864C588.4 494.864 587.104 494.528 586.176 493.856C585.248 493.152 584.528 492.352 584.016 491.456L586.272 489.872C586.656 490.608 587.12 491.216 587.664 491.696C588.24 492.176 589.04 492.416 590.064 492.416C590.992 492.416 591.712 492.208 592.224 491.792C592.768 491.344 593.04 490.752 593.04 490.016V489.68C593.04 488.944 592.752 488.4 592.176 488.048C591.6 487.664 590.784 487.472 589.728 487.472H588.048V485.072H589.728C590.752 485.072 591.504 484.88 591.984 484.496C592.496 484.112 592.752 483.648 592.752 483.104V482.768C592.752 482.128 592.512 481.616 592.032 481.232C591.552 480.848 590.896 480.656 590.064 480.656C588.56 480.656 587.408 481.312 586.608 482.624L584.592 480.992C585.168 480.16 585.888 479.488 586.752 478.976C587.616 478.464 588.752 478.208 590.16 478.208C591.888 478.208 593.264 478.592 594.288 479.36C595.312 480.096 595.824 481.104 595.824 482.384C595.824 483.44 595.488 484.288 594.816 484.928C594.176 485.536 593.392 485.92 592.464 486.08V486.272C593.488 486.432 594.352 486.832 595.056 487.472C595.76 488.112 596.112 488.992 596.112 490.112C596.112 491.552 595.552 492.704 594.432 493.568C593.344 494.432 591.888 494.864 590.064 494.864Z" fill="#6551F3"/>
<path d="M585.072 194.176H589.584V183.136L585.312 185.296L584.16 183.184L589.344 180.496H592.608V194.176H596.592V196.576H585.072V194.176Z" fill="#6551F3"/>
<path d="M721.256 514.296L734.76 500.856H694.12V468.664H699.432V495.928H734.76L721.256 482.424L724.84 478.84L744.36 498.36L724.84 517.88L721.256 514.296Z" fill="white"/>
<path d="M1764.2 519C1764.01 517.272 1763.88 516.184 1763.82 514.008C1761.32 517.592 1757.29 519.768 1751.91 519.768C1746.47 519.768 1739.75 517.464 1739.75 509.912C1739.75 503.192 1745.06 498.84 1757.16 498.84H1763.82V498.2C1763.82 494.04 1763.56 488.344 1755.37 488.344C1749.03 488.344 1746.86 491.8 1746.22 495.448H1740.65C1741.48 488.664 1746.09 483.8 1755.62 483.8C1766.76 483.8 1769.38 490.456 1769.38 497.56V511.768C1769.38 514.2 1769.51 516.952 1769.77 519H1764.2ZM1753.26 515.224C1758.57 515.224 1763.94 512.664 1763.94 503.064H1757.74C1749.29 503.064 1745.45 505.176 1745.45 509.4C1745.45 513.176 1748.46 515.224 1753.26 515.224ZM1777.29 472.664H1784.2V479.448H1777.29V472.664ZM1777.93 484.568H1783.5V519H1777.93V484.568ZM1791.73 472.664H1797.29V500.44L1812.65 484.568H1819.63L1806.51 498.072L1820.85 519H1814.32L1802.73 502.04L1797.29 507.608V519H1791.73V472.664ZM1825.48 472.664H1832.39V479.448H1825.48V472.664ZM1826.12 484.568H1831.68V519H1826.12V484.568ZM1870.74 472.664V519H1865.17V513.304C1862.93 517.08 1859.28 519.768 1853.84 519.768C1845.26 519.768 1839.18 512.984 1839.18 501.784C1839.18 490.52 1845.26 483.8 1853.84 483.8C1859.28 483.8 1862.93 486.488 1865.17 490.264V472.664H1870.74ZM1855.06 515.032C1861.33 515.032 1865.49 509.592 1865.49 501.784C1865.49 493.976 1861.33 488.472 1855.06 488.472C1848.72 488.472 1844.88 494.04 1844.88 501.784C1844.88 509.528 1848.72 515.032 1855.06 515.032ZM1893.06 519.768C1883.01 519.768 1876.87 512.792 1876.87 501.784C1876.87 490.776 1883.01 483.8 1893.06 483.8C1903.04 483.8 1909.25 490.776 1909.25 501.784C1909.25 512.792 1903.04 519.768 1893.06 519.768ZM1893.06 515.032C1899.65 515.032 1903.56 510.104 1903.56 501.784C1903.56 493.464 1899.65 488.472 1893.06 488.472C1886.47 488.472 1882.56 493.464 1882.56 501.784C1882.56 510.104 1886.47 515.032 1893.06 515.032ZM1914.27 511.704H1921.44V519H1914.27V511.704ZM1958.3 472.664V519H1952.73V513.304C1950.49 517.08 1946.84 519.768 1941.4 519.768C1932.83 519.768 1926.75 512.984 1926.75 501.784C1926.75 490.52 1932.83 483.8 1941.4 483.8C1946.84 483.8 1950.49 486.488 1952.73 490.264V472.664H1958.3ZM1942.62 515.032C1948.89 515.032 1953.05 509.592 1953.05 501.784C1953.05 493.976 1948.89 488.472 1942.62 488.472C1936.28 488.472 1932.44 494.04 1932.44 501.784C1932.44 509.528 1936.28 515.032 1942.62 515.032ZM1981.01 483.8C1991.69 483.8 1997.71 491.736 1997.13 503.32H1970.19C1970.7 510.232 1974.54 515.032 1981.13 515.032C1986.25 515.032 1990.03 512.152 1991.12 507.8H1996.81C1995.28 515.608 1989.13 519.768 1981.13 519.768C1970.64 519.768 1964.43 512.536 1964.43 501.784C1964.43 491.032 1970.83 483.8 1981.01 483.8ZM1991.25 499.032C1991.12 493.848 1987.92 488.472 1980.81 488.472C1974.54 488.472 1971.02 492.696 1970.25 499.032H1991.25ZM2000.02 484.568H2006.1L2015.7 512.152L2025.3 484.568H2031.32L2018.58 519H2012.76L2000.02 484.568ZM2050.41 472.664H2056.17L2037.48 519H2031.72L2050.41 472.664ZM2084.21 514.264V519H2056.37V514.328L2076.79 489.24H2057.65V484.568H2083.63V489.176L2063.28 514.264H2084.21ZM2104.69 483.8C2115.38 483.8 2121.4 491.736 2120.82 503.32H2093.88C2094.39 510.232 2098.23 515.032 2104.82 515.032C2109.94 515.032 2113.72 512.152 2114.81 507.8H2120.5C2118.97 515.608 2112.82 519.768 2104.82 519.768C2094.33 519.768 2088.12 512.536 2088.12 501.784C2088.12 491.032 2094.52 483.8 2104.69 483.8ZM2114.93 499.032C2114.81 493.848 2111.61 488.472 2104.5 488.472C2098.23 488.472 2094.71 492.696 2093.94 499.032H2114.93ZM2144.37 483.8C2152.63 483.8 2156.21 489.176 2156.21 496.664V519H2150.64V498.008C2150.64 492.568 2148.79 488.472 2142.9 488.472C2136.31 488.472 2133.11 493.592 2133.11 500.312V519H2127.54V484.568H2133.11V490.008C2135.67 485.336 2139.95 483.8 2144.37 483.8Z" fill="white" fill-opacity="0.8"/>
<g clip-path="url(#clip2_4053_13356)">
<rect x="32.5" y="32.5" width="2215" height="625" rx="31.5" fill="#141031" stroke="#3D3192"/>
<g opacity="0.4" filter="url(#filter1_f_4053_13356)">
<ellipse cx="1140" cy="345" rx="506" ry="262" fill="#6551F3"/>
</g>
<circle cx="1139.52" cy="344.515" r="119.145" fill="white" fill-opacity="0.01" stroke="#A397F8" stroke-width="0.614783"/>
<circle cx="1139.51" cy="344.508" r="238.905" fill="white" fill-opacity="0.01"/>
<circle cx="1139.51" cy="344.508" r="238.597" stroke="#A397F8" stroke-opacity="0.9" stroke-width="0.614783"/>
<circle cx="1139.54" cy="344.539" r="358.357" fill="white" fill-opacity="0.01"/>
<circle cx="1139.54" cy="344.539" r="358.05" stroke="#A397F8" stroke-opacity="0.8" stroke-width="0.614783"/>
<circle cx="1139.53" cy="344.532" r="477.81" fill="white" fill-opacity="0.01"/>
<circle cx="1139.53" cy="344.532" r="477.502" stroke="#A397F8" stroke-opacity="0.7" stroke-width="0.614783"/>
<circle cx="1139.52" cy="344.524" r="597.262" fill="white" fill-opacity="0.01"/>
<circle cx="1139.52" cy="344.524" r="596.954" stroke="#A397F8" stroke-opacity="0.6" stroke-width="0.614783"/>
<circle cx="1139.52" cy="344.517" r="716.714" fill="white" fill-opacity="0.01"/>
<circle cx="1139.52" cy="344.517" r="716.407" stroke="#A397F8" stroke-opacity="0.5" stroke-width="0.614783"/>
<circle cx="1139.51" cy="344.508" r="836.167" fill="white" fill-opacity="0.01"/>
<circle cx="1139.51" cy="344.508" r="835.859" stroke="#A397F8" stroke-opacity="0.4" stroke-width="0.614783"/>
<circle cx="1139.54" cy="344.539" r="955.619" fill="white" fill-opacity="0.01"/>
<circle cx="1139.54" cy="344.539" r="955.312" stroke="#A397F8" stroke-opacity="0.3" stroke-width="0.614783"/>
<circle cx="1139.53" cy="344.532" r="1075.07" fill="white" fill-opacity="0.01"/>
<circle cx="1139.53" cy="344.532" r="1074.76" stroke="#A397F8" stroke-opacity="0.2" stroke-width="0.614783"/>
<circle cx="1139.52" cy="344.524" r="1194.52" fill="white" fill-opacity="0.01"/>
<circle cx="1139.52" cy="344.524" r="1194.22" stroke="#A397F8" stroke-opacity="0.1" stroke-width="0.614783"/>
<g clip-path="url(#clip3_4053_13356)">
<mask id="mask1_4053_13356" style="mask-type:luminance" maskUnits="userSpaceOnUse" x="189" y="139" width="265" height="91">
<path d="M453.983 139.26H189V229.118H453.983V139.26Z" fill="white"/>
</mask>
<g mask="url(#mask1_4053_13356)">
<path d="M309.364 227.73C302.624 227.73 297.519 226.335 294.202 223.588C290.801 220.776 289.078 216.593 289.078 211.154V172.032C289.078 165.922 290.806 161.414 294.211 158.635C297.579 155.888 302.985 154.549 310.735 154.549H350.316C357.056 154.549 362.162 155.943 365.483 158.69C368.883 161.502 370.607 165.686 370.607 171.124V200.073H310.763V206.846H371.07L365.015 227.73H309.373H309.364ZM348.922 182.205V175.432H310.754V182.205H348.922Z" fill="#9F93F8"/>
<path d="M350.313 155.937C356.756 155.937 361.509 157.206 364.59 159.759C367.671 162.311 369.209 166.096 369.209 171.123V198.682H309.365V208.234H369.209L363.96 226.338H309.365C302.926 226.338 298.168 225.069 295.088 222.516C292.007 219.964 290.469 216.179 290.469 211.153V172.031C290.469 166.333 292.007 162.223 295.088 159.713C298.168 157.197 303.38 155.942 310.732 155.942H350.313M309.365 183.598H350.313V174.046H309.365V183.598ZM350.313 153.162H310.732C302.648 153.162 296.959 154.598 293.332 157.558C289.589 160.611 287.689 165.48 287.689 172.031V211.153C287.689 217.027 289.584 221.571 293.318 224.661C296.945 227.663 302.194 229.122 309.37 229.122H366.054L366.638 227.117L371.886 209.012L372.915 205.459H312.149V201.466H371.993V171.127C371.993 165.253 370.098 160.709 366.364 157.623C362.737 154.621 357.488 153.162 350.313 153.162ZM312.145 176.825H347.533V180.819H312.145V176.825Z" fill="#9F93F8"/>
<path d="M424.122 227.73L424.224 226.243C424.252 225.844 426.883 188.033 427.801 175.358C423.812 175.358 420.852 175.377 417.984 175.395C415.061 175.414 412.045 175.428 407.936 175.432L404.05 227.73H379.363L383.249 175.432H371.033L377.088 154.549H432.308C439.039 154.549 444.144 155.943 447.471 158.69C452.251 162.633 452.71 168.511 452.571 173.195C452.529 174.562 452.441 175.896 452.358 177.021L451.39 190.646C450.723 200.138 450.06 209.63 449.398 219.122L449.287 220.688C449.282 220.753 449.268 221.017 449.24 221.401C449.194 222.18 449.115 223.44 449.046 224.505C449.009 225.043 448.976 225.534 448.948 225.886C448.902 226.483 448.8 227.73 447.503 227.73H424.113H424.122Z" fill="#9F93F8"/>
<path d="M432.308 155.938C438.752 155.938 443.505 157.216 446.585 159.76C450.731 163.178 451.324 168.228 451.181 173.152C451.144 174.422 451.06 175.696 450.972 176.919C450.648 181.459 450.328 186.008 450.004 190.548C449.3 200.563 448.6 210.574 447.906 220.59C447.882 220.891 447.567 226.344 447.507 226.344H425.609C425.609 226.344 428.49 184.938 429.292 173.972C419.744 173.972 416.196 174.046 406.643 174.046L402.757 226.344H380.858L384.745 174.046H372.881L378.13 155.942H432.303M432.303 153.163H376.041L375.457 155.169L370.208 173.273L369.18 176.826H381.748L378.083 226.14L377.861 229.123H405.332L405.522 226.547L409.214 176.821C412.684 176.817 415.366 176.803 417.979 176.789C420.476 176.775 423.043 176.761 426.295 176.757C425.299 190.664 422.853 225.769 422.83 226.154L422.621 229.128H447.498C448.702 229.128 450.092 228.303 450.287 226.492C450.301 226.376 450.315 226.209 450.333 226.001C450.361 225.644 450.398 225.148 450.43 224.602C450.5 223.536 450.579 222.276 450.625 221.493C450.648 221.123 450.662 220.859 450.667 220.789L450.778 219.186C451.44 209.703 452.098 200.221 452.765 190.738L453.224 184.275L453.733 177.109C453.812 176.048 453.909 174.644 453.951 173.231C454.095 168.233 453.59 161.937 448.346 157.615C444.76 154.659 439.363 153.158 432.298 153.158L432.303 153.163Z" fill="#9F93F8"/>
<path d="M233.788 227.73V218.006L218.468 227.73H204.283V206.846H211.885L260.662 175.993V175.432H208.49V154.549H263.112C268.931 154.549 273.614 155.883 277.028 158.505C280.558 161.22 282.347 165.296 282.347 170.619V187.171L250.567 207.346H285.812V227.725H233.793L233.788 227.73Z" fill="#9F93F8"/>
<path d="M263.105 155.937C268.632 155.937 272.991 157.16 276.179 159.606C279.366 162.056 280.955 165.725 280.955 170.617V186.405L245.784 208.734H284.42V226.333H235.18V215.47L218.067 226.333H205.68V208.229H212.295L262.063 176.751V174.036H209.877V155.932H263.11M263.11 153.152H207.098V176.816H256.759L211.489 205.449H202.9V229.113H218.878L219.559 228.682L232.405 220.528V229.113H287.204V205.954H255.35L282.446 188.754L283.734 187.934V170.617C283.734 164.836 281.761 160.388 277.869 157.4C274.205 154.584 269.234 153.152 263.105 153.152H263.11Z" fill="#9F93F8"/>
<path d="M304.733 223.097C297.993 223.097 292.888 221.702 289.571 218.955C286.171 216.143 284.447 211.96 284.447 206.521V167.399C284.447 161.289 286.175 156.781 289.58 154.002C292.948 151.255 298.354 149.916 306.105 149.916H345.685C352.426 149.916 357.531 151.31 360.852 154.058C364.253 156.87 365.976 161.053 365.976 166.491V195.44H306.132V202.213H366.439L360.384 223.097H304.743H304.733ZM344.291 177.572V170.8H306.123V177.572H344.291Z" fill="#6551F3"/>
<path d="M345.678 151.305C352.122 151.305 356.875 152.574 359.955 155.127C363.036 157.679 364.574 161.464 364.574 166.491V194.05H304.73V203.602H364.574L359.325 221.706H304.73C298.291 221.706 293.534 220.437 290.453 217.884C287.372 215.332 285.834 211.547 285.834 206.521V167.398C285.834 161.7 287.372 157.591 290.453 155.08C293.534 152.565 298.745 151.31 306.097 151.31H345.678M304.73 178.966H345.678V169.414H304.73V178.966ZM345.678 148.53H306.097C298.013 148.53 292.324 149.966 288.697 152.926C284.954 155.979 283.055 160.848 283.055 167.398V206.521C283.055 212.395 284.949 216.939 288.683 220.029C292.311 223.031 297.559 224.49 304.735 224.49H361.419L362.003 222.484L367.252 204.38L368.28 200.827H307.515V196.834H367.358V166.491C367.358 160.616 365.464 156.072 361.73 152.987C358.102 149.985 352.854 148.525 345.678 148.525V148.53ZM307.51 172.193H342.898V176.186H307.51V172.193Z" fill="#6551F3"/>
<path d="M419.488 223.097L419.59 221.61C419.617 221.211 422.249 183.4 423.166 170.726C419.177 170.726 416.217 170.744 413.35 170.763C410.426 170.781 407.411 170.795 403.302 170.8L399.415 223.097H374.728L378.615 170.8H366.398L372.453 149.916H427.673C434.405 149.916 439.51 151.31 442.836 154.058C447.617 158 448.075 163.879 447.936 168.562C447.895 169.929 447.807 171.263 447.723 172.389L446.755 186.013C446.088 195.505 445.425 204.997 444.763 214.489L444.652 216.055C444.647 216.12 444.633 216.384 444.606 216.769C444.559 217.547 444.48 218.807 444.411 219.872C444.374 220.41 444.341 220.901 444.314 221.253C444.267 221.851 444.165 223.097 442.868 223.097H419.478H419.488Z" fill="#6551F3"/>
<path d="M427.677 151.305C434.121 151.305 438.874 152.584 441.954 155.127C446.101 158.546 446.694 163.595 446.55 168.52C446.513 169.789 446.43 171.063 446.342 172.286C446.017 176.826 445.698 181.375 445.373 185.915C444.669 195.93 443.97 205.941 443.275 215.957C443.252 216.258 442.937 221.711 442.876 221.711H420.978C420.978 221.711 423.86 180.305 424.661 169.34C415.113 169.34 411.565 169.414 402.012 169.414L398.126 221.711H376.228L380.114 169.414H368.25L373.499 151.31H427.672M427.672 148.53H371.41L370.826 150.536L365.577 168.64L364.549 172.193H377.117L373.453 221.507L373.23 224.49H400.701L400.891 221.915L404.584 172.189C408.053 172.184 410.736 172.17 413.348 172.156C415.845 172.142 418.412 172.128 421.664 172.124C420.668 186.031 418.222 221.136 418.199 221.521L417.99 224.495H442.867C444.072 224.495 445.461 223.67 445.656 221.859C445.67 221.743 445.684 221.576 445.702 221.368C445.73 221.011 445.767 220.516 445.799 219.969C445.869 218.903 445.948 217.643 445.994 216.86C446.017 216.49 446.031 216.226 446.036 216.156L446.147 214.553C446.809 205.071 447.467 195.588 448.134 186.105L448.593 179.642L449.103 172.476C449.181 171.415 449.279 170.011 449.32 168.598C449.464 163.6 448.959 157.304 443.715 152.982C440.129 150.026 434.732 148.525 427.668 148.525L427.672 148.53Z" fill="#6551F3"/>
<path d="M229.155 223.097V213.373L213.835 223.097H199.65V202.213H207.252L256.029 171.36V170.8H203.857V149.916H258.479C264.298 149.916 268.981 151.25 272.396 153.872C275.926 156.587 277.714 160.664 277.714 165.986V182.539L245.934 202.713H281.179V223.092H229.16L229.155 223.097Z" fill="#6551F3"/>
<path d="M258.475 151.305C264.001 151.305 268.36 152.528 271.548 154.974C274.735 157.425 276.324 161.094 276.324 165.986V181.773L241.153 204.102H279.789V221.702H230.549V210.838L213.437 221.702H201.049V203.597H207.664L257.432 172.119V169.404H205.246V151.305H258.479M258.479 148.525H202.467V172.189H252.128L206.858 200.822H198.27V224.486H214.247L214.928 224.055L227.774 215.902V224.486H282.573V201.327H250.72L277.816 184.127L279.103 183.307V165.99C279.103 160.209 277.13 155.761 273.239 152.773C269.574 149.957 264.603 148.525 258.475 148.525H258.479Z" fill="#6551F3"/>
<path d="M368.275 200.824L363.642 196.191L362.299 200.824H368.275Z" fill="#6551F3"/>
<path d="M273.302 192.062L277.935 196.695L272.77 196.737L273.302 192.062Z" fill="#1D1D1B"/>
<path d="M300.099 218.464C293.358 218.464 288.253 217.07 284.936 214.322C281.536 211.51 279.812 207.327 279.812 201.889V162.767C279.812 156.656 281.54 152.149 284.945 149.369C288.313 146.622 293.719 145.283 301.47 145.283H341.05C347.791 145.283 352.896 146.678 356.218 149.425C359.618 152.237 361.341 156.42 361.341 161.859V190.807H301.498V197.58H361.804L355.75 218.464H300.108H300.099ZM339.656 172.94V166.167H301.488V172.94H339.656Z" fill="#1D1D1B"/>
<path d="M341.047 146.672C347.491 146.672 352.244 147.941 355.325 150.494C358.405 153.047 359.943 156.831 359.943 161.858V189.417H300.1V198.969H359.943L354.694 217.073H300.1C293.66 217.073 288.903 215.804 285.822 213.251C282.741 210.699 281.203 206.914 281.203 201.888V162.766C281.203 157.068 282.741 152.959 285.822 150.448C288.903 147.932 294.114 146.677 301.466 146.677H341.047M300.1 174.333H341.047V164.781H300.1V174.333ZM341.047 143.893H301.466C293.382 143.893 287.694 145.329 284.066 148.289C280.323 151.342 278.424 156.211 278.424 162.761V201.883C278.424 207.757 280.319 212.302 284.052 215.392C287.68 218.394 292.928 219.853 300.104 219.853H356.788L357.372 217.847L362.621 199.743L363.649 196.19H302.884V192.196H362.727V161.858C362.727 155.984 360.833 151.439 357.099 148.354C353.471 145.352 348.223 143.893 341.047 143.893ZM302.879 167.556H338.267V171.549H302.879V167.556Z" fill="#1D1D1B"/>
<path d="M414.857 218.464L414.959 216.977C414.987 216.578 417.618 178.767 418.535 166.093C414.546 166.093 411.586 166.111 408.719 166.13C405.796 166.148 402.78 166.162 398.671 166.167L394.784 218.464H370.097L373.984 166.167H361.768L367.822 145.283H423.043C429.774 145.283 434.879 146.678 438.205 149.425C442.986 153.367 443.444 159.246 443.305 163.929C443.264 165.296 443.176 166.63 443.092 167.756L442.124 181.38C441.457 190.872 440.795 200.364 440.132 209.857L440.021 211.422C440.016 211.487 440.002 211.751 439.975 212.136C439.928 212.914 439.85 214.174 439.78 215.24C439.743 215.777 439.711 216.268 439.683 216.62C439.636 217.218 439.535 218.464 438.237 218.464H414.848H414.857Z" fill="#1D1D1B"/>
<path d="M423.042 146.672C429.486 146.672 434.239 147.951 437.32 150.494C441.466 153.913 442.059 158.962 441.915 163.887C441.878 165.156 441.795 166.43 441.707 167.653C441.382 172.193 441.063 176.742 440.739 181.282C440.034 191.298 439.335 201.309 438.64 211.324C438.617 211.625 438.302 217.078 438.242 217.078H416.343C416.343 217.078 419.225 175.672 420.026 164.707C410.479 164.707 406.93 164.781 397.378 164.781L393.491 217.078H371.593L375.479 164.781H363.615L368.864 146.677H423.037M423.037 143.897H366.775L366.191 145.903L360.942 164.007L359.914 167.56H372.482L368.818 216.874L368.595 219.857H396.067L396.257 217.282L399.949 167.556C403.419 167.551 406.101 167.537 408.714 167.523C411.211 167.509 413.777 167.496 417.029 167.491C416.033 181.398 413.587 216.504 413.564 216.888L413.355 219.862H438.232C439.437 219.862 440.827 219.038 441.021 217.226C441.035 217.11 441.049 216.944 441.067 216.735C441.095 216.378 441.132 215.883 441.165 215.336C441.234 214.271 441.313 213.011 441.359 212.228C441.382 211.857 441.396 211.593 441.401 211.523L441.512 209.921C442.175 200.438 442.832 190.955 443.5 181.472L443.958 175.01L444.468 167.843C444.547 166.782 444.644 165.378 444.686 163.966C444.829 158.967 444.324 152.671 439.08 148.349C435.494 145.394 430.098 143.893 423.033 143.893L423.037 143.897Z" fill="#1D1D1B"/>
<path d="M224.522 218.464V208.74L209.202 218.464H195.021V197.58H202.624L251.4 166.727V166.167H199.223V145.283H253.846C259.664 145.283 264.348 146.617 267.762 149.239C271.292 151.954 273.08 156.031 273.08 161.354V177.906L241.301 198.081H276.545V218.459H224.526L224.522 218.464Z" fill="#1D1D1B"/>
<path d="M253.842 146.672C259.369 146.672 263.728 147.895 266.915 150.341C270.103 152.792 271.692 156.461 271.692 161.353V177.141L236.521 199.47H275.157V217.069H225.917V206.205L208.804 217.069H196.417V198.965H203.032L252.8 167.486V164.772H200.614V146.672H253.847M253.847 143.893H197.835V167.556H247.496L202.222 196.19H193.633V219.853H209.611L210.292 219.422L223.138 211.269V219.853H277.936V196.695H246.083L273.179 179.494L274.467 178.674V161.357C274.467 155.576 272.493 151.129 268.602 148.141C264.937 145.324 259.967 143.893 253.838 143.893H253.847Z" fill="#1D1D1B"/>
<path d="M295.468 213.831C288.727 213.831 283.622 212.437 280.305 209.69C276.905 206.878 275.182 202.694 275.182 197.256V158.134C275.182 152.023 276.91 147.516 280.315 144.736C283.682 141.989 289.089 140.65 296.839 140.65H336.42C343.16 140.65 348.265 142.045 351.587 144.792C354.987 147.604 356.71 151.787 356.71 157.226V186.175H296.867V192.948H357.174L351.119 213.831H295.477H295.468ZM335.025 168.307V161.534H296.857V168.307H335.025Z" fill="white"/>
<path d="M336.413 142.039C342.857 142.039 347.61 143.309 350.69 145.861C353.771 148.414 355.309 152.199 355.309 157.225V184.784H295.466V194.336H355.309L350.06 212.441H295.466C289.026 212.441 284.269 211.171 281.188 208.619C278.107 206.066 276.569 202.281 276.569 197.255V158.133C276.569 152.435 278.107 148.326 281.188 145.815C284.269 143.299 289.48 142.044 296.832 142.044H336.413M295.466 169.7H336.413V160.148H295.466V169.7ZM336.413 139.26H296.832C288.748 139.26 283.055 140.7 279.428 143.656C275.685 146.709 273.785 151.578 273.785 158.128V197.25C273.785 203.124 275.68 207.669 279.414 210.759C283.041 213.761 288.29 215.22 295.466 215.22H352.15L352.733 213.214L357.982 195.11L359.011 191.557H298.245V187.564H358.089V157.225C358.089 151.351 356.194 146.806 352.46 143.721C348.837 140.719 343.584 139.26 336.413 139.26ZM298.245 162.923H333.633V166.916H298.245V162.923Z" fill="#1D1D1B"/>
<path d="M410.222 213.831L410.324 212.344C410.352 211.946 412.983 174.135 413.9 161.46C409.912 161.46 406.951 161.478 404.084 161.497C401.161 161.515 398.145 161.529 394.036 161.534L390.149 213.831H365.462L369.348 161.534H357.133L363.188 140.65H418.407C425.139 140.65 430.244 142.045 433.57 144.792C438.351 148.734 438.81 154.613 438.671 159.296C438.629 160.663 438.541 161.997 438.457 163.123L437.489 176.747C436.822 186.24 436.159 195.732 435.497 205.224L435.386 206.79C435.381 206.854 435.368 207.119 435.34 207.503C435.294 208.281 435.215 209.541 435.145 210.607C435.108 211.144 435.076 211.635 435.048 211.987C435.001 212.585 434.9 213.831 433.603 213.831H410.212H410.222Z" fill="white"/>
<path d="M418.409 142.039C424.852 142.039 429.606 143.318 432.686 145.861C436.832 149.28 437.425 154.33 437.282 159.254C437.245 160.523 437.161 161.797 437.073 163.02C436.749 167.56 436.429 172.109 436.105 176.649C435.401 186.665 434.701 196.676 434.006 206.691C433.983 206.993 433.668 212.445 433.608 212.445H411.71C411.71 212.445 414.591 171.039 415.393 160.074C405.845 160.074 402.296 160.148 392.744 160.148L388.857 212.445H366.959L370.846 160.148H358.982L364.231 142.044H418.404M418.409 139.26H362.146L361.562 141.266L356.314 159.37L355.285 162.923H367.853L364.189 212.237L363.967 215.22H391.438L391.628 212.644L395.32 162.918C398.79 162.914 401.472 162.9 404.085 162.886C406.582 162.872 409.148 162.858 412.4 162.853C411.404 176.76 408.958 211.866 408.935 212.251L408.726 215.225H433.603C434.808 215.225 436.198 214.4 436.392 212.589C436.406 212.473 436.42 212.306 436.439 212.098C436.466 211.741 436.503 211.245 436.536 210.699C436.605 209.633 436.684 208.373 436.73 207.59C436.754 207.22 436.767 206.956 436.772 206.886L436.883 205.283C437.546 195.8 438.204 186.317 438.871 176.835L439.329 170.372L439.839 163.206C439.918 162.145 440.015 160.741 440.057 159.328C440.2 154.33 439.695 148.034 434.451 143.712C430.875 140.761 425.473 139.26 418.409 139.26Z" fill="#1D1D1B"/>
<path d="M219.891 213.831V204.107L204.571 213.831H190.391V192.948H197.993L246.769 162.095V161.534H194.592V140.65H249.215C255.034 140.65 259.717 141.985 263.131 144.607C266.661 147.321 268.449 151.398 268.449 156.721V173.273L236.67 193.448H271.915V213.827H219.895L219.891 213.831Z" fill="white"/>
<path d="M249.21 142.039C254.736 142.039 259.095 143.262 262.283 145.708C265.47 148.159 267.059 151.828 267.059 156.72V172.508L231.888 194.837H270.524V212.436H221.284V201.572L204.172 212.436H191.78V194.332H198.395L248.158 162.858V160.143H195.981V142.039H249.214M249.214 139.26H193.202V162.923H242.863L197.589 191.557H189V215.22H204.978L205.659 214.789L218.505 206.636V215.22H273.304V192.062H241.45L268.546 174.861L269.834 174.041V156.725C269.834 150.943 267.86 146.496 263.969 143.508C260.305 140.691 255.334 139.26 249.205 139.26H249.214Z" fill="#1D1D1B"/>
<path d="M189 215.222L193.633 219.854L195.022 218.465L193.633 215.222L190.39 213.832L189 215.222Z" fill="#1D1D1B"/>
<path d="M218.506 215.222L223.138 219.854L224.528 218.465L223.138 215.222L219.896 213.832L218.506 215.222Z" fill="#1D1D1B"/>
<path d="M193.633 219.854L198.265 224.486L199.655 223.096L198.265 219.854H193.633Z" fill="#6551F3"/>
<path d="M223.139 219.854L227.771 224.486L229.161 223.096L227.771 219.854H223.139Z" fill="#6551F3"/>
<path d="M198.266 224.486L202.898 229.119L205.015 226.946L202.898 224.486H198.266Z" fill="#9F93F8"/>
<path d="M227.775 224.486L232.408 229.119L234.525 226.946L232.408 224.486H227.775Z" fill="#9F93F8"/>
<path d="M363.971 215.221L368.603 219.853L370.104 219.283L369.933 215.221H363.971Z" fill="#1D1D1B"/>
<path d="M368.605 219.854L373.238 224.486H375.272V219.854H368.605Z" fill="#6551F3"/>
<path d="M373.236 224.486L377.869 229.119H379.787L380.023 224.486H373.236Z" fill="#9F93F8"/>
<path d="M408.734 215.221L413.367 219.853H415.053L414.692 215.221H408.734Z" fill="#1D1D1B"/>
<path d="M413.369 219.854L418.002 224.486H420.98V221.707V219.854H413.369Z" fill="#6551F3"/>
<path d="M418 224.486H424.032L422.633 229.119L418 224.486Z" fill="#9F93F8"/>
<path d="M359.012 191.559L363.645 196.191H357.164L359.012 191.559Z" fill="#1D1D1B"/>
<path d="M193.203 162.924L197.836 167.556H199.656L199.397 162.924H193.203Z" fill="#1D1D1B"/>
<path d="M197.834 167.557L202.467 172.189H203.759L204.477 167.557H197.834Z" fill="#6551F3"/>
<path d="M202.467 172.188L207.099 176.82H209.147V172.188H202.467Z" fill="#9F93F8"/>
</g>
</g>
<path d="M342.444 244.542C346.455 244.542 349.279 247.662 349.279 252.893C349.279 258.093 346.455 261.243 342.444 261.243C339.947 261.243 338.253 259.995 337.213 258.242V260.887H334.628V239.371H337.213V247.543C338.253 245.79 339.947 244.542 342.444 244.542ZM341.909 259.044C344.851 259.044 346.634 256.488 346.634 252.893C346.634 249.297 344.851 246.711 341.909 246.711C338.967 246.711 337.065 249.267 337.065 252.893C337.065 256.518 338.967 259.044 341.909 259.044ZM351.656 264.661H352.875C354.331 264.661 355.193 264.512 355.757 262.997L356.56 260.887L350.468 244.899H353.231L357.838 257.558L362.444 244.899H365.208L358.075 263.561C357.362 265.463 356.292 266.83 353.469 266.83H351.656V264.661ZM385.084 260.887C384.995 260.084 384.935 259.579 384.906 258.569C383.747 260.233 381.874 261.243 379.378 261.243C376.852 261.243 373.732 260.173 373.732 256.667C373.732 253.546 376.198 251.526 381.815 251.526H384.906V251.228C384.906 249.297 384.787 246.652 380.983 246.652C378.041 246.652 377.03 248.257 376.733 249.951H374.148C374.534 246.801 376.674 244.542 381.102 244.542C386.273 244.542 387.491 247.633 387.491 250.931V257.529C387.491 258.658 387.55 259.936 387.669 260.887H385.084ZM380.002 259.133C382.469 259.133 384.965 257.945 384.965 253.487H382.082C378.16 253.487 376.377 254.468 376.377 256.429C376.377 258.182 377.773 259.133 380.002 259.133ZM391.161 239.371H394.371V242.521H391.161V239.371ZM391.458 244.899H394.044V260.887H391.458V244.899ZM397.865 239.371H400.45V252.269L407.583 244.899H410.822L404.73 251.169L411.387 260.887H408.355L402.977 253.012L400.45 255.597V260.887H397.865V239.371ZM413.537 239.371H416.746V242.521H413.537V239.371ZM413.834 244.899H416.419V260.887H413.834V244.899ZM434.553 239.371V260.887H431.967V258.242C430.927 259.995 429.233 261.243 426.707 261.243C422.725 261.243 419.902 258.093 419.902 252.893C419.902 247.662 422.725 244.542 426.707 244.542C429.233 244.542 430.927 245.79 431.967 247.543V239.371H434.553ZM427.272 259.044C430.184 259.044 432.116 256.518 432.116 252.893C432.116 249.267 430.184 246.711 427.272 246.711C424.33 246.711 422.547 249.297 422.547 252.893C422.547 256.488 424.33 259.044 427.272 259.044ZM444.919 261.243C440.253 261.243 437.4 258.004 437.4 252.893C437.4 247.781 440.253 244.542 444.919 244.542C449.555 244.542 452.437 247.781 452.437 252.893C452.437 258.004 449.555 261.243 444.919 261.243ZM444.919 259.044C447.98 259.044 449.792 256.756 449.792 252.893C449.792 249.029 447.98 246.711 444.919 246.711C441.858 246.711 440.045 249.029 440.045 252.893C440.045 256.756 441.858 259.044 444.919 259.044Z" fill="white" fill-opacity="0.7"/>
</g>
<path d="M727.272 175.912H712.04V217H706.216V175.912H690.92V170.664H727.272V175.912ZM750.37 181.8C758.626 181.8 762.21 187.176 762.21 194.664V217H756.642V196.008C756.642 190.568 754.786 186.472 748.898 186.472C742.306 186.472 739.106 191.592 739.106 198.312V217H733.538V170.664H739.106V188.008C741.666 183.336 745.954 181.8 750.37 181.8ZM784.319 181.8C795.007 181.8 801.023 189.736 800.447 201.32H773.503C774.015 208.232 777.855 213.032 784.447 213.032C789.567 213.032 793.343 210.152 794.431 205.8H800.127C798.591 213.608 792.447 217.768 784.447 217.768C773.951 217.768 767.743 210.536 767.743 199.784C767.743 189.032 774.143 181.8 784.319 181.8ZM794.559 197.032C794.431 191.848 791.231 186.472 784.127 186.472C777.855 186.472 774.335 190.696 773.567 197.032H794.559ZM822.413 170.664H829.325V177.448H822.413V170.664ZM823.053 182.568H828.621V217H823.053V182.568ZM853.808 181.8C862.064 181.8 865.648 187.176 865.648 194.664V217H860.08V196.008C860.08 190.568 858.224 186.472 852.336 186.472C845.744 186.472 842.544 191.592 842.544 198.312V217H836.976V182.568H842.544V188.008C845.104 183.336 849.392 181.8 853.808 181.8ZM872.959 196.584H892.799V201.576H872.959V196.584ZM923.638 217C923.446 215.272 923.318 214.184 923.254 212.008C920.758 215.592 916.726 217.768 911.35 217.768C905.91 217.768 899.19 215.464 899.19 207.912C899.19 201.192 904.502 196.84 916.598 196.84H923.254V196.2C923.254 192.04 922.998 186.344 914.806 186.344C908.47 186.344 906.294 189.8 905.654 193.448H900.086C900.918 186.664 905.526 181.8 915.062 181.8C926.198 181.8 928.822 188.456 928.822 195.56V209.768C928.822 212.2 928.95 214.952 929.206 217H923.638ZM912.694 213.224C918.006 213.224 923.382 210.664 923.382 201.064H917.174C908.726 201.064 904.885 203.176 904.885 207.4C904.885 211.176 907.894 213.224 912.694 213.224ZM953.933 181.8C962.573 181.8 968.653 188.52 968.653 199.784C968.653 210.984 962.573 217.768 953.933 217.768C948.557 217.768 944.909 215.08 942.669 211.304V229.8H937.101V182.568H942.669V188.264C944.909 184.488 948.557 181.8 953.933 181.8ZM952.781 213.032C959.117 213.032 962.957 207.528 962.957 199.784C962.957 192.04 959.117 186.472 952.781 186.472C946.445 186.472 942.349 191.976 942.349 199.784C942.349 207.592 946.445 213.032 952.781 213.032ZM991.745 181.8C1000.39 181.8 1006.47 188.52 1006.47 199.784C1006.47 210.984 1000.39 217.768 991.745 217.768C986.369 217.768 982.721 215.08 980.481 211.304V229.8H974.913V182.568H980.481V188.264C982.721 184.488 986.369 181.8 991.745 181.8ZM990.593 213.032C996.929 213.032 1000.77 207.528 1000.77 199.784C1000.77 192.04 996.929 186.472 990.593 186.472C984.257 186.472 980.161 191.976 980.161 199.784C980.161 207.592 984.257 213.032 990.593 213.032ZM1030.14 179.88C1030.14 174.44 1031.93 170.664 1039.42 170.664H1043.2V175.208H1040.96C1036.73 175.208 1035.71 176.232 1035.71 180.072V182.568H1042.81V187.112H1035.71V217H1030.14V187.112H1025.15V182.568H1030.14V179.88ZM1055.23 170.664V177.448H1048.32V170.664H1055.23ZM1048.96 182.568H1054.53V217H1048.96V182.568ZM1077.76 182.184C1078.53 182.184 1079.23 182.248 1079.94 182.376V187.944C1079.17 187.816 1078.27 187.752 1077.51 187.752C1068.55 187.752 1068.42 196.072 1068.42 201.192V217H1062.85V182.568H1068.35V188.136C1070.27 184.36 1073.35 182.184 1077.76 182.184ZM1099.63 181.8C1110.32 181.8 1116.34 189.736 1115.76 201.32H1088.82C1089.33 208.232 1093.17 213.032 1099.76 213.032C1104.88 213.032 1108.66 210.152 1109.74 205.8H1115.44C1113.9 213.608 1107.76 217.768 1099.76 217.768C1089.26 217.768 1083.06 210.536 1083.06 199.784C1083.06 189.032 1089.46 181.8 1099.63 181.8ZM1109.87 197.032C1109.74 191.848 1106.54 186.472 1099.44 186.472C1093.17 186.472 1089.65 190.696 1088.88 197.032H1109.87ZM1118.97 182.568H1124.92L1131.83 208.552L1139.51 182.568H1144.89L1152.63 208.552L1159.55 182.568H1165.43L1155.39 217H1150.07L1142.2 190.44L1134.39 217H1129.02L1118.97 182.568ZM1193.08 217C1192.88 215.272 1192.76 214.184 1192.69 212.008C1190.2 215.592 1186.16 217.768 1180.79 217.768C1175.35 217.768 1168.63 215.464 1168.63 207.912C1168.63 201.192 1173.94 196.84 1186.04 196.84H1192.69V196.2C1192.69 192.04 1192.44 186.344 1184.24 186.344C1177.91 186.344 1175.73 189.8 1175.09 193.448H1169.52C1170.36 186.664 1174.96 181.8 1184.5 181.8C1195.64 181.8 1198.26 188.456 1198.26 195.56V209.768C1198.26 212.2 1198.39 214.952 1198.64 217H1193.08ZM1182.13 213.224C1187.44 213.224 1192.82 210.664 1192.82 201.064H1186.61C1178.16 201.064 1174.32 203.176 1174.32 207.4C1174.32 211.176 1177.33 213.224 1182.13 213.224ZM1206.67 170.664H1212.24V217H1206.67V170.664ZM1221.17 170.664H1226.74V217H1221.17V170.664ZM1263.21 175.208C1258.98 175.208 1257.96 176.232 1257.96 180.072V182.568H1265.06V187.112H1257.96V217H1252.39V187.112H1247.4V182.568H1252.39V179.88C1252.39 174.44 1254.18 170.664 1261.67 170.664H1265.45V175.208H1263.21ZM1283.31 217.768C1273.26 217.768 1267.12 210.792 1267.12 199.784C1267.12 188.776 1273.26 181.8 1283.31 181.8C1293.29 181.8 1299.5 188.776 1299.5 199.784C1299.5 210.792 1293.29 217.768 1283.31 217.768ZM1283.31 213.032C1289.9 213.032 1293.81 208.104 1293.81 199.784C1293.81 191.464 1289.9 186.472 1283.31 186.472C1276.72 186.472 1272.81 191.464 1272.81 199.784C1272.81 208.104 1276.72 213.032 1283.31 213.032ZM1320.51 182.184C1321.28 182.184 1321.98 182.248 1322.69 182.376V187.944C1321.92 187.816 1321.02 187.752 1320.26 187.752C1311.3 187.752 1311.17 196.072 1311.17 201.192V217H1305.6V182.568H1311.1V188.136C1313.02 184.36 1316.1 182.184 1320.51 182.184ZM1359.5 181.8C1368.14 181.8 1374.22 188.52 1374.22 199.784C1374.22 210.984 1368.14 217.768 1359.5 217.768C1354.12 217.768 1350.47 215.08 1348.23 211.304V229.8H1342.66V182.568H1348.23V188.264C1350.47 184.488 1354.12 181.8 1359.5 181.8ZM1358.34 213.032C1364.68 213.032 1368.52 207.528 1368.52 199.784C1368.52 192.04 1364.68 186.472 1358.34 186.472C1352.01 186.472 1347.91 191.976 1347.91 199.784C1347.91 207.592 1352.01 213.032 1358.34 213.032ZM1395.88 181.8C1406.57 181.8 1412.59 189.736 1412.01 201.32H1385.07C1385.58 208.232 1389.42 213.032 1396.01 213.032C1401.13 213.032 1404.91 210.152 1405.99 205.8H1411.69C1410.15 213.608 1404.01 217.768 1396.01 217.768C1385.51 217.768 1379.31 210.536 1379.31 199.784C1379.31 189.032 1385.71 181.8 1395.88 181.8ZM1406.12 197.032C1405.99 191.848 1402.79 186.472 1395.69 186.472C1389.42 186.472 1385.9 190.696 1385.13 197.032H1406.12ZM1441.26 217C1441.07 215.272 1440.94 214.184 1440.88 212.008C1438.38 215.592 1434.35 217.768 1428.97 217.768C1423.53 217.768 1416.81 215.464 1416.81 207.912C1416.81 201.192 1422.13 196.84 1434.22 196.84H1440.88V196.2C1440.88 192.04 1440.62 186.344 1432.43 186.344C1426.09 186.344 1423.92 189.8 1423.28 193.448H1417.71C1418.54 186.664 1423.15 181.8 1432.69 181.8C1443.82 181.8 1446.45 188.456 1446.45 195.56V209.768C1446.45 212.2 1446.57 214.952 1446.83 217H1441.26ZM1430.32 213.224C1435.63 213.224 1441.01 210.664 1441.01 201.064H1434.8C1426.35 201.064 1422.51 203.176 1422.51 207.4C1422.51 211.176 1425.52 213.224 1430.32 213.224ZM1468.62 217.768C1458.32 217.768 1452.37 210.536 1452.37 199.784C1452.37 189.032 1458.32 181.8 1468.62 181.8C1476.5 181.8 1482 186.024 1483.6 193.768H1477.84C1476.69 189.352 1473.55 186.472 1468.43 186.472C1461.26 186.472 1458.06 191.976 1458.06 199.784C1458.06 207.528 1461.26 213.032 1468.43 213.032C1473.74 213.032 1476.69 210.152 1477.84 205.8H1483.6C1482 213.544 1476.5 217.768 1468.62 217.768ZM1504.44 181.8C1515.13 181.8 1521.15 189.736 1520.57 201.32H1493.63C1494.14 208.232 1497.98 213.032 1504.57 213.032C1509.69 213.032 1513.47 210.152 1514.56 205.8H1520.25C1518.72 213.608 1512.57 217.768 1504.57 217.768C1494.08 217.768 1487.87 210.536 1487.87 199.784C1487.87 189.032 1494.27 181.8 1504.44 181.8ZM1514.68 197.032C1514.56 191.848 1511.36 186.472 1504.25 186.472C1497.98 186.472 1494.46 190.696 1493.69 197.032H1514.68ZM1556.81 217.768C1546.76 217.768 1540.62 210.792 1540.62 199.784C1540.62 188.776 1546.76 181.8 1556.81 181.8C1566.79 181.8 1573 188.776 1573 199.784C1573 210.792 1566.79 217.768 1556.81 217.768ZM1556.81 213.032C1563.4 213.032 1567.31 208.104 1567.31 199.784C1567.31 191.464 1563.4 186.472 1556.81 186.472C1550.22 186.472 1546.31 191.464 1546.31 199.784C1546.31 208.104 1550.22 213.032 1556.81 213.032ZM1591.58 175.208C1587.36 175.208 1586.34 176.232 1586.34 180.072V182.568H1593.44V187.112H1586.34V217H1580.77V187.112H1575.78V182.568H1580.77V179.88C1580.77 174.44 1582.56 170.664 1590.05 170.664H1593.82V175.208H1591.58ZM1650.86 181.8C1660.21 181.8 1662.38 189.224 1662.38 195.496V217H1656.81V195.432C1656.81 191.656 1655.79 186.472 1649.45 186.472C1642.61 186.472 1640.49 192.488 1640.49 197.736V217H1634.93V195.944C1634.93 191.784 1634.03 186.472 1627.69 186.472C1620.91 186.472 1618.61 192.488 1618.61 198.632V217H1613.04V182.568H1618.61V188.2C1620.72 184.04 1624.24 181.8 1629.29 181.8C1635.18 181.8 1638 184.872 1639.28 188.52C1641.77 184.232 1645.49 181.8 1650.86 181.8ZM1669.91 170.664H1676.83V177.448H1669.91V170.664ZM1670.55 182.568H1676.12V217H1670.55V182.568ZM1701.31 181.8C1709.56 181.8 1713.15 187.176 1713.15 194.664V217H1707.58V196.008C1707.58 190.568 1705.72 186.472 1699.84 186.472C1693.24 186.472 1690.04 191.592 1690.04 198.312V217H1684.48V182.568H1690.04V188.008C1692.6 183.336 1696.89 181.8 1701.31 181.8ZM1750.36 170.664V217H1744.79V211.304C1742.55 215.08 1738.9 217.768 1733.46 217.768C1724.89 217.768 1718.81 210.984 1718.81 199.784C1718.81 188.52 1724.89 181.8 1733.46 181.8C1738.9 181.8 1742.55 184.488 1744.79 188.264V170.664H1750.36ZM1734.68 213.032C1740.95 213.032 1745.11 207.592 1745.11 199.784C1745.11 191.976 1740.95 186.472 1734.68 186.472C1728.34 186.472 1724.5 192.04 1724.5 199.784C1724.5 207.528 1728.34 213.032 1734.68 213.032Z" fill="white"/>
<path d="M705.896 318.208C701.672 318.208 700.648 319.232 700.648 323.072V325.568H707.752V330.112H700.648V360H695.08V330.112H690.088V325.568H695.08V322.88C695.08 317.44 696.872 313.664 704.36 313.664H708.136V318.208H705.896ZM725.998 360.768C715.95 360.768 709.806 353.792 709.806 342.784C709.806 331.776 715.95 324.8 725.998 324.8C735.982 324.8 742.19 331.776 742.19 342.784C742.19 353.792 735.982 360.768 725.998 360.768ZM725.998 356.032C732.59 356.032 736.494 351.104 736.494 342.784C736.494 334.464 732.59 329.472 725.998 329.472C719.406 329.472 715.502 334.464 715.502 342.784C715.502 351.104 719.406 356.032 725.998 356.032ZM763.2 325.184C763.968 325.184 764.672 325.248 765.376 325.376V330.944C764.608 330.816 763.712 330.752 762.944 330.752C753.984 330.752 753.856 339.072 753.856 344.192V360H748.288V325.568H753.792V331.136C755.712 327.36 758.784 325.184 763.2 325.184Z" fill="white"/>
<rect x="810" y="283" width="104" height="104" rx="27.7333" fill="#80BD00"/>
<path d="M859.847 307.524C860.501 307.156 861.24 307 862 307C862.76 307 863.504 307.156 864.153 307.524L884.847 319.396C886.186 320.165 887 321.61 887 323.15V346.85C887 348.39 886.186 349.83 884.847 350.604L864.153 362.433C863.492 362.813 862.766 363 862 363C861.244 363 860.508 362.813 859.847 362.433L852.905 358.373C851.875 357.8 852.39 357.618 852.729 357.501C854.105 357.026 854.381 356.93 855.849 356.104C856.002 356.019 856.218 356.012 856.376 356.104L861.692 359.246C861.886 359.351 862.13 359.351 862.308 359.246L883.002 347.418C883.195 347.309 883.309 347.077 883.309 346.85V323.15C883.309 322.918 883.155 322.7 882.958 322.582L862.308 310.754C862.116 310.643 861.886 310.643 861.692 310.754L841.042 322.582C840.842 322.696 840.691 322.925 840.691 323.15V346.85C840.691 347.077 840.844 347.267 841.042 347.374L846.666 350.648C849.738 352.173 851.631 350.358 851.631 348.553V325.157C851.631 324.827 851.914 324.59 852.246 324.59H854.838C855.165 324.59 855.453 324.827 855.453 325.157V348.553C855.453 352.626 853.234 354.969 849.346 354.969L849.293 354.969C848.122 354.969 847.143 354.969 844.557 353.703L839.153 350.604C837.814 349.836 837 348.39 837 346.85V323.15C837 321.61 837.814 320.162 839.153 319.396L859.847 307.524Z" fill="#010024"/>
<path d="M858.134 330.57C858.134 326.427 861.643 323.936 867.536 323.936C874.158 323.936 877.446 326.239 877.861 331.138C877.877 331.307 877.798 331.448 877.685 331.574C877.571 331.692 877.411 331.792 877.246 331.792H874.566C874.288 331.792 874.051 331.579 873.995 331.312C873.352 328.468 871.782 327.558 867.536 327.558C862.782 327.558 862.264 329.207 862.264 330.439C862.264 331.932 862.875 332.345 869.294 333.189C875.645 334.023 878.696 335.214 878.696 339.649C878.696 344.123 874.919 346.676 868.371 346.676C859.325 346.676 857.431 342.585 857.431 339.125C857.431 338.796 857.715 338.514 858.046 338.514H860.726C861.025 338.514 861.25 338.748 861.297 339.038C861.7 341.741 862.902 343.097 868.371 343.097C872.724 343.097 874.566 342.118 874.566 339.823C874.566 338.5 874.039 337.513 867.272 336.855C861.617 336.299 858.134 335.065 858.134 330.57Z" fill="#010024"/>
<path d="M980.624 313.664V360H973.072L949.008 321.216V360H943.184V313.664H950.8L974.8 352.384V313.664H980.624ZM1004.37 360.768C994.325 360.768 988.181 353.792 988.181 342.784C988.181 331.776 994.325 324.8 1004.37 324.8C1014.36 324.8 1020.56 331.776 1020.56 342.784C1020.56 353.792 1014.36 360.768 1004.37 360.768ZM1004.37 356.032C1010.96 356.032 1014.87 351.104 1014.87 342.784C1014.87 334.464 1010.96 329.472 1004.37 329.472C997.781 329.472 993.877 334.464 993.877 342.784C993.877 351.104 997.781 356.032 1004.37 356.032ZM1057.17 313.664V360H1051.61V354.304C1049.37 358.08 1045.72 360.768 1040.28 360.768C1031.7 360.768 1025.62 353.984 1025.62 342.784C1025.62 331.52 1031.7 324.8 1040.28 324.8C1045.72 324.8 1049.37 327.488 1051.61 331.264V313.664H1057.17ZM1041.49 356.032C1047.77 356.032 1051.93 350.592 1051.93 342.784C1051.93 334.976 1047.77 329.472 1041.49 329.472C1035.16 329.472 1031.32 335.04 1031.32 342.784C1031.32 350.528 1035.16 356.032 1041.49 356.032ZM1079.88 324.8C1090.57 324.8 1096.59 332.736 1096.01 344.32H1069.07C1069.58 351.232 1073.42 356.032 1080.01 356.032C1085.13 356.032 1088.91 353.152 1089.99 348.8H1095.69C1094.15 356.608 1088.01 360.768 1080.01 360.768C1069.51 360.768 1063.31 353.536 1063.31 342.784C1063.31 332.032 1069.71 324.8 1079.88 324.8ZM1090.12 340.032C1089.99 334.848 1086.79 329.472 1079.69 329.472C1073.42 329.472 1069.9 333.696 1069.13 340.032H1090.12ZM1101.9 352.704H1109.07V360H1101.9V352.704ZM1115.76 313.664H1122.61V320.448H1115.76V313.664ZM1110.7 368.256H1111.79C1114.8 368.256 1116.4 368 1116.4 364.16V325.568H1121.97V364.864C1121.97 370.944 1118.7 372.8 1113.2 372.8H1110.7V368.256ZM1143.77 360.768C1133.92 360.768 1128.86 355.456 1128.22 348.928H1133.79C1134.75 352.576 1137.18 356.16 1143.84 356.16C1149.98 356.16 1152.16 353.088 1152.16 350.528C1152.16 346.688 1147.61 345.728 1142.62 344.768C1137.24 343.68 1128.99 342.08 1128.99 334.592C1128.99 328.32 1135 324.8 1142.49 324.8C1151.9 324.8 1156.38 330.24 1157.02 335.296H1151.39C1150.62 332.8 1148.7 329.408 1142.3 329.408C1136.99 329.408 1134.62 331.776 1134.62 334.4C1134.62 338.112 1139.48 339.136 1144.6 340.224C1151.2 341.568 1157.79 343.296 1157.79 349.952C1157.79 355.328 1153.69 360.768 1143.77 360.768Z" fill="white"/>
<path d="M584.592 342.792L590.016 338.472C591.744 337.096 592.608 335.656 592.608 334.152V333.912C592.608 333.304 592.384 332.792 591.936 332.376C591.52 331.928 590.896 331.704 590.064 331.704C589.232 331.704 588.56 331.944 588.048 332.424C587.568 332.872 587.168 333.512 586.848 334.344L584.304 333.288C584.656 332.2 585.312 331.256 586.272 330.456C587.264 329.624 588.608 329.208 590.304 329.208C592.128 329.208 593.488 329.672 594.384 330.6C595.312 331.496 595.776 332.584 595.776 333.864C595.776 335.208 595.344 336.392 594.48 337.416C593.648 338.44 592.64 339.416 591.456 340.344L587.76 343.176H596.4V345.576H584.592V342.792Z" fill="#6551F3"/>
<path d="M590.064 494.864C588.4 494.864 587.104 494.528 586.176 493.856C585.248 493.152 584.528 492.352 584.016 491.456L586.272 489.872C586.656 490.608 587.12 491.216 587.664 491.696C588.24 492.176 589.04 492.416 590.064 492.416C590.992 492.416 591.712 492.208 592.224 491.792C592.768 491.344 593.04 490.752 593.04 490.016V489.68C593.04 488.944 592.752 488.4 592.176 488.048C591.6 487.664 590.784 487.472 589.728 487.472H588.048V485.072H589.728C590.752 485.072 591.504 484.88 591.984 484.496C592.496 484.112 592.752 483.648 592.752 483.104V482.768C592.752 482.128 592.512 481.616 592.032 481.232C591.552 480.848 590.896 480.656 590.064 480.656C588.56 480.656 587.408 481.312 586.608 482.624L584.592 480.992C585.168 480.16 585.888 479.488 586.752 478.976C587.616 478.464 588.752 478.208 590.16 478.208C591.888 478.208 593.264 478.592 594.288 479.36C595.312 480.096 595.824 481.104 595.824 482.384C595.824 483.44 595.488 484.288 594.816 484.928C594.176 485.536 593.392 485.92 592.464 486.08V486.272C593.488 486.432 594.352 486.832 595.056 487.472C595.76 488.112 596.112 488.992 596.112 490.112C596.112 491.552 595.552 492.704 594.432 493.568C593.344 494.432 591.888 494.864 590.064 494.864Z" fill="#6551F3"/>
<path d="M585.072 194.176H589.584V183.136L585.312 185.296L584.16 183.184L589.344 180.496H592.608V194.176H596.592V196.576H585.072V194.176Z" fill="#6551F3"/>
<path d="M721.256 514.296L734.76 500.856H694.12V468.664H699.432V495.928H734.76L721.256 482.424L724.84 478.84L744.36 498.36L724.84 517.88L721.256 514.296Z" fill="white"/>
<path d="M1764.2 519C1764.01 517.272 1763.88 516.184 1763.82 514.008C1761.32 517.592 1757.29 519.768 1751.91 519.768C1746.47 519.768 1739.75 517.464 1739.75 509.912C1739.75 503.192 1745.06 498.84 1757.16 498.84H1763.82V498.2C1763.82 494.04 1763.56 488.344 1755.37 488.344C1749.03 488.344 1746.86 491.8 1746.22 495.448H1740.65C1741.48 488.664 1746.09 483.8 1755.62 483.8C1766.76 483.8 1769.38 490.456 1769.38 497.56V511.768C1769.38 514.2 1769.51 516.952 1769.77 519H1764.2ZM1753.26 515.224C1758.57 515.224 1763.94 512.664 1763.94 503.064H1757.74C1749.29 503.064 1745.45 505.176 1745.45 509.4C1745.45 513.176 1748.46 515.224 1753.26 515.224ZM1777.29 472.664H1784.2V479.448H1777.29V472.664ZM1777.93 484.568H1783.5V519H1777.93V484.568ZM1791.73 472.664H1797.29V500.44L1812.65 484.568H1819.63L1806.51 498.072L1820.85 519H1814.32L1802.73 502.04L1797.29 507.608V519H1791.73V472.664ZM1825.48 472.664H1832.39V479.448H1825.48V472.664ZM1826.12 484.568H1831.68V519H1826.12V484.568ZM1870.74 472.664V519H1865.17V513.304C1862.93 517.08 1859.28 519.768 1853.84 519.768C1845.26 519.768 1839.18 512.984 1839.18 501.784C1839.18 490.52 1845.26 483.8 1853.84 483.8C1859.28 483.8 1862.93 486.488 1865.17 490.264V472.664H1870.74ZM1855.06 515.032C1861.33 515.032 1865.49 509.592 1865.49 501.784C1865.49 493.976 1861.33 488.472 1855.06 488.472C1848.72 488.472 1844.88 494.04 1844.88 501.784C1844.88 509.528 1848.72 515.032 1855.06 515.032ZM1893.06 519.768C1883.01 519.768 1876.87 512.792 1876.87 501.784C1876.87 490.776 1883.01 483.8 1893.06 483.8C1903.04 483.8 1909.25 490.776 1909.25 501.784C1909.25 512.792 1903.04 519.768 1893.06 519.768ZM1893.06 515.032C1899.65 515.032 1903.56 510.104 1903.56 501.784C1903.56 493.464 1899.65 488.472 1893.06 488.472C1886.47 488.472 1882.56 493.464 1882.56 501.784C1882.56 510.104 1886.47 515.032 1893.06 515.032ZM1914.27 511.704H1921.44V519H1914.27V511.704ZM1958.3 472.664V519H1952.73V513.304C1950.49 517.08 1946.84 519.768 1941.4 519.768C1932.83 519.768 1926.75 512.984 1926.75 501.784C1926.75 490.52 1932.83 483.8 1941.4 483.8C1946.84 483.8 1950.49 486.488 1952.73 490.264V472.664H1958.3ZM1942.62 515.032C1948.89 515.032 1953.05 509.592 1953.05 501.784C1953.05 493.976 1948.89 488.472 1942.62 488.472C1936.28 488.472 1932.44 494.04 1932.44 501.784C1932.44 509.528 1936.28 515.032 1942.62 515.032ZM1981.01 483.8C1991.69 483.8 1997.71 491.736 1997.13 503.32H1970.19C1970.7 510.232 1974.54 515.032 1981.13 515.032C1986.25 515.032 1990.03 512.152 1991.12 507.8H1996.81C1995.28 515.608 1989.13 519.768 1981.13 519.768C1970.64 519.768 1964.43 512.536 1964.43 501.784C1964.43 491.032 1970.83 483.8 1981.01 483.8ZM1991.25 499.032C1991.12 493.848 1987.92 488.472 1980.81 488.472C1974.54 488.472 1971.02 492.696 1970.25 499.032H1991.25ZM2000.02 484.568H2006.1L2015.7 512.152L2025.3 484.568H2031.32L2018.58 519H2012.76L2000.02 484.568ZM2050.41 472.664H2056.17L2037.48 519H2031.72L2050.41 472.664ZM2084.21 514.264V519H2056.37V514.328L2076.79 489.24H2057.65V484.568H2083.63V489.176L2063.28 514.264H2084.21ZM2104.69 483.8C2115.38 483.8 2121.4 491.736 2120.82 503.32H2093.88C2094.39 510.232 2098.23 515.032 2104.82 515.032C2109.94 515.032 2113.72 512.152 2114.81 507.8H2120.5C2118.97 515.608 2112.82 519.768 2104.82 519.768C2094.33 519.768 2088.12 512.536 2088.12 501.784C2088.12 491.032 2094.52 483.8 2104.69 483.8ZM2114.93 499.032C2114.81 493.848 2111.61 488.472 2104.5 488.472C2098.23 488.472 2094.71 492.696 2093.94 499.032H2114.93ZM2144.37 483.8C2152.63 483.8 2156.21 489.176 2156.21 496.664V519H2150.64V498.008C2150.64 492.568 2148.79 488.472 2142.9 488.472C2136.31 488.472 2133.11 493.592 2133.11 500.312V519H2127.54V484.568H2133.11V490.008C2135.67 485.336 2139.95 483.8 2144.37 483.8Z" fill="white" fill-opacity="0.8"/>
<defs>
<filter id="filter0_f_4053_13356" x="134" y="-417" width="2012" height="1524" filterUnits="userSpaceOnUse" color-interpolation-filters="sRGB">
<feFlood flood-opacity="0" result="BackgroundImageFix"/>
<feBlend mode="normal" in="SourceGraphic" in2="BackgroundImageFix" result="shape"/>
<feGaussianBlur stdDeviation="250" result="effect1_foregroundBlur_4053_13356"/>
</filter>
<filter id="filter1_f_4053_13356" x="134" y="-417" width="2012" height="1524" filterUnits="userSpaceOnUse" color-interpolation-filters="sRGB">
<feFlood flood-opacity="0" result="BackgroundImageFix"/>
<feBlend mode="normal" in="SourceGraphic" in2="BackgroundImageFix" result="shape"/>
<feGaussianBlur stdDeviation="250" result="effect1_foregroundBlur_4053_13356"/>
</filter>
<clipPath id="clip0_4053_13356">
<rect width="2216" height="626" fill="white" transform="translate(32 32)"/>
</clipPath>
<clipPath id="clip1_4053_13356">
<rect width="264.983" height="89.8719" fill="white" transform="translate(189 139.26)"/>
</clipPath>
<clipPath id="clip2_4053_13356">
<rect width="2216" height="626" fill="white" transform="translate(32 32)"/>
</clipPath>
<clipPath id="clip3_4053_13356">
<rect width="264.983" height="89.8719" fill="white" transform="translate(189 139.26)"/>
</clipPath>
</defs>
</svg>
